<?xml version="1.0" encoding="utf-8"?>
<svg width="298" height="252" viewBox="0 0 298 252" fill="none" xmlns="http://www.w3.org/2000/svg">
  <g filter="url(#filter0_d)">
    <path d="M62.5243 49.0173C58.1612 49.0173 55.3848 52.3895 56.178 56.7535L83.3479 190.054C84.1412 194.418 88.5042 198.385 92.8673 198.385H221.18C225.543 198.385 229.708 194.418 230.7 190.054L256.68 57.7453C257.473 53.3813 254.696 49.8108 250.333 49.8108L62.5243 49.0173Z" fill="#342EAD"/>
    <ellipse opacity="0.6" cx="155" cy="226.5" rx="102" ry="17.5" fill="#C4C4C4"/>
    <path d="M173.186 143.24C172.393 143.24 171.401 142.843 170.806 142.05C166.641 136.694 162.278 134.115 157.717 134.115C149.983 134.115 143.636 142.05 143.438 142.05C142.446 143.438 140.662 143.637 139.273 142.645C137.885 141.653 137.687 139.868 138.678 138.479C139.075 138.082 146.809 128.164 157.519 128.164C164.063 128.164 170.013 131.735 175.169 138.479C176.161 139.868 175.963 141.653 174.574 142.645C174.574 143.042 173.781 143.24 173.186 143.24Z" fill="white"/>
    <path d="M110.125 231.114C117.792 231.114 124.007 224.898 124.007 217.229C124.007 209.56 117.792 203.344 110.125 203.344C102.458 203.344 96.2422 209.56 96.2422 217.229C96.2422 224.898 102.458 231.114 110.125 231.114Z" fill="#342EAD"/>
    <path d="M197.386 231.114C205.053 231.114 211.269 224.898 211.269 217.229C211.269 209.56 205.053 203.344 197.386 203.344C189.719 203.344 183.504 209.56 183.504 217.229C183.504 224.898 189.719 231.114 197.386 231.114Z" fill="#342EAD"/>
    <path d="M67.8807 97.6163C66.4925 97.6163 65.3026 96.6245 64.9059 95.236L48.0487 17.4776C47.4537 14.5021 44.0823 11.3283 40.9092 10.9316L6.59979 5.97253C5.01323 5.77416 3.8233 4.18726 4.02162 2.60035C4.21994 1.01345 5.80651 -0.176734 7.39307 0.0216292L41.9008 4.98071C47.4537 5.77416 52.8084 10.7332 53.9983 16.2874L70.8555 94.0458C71.2522 95.6327 70.2606 97.2196 68.674 97.6163C68.2773 97.6163 68.079 97.6163 67.8807 97.6163Z" fill="#342EAD"/>
    <path d="M130.154 105.551C129.757 105.551 129.163 105.352 128.766 104.956L119.048 96.2278C118.255 95.4343 118.255 94.2441 118.85 93.4507C119.643 92.6572 120.833 92.6572 121.626 93.2523L131.344 102.179C132.137 102.972 132.137 104.162 131.542 104.956C131.146 105.352 130.551 105.551 130.154 105.551Z" fill="white"/>
    <path d="M121.034 106.146C120.637 106.146 120.042 105.947 119.844 105.749C119.051 104.955 118.852 103.765 119.646 102.972L128.173 92.8553C128.967 92.0619 130.157 91.8635 130.95 92.657C131.743 93.4504 131.941 94.6406 131.148 95.434L122.62 105.551C122.025 105.947 121.629 106.146 121.034 106.146Z" fill="white"/>
    <path d="M193.615 105.551C193.218 105.551 192.623 105.352 192.227 104.956L182.509 96.2278C181.716 95.4343 181.716 94.2441 182.311 93.4507C183.104 92.6572 184.294 92.6572 185.087 93.2523L194.805 102.179C195.598 102.972 195.598 104.162 195.003 104.956C194.607 105.352 194.012 105.551 193.615 105.551Z" fill="white"/>
    <path d="M184.495 106.146C184.098 106.146 183.503 105.947 183.305 105.749C182.512 104.955 182.313 103.765 183.107 102.972L191.634 92.8553C192.428 92.0619 193.618 91.8635 194.411 92.657C195.204 93.4504 195.402 94.6406 194.609 95.434L186.081 105.551C185.486 105.947 185.09 106.146 184.495 106.146Z" fill="white"/>
    <path d="M255.492 187.475C276.413 187.475 293.372 170.512 293.372 149.588C293.372 128.663 276.413 111.7 255.492 111.7C234.572 111.7 217.613 128.663 217.613 149.588C217.613 170.512 234.572 187.475 255.492 187.475Z" fill="#E64A5E"/>
    <path d="M236.846 146.612C237.243 146.414 237.838 146.216 238.631 146.216C239.425 146.216 239.821 146.414 240.416 146.612C240.813 146.811 241.21 147.207 241.606 147.604C241.804 148.001 242.201 148.596 242.201 149.191C242.399 149.786 242.399 150.381 242.399 151.175C242.399 151.968 242.399 152.563 242.201 153.158C242.003 153.753 241.804 154.15 241.606 154.745C241.408 155.34 241.011 155.539 240.416 155.737C239.821 155.935 239.425 156.134 238.631 156.134C237.838 156.134 237.441 155.935 236.846 155.737C236.45 155.539 236.053 155.142 235.657 154.745C235.26 154.348 235.26 153.753 235.062 153.158C234.863 152.563 234.863 151.968 234.863 151.175C234.863 150.381 234.863 149.786 235.062 149.191C235.26 148.596 235.458 148.199 235.657 147.604C235.855 147.207 236.252 146.811 236.846 146.612ZM239.226 148.596C239.028 148.398 238.83 148.398 238.631 148.398C238.433 148.398 238.235 148.398 238.036 148.596C237.838 148.794 237.64 148.794 237.64 148.993C237.441 149.191 237.441 149.389 237.441 149.588C237.441 149.786 237.243 149.984 237.243 150.381C237.243 150.58 237.243 150.976 237.243 151.175C237.243 151.571 237.243 151.77 237.243 151.968C237.243 152.166 237.243 152.365 237.441 152.762C237.441 152.96 237.64 153.158 237.64 153.357C237.838 153.555 237.838 153.555 238.036 153.753C238.235 153.952 238.433 153.952 238.631 153.952C238.83 153.952 239.028 153.952 239.226 153.753C239.425 153.555 239.623 153.555 239.623 153.357C239.821 153.158 239.821 152.96 239.821 152.762C239.821 152.563 240.02 152.365 240.02 151.968C240.02 151.77 240.02 151.373 240.02 151.175C240.02 150.778 240.02 150.58 240.02 150.381C240.02 150.183 240.02 149.984 239.821 149.588C239.821 149.389 239.623 149.191 239.623 148.993C239.623 148.794 239.425 148.596 239.226 148.596Z" fill="white"/>
    <path d="M247.953 155.936V146.613H250.333V155.936H247.953Z" fill="white"/>
    <path d="M255.292 153.952H256.085V155.935H254.895C254.102 155.935 253.308 155.737 252.912 155.34C252.515 154.944 252.317 154.349 252.317 153.357V150.183H251.523V148.199H252.317V146.414H254.697V148.199H256.283V150.183H254.697V153.357C254.697 153.753 254.895 153.952 255.292 153.952Z" fill="white"/>
    <path d="M260.847 155.936C259.855 155.936 258.864 155.539 258.269 154.944C257.476 154.15 257.277 153.357 257.277 152.167C257.277 150.977 257.674 150.183 258.269 149.39C258.864 148.795 259.856 148.398 261.045 148.398C262.235 148.398 263.029 148.795 263.822 149.39C264.615 149.985 264.813 150.977 264.813 152.167C264.813 152.365 264.813 152.762 264.813 152.96H259.657C259.657 153.357 259.856 153.555 260.054 153.754C260.252 153.952 260.649 154.15 260.847 154.15C261.045 154.15 261.442 154.15 261.442 154.15C261.442 154.15 261.64 153.952 261.839 153.952C262.037 153.952 262.037 153.754 262.037 153.754H264.417C264.219 154.547 263.822 155.142 263.227 155.539C262.632 155.737 261.839 155.936 260.847 155.936ZM261.839 150.58C261.64 150.382 261.244 150.183 260.847 150.183C260.45 150.183 260.252 150.382 259.855 150.58C259.657 150.778 259.459 151.175 259.459 151.373H262.235C262.235 151.175 262.235 150.977 261.839 150.58Z" fill="white"/>
    <path d="M268.579 148.398V149.588C268.976 148.795 269.769 148.398 270.761 148.398C271.356 148.398 271.752 148.596 272.149 148.795C272.545 148.993 272.942 149.39 273.14 149.786C273.339 149.39 273.735 148.993 274.132 148.795C274.529 148.596 275.124 148.398 275.52 148.398C276.512 148.398 277.107 148.596 277.702 149.191C278.297 149.786 278.495 150.58 278.495 151.572V155.936H276.314V151.968C276.314 151.572 276.115 151.175 275.917 150.778C275.719 150.58 275.322 150.382 274.925 150.382C274.529 150.382 274.132 150.58 273.934 150.778C273.735 150.977 273.537 151.373 273.537 151.968V155.936H271.356V151.968C271.356 151.572 271.157 151.175 270.959 150.778C270.761 150.58 270.364 150.382 269.967 150.382C269.571 150.382 269.174 150.58 268.976 150.778C268.777 150.977 268.579 151.373 268.579 151.968V155.936H266.199V148.398H268.579Z" fill="white"/>
  </g>
  <defs>
    <filter id="filter0_d" x="0" y="0" width="297.372" height="252" filterUnits="userSpaceOnUse" color-interpolation-filters="sRGB">
      <feFlood flood-opacity="0" result="BackgroundImageFix"/>
      <feColorMatrix in="SourceAlpha" type="matrix" values="0 0 0 0 0 0 0 0 0 0 0 0 0 0 0 0 0 0 127 0"/>
      <feOffset dy="4"/>
      <feGaussianBlur stdDeviation="2"/>
      <feColorMatrix type="matrix" values="0 0 0 0 0 0 0 0 0 0 0 0 0 0 0 0 0 0 0.25 0"/>
      <feBlend mode="normal" in2="BackgroundImageFix" result="effect1_dropShadow"/>
      <feBlend mode="normal" in="SourceGraphic" in2="effect1_dropShadow" result="shape"/>
    </filter>
  </defs>
</svg>