<svg width="215" height="233" viewBox="0 0 215 233" fill="none" xmlns="http://www.w3.org/2000/svg">
<ellipse opacity="0.6" cx="94" cy="223" rx="83" ry="10" fill="#C4C4C4"/>
<path d="M94.5 225.7C93.3 225.7 92.2 225.3 91.3 224.5C84.5 218.6 78 213 72.2 208.1C38.4 179.2 16 160.1 16 132.3C16 106.5 33.9 87 57.7 87C66.2 87 74 89.7 80.9 95C87.5 100.1 91.9 106.6 94.5 111.3C97.1 106.6 101.5 100.1 108.1 95C115 89.7 122.8 87 131.3 87C155.1 87 173 106.5 173 132.3C173 160.2 150.6 179.2 116.8 208.1C111 213 104.5 218.6 97.7 224.5C96.9 225.2 95.7 225.7 94.5 225.7Z" fill="#342EAD"/>
<path d="M75.9016 149.2C75.6016 149.2 75.2016 149.1 75.0016 148.8L68.2016 142.5C67.6016 142 67.6016 141.1 68.1016 140.5C68.6016 139.9 69.5016 139.9 70.1016 140.4L76.9016 146.7C77.5016 147.2 77.5016 148.1 77.0016 148.7C76.6016 149 76.2016 149.2 75.9016 149.2Z" fill="#ED1E79"/>
<path d="M69.5022 149.6C69.2022 149.6 68.9022 149.5 68.6022 149.3C68.0022 148.8 67.9022 147.9 68.4022 147.3L74.4022 140.3C74.9022 139.7 75.8022 139.7 76.4022 140.1C77.0022 140.6 77.1022 141.5 76.6022 142.1L70.6022 149.1C70.2022 149.4 69.9022 149.6 69.5022 149.6Z" fill="#ED1E79"/>
<path d="M120.3 149.2C120 149.2 119.6 149.1 119.4 148.8L112.6 142.5C112 142 112 141.1 112.5 140.5C113 139.9 113.9 139.9 114.5 140.4L121.3 146.7C121.9 147.2 121.9 148.1 121.4 148.7C121 149 120.7 149.2 120.3 149.2Z" fill="#ED1E79"/>
<path d="M113.901 149.6C113.601 149.6 113.301 149.5 113.001 149.3C112.401 148.8 112.301 147.9 112.801 147.3L118.801 140.3C119.301 139.7 120.201 139.7 120.801 140.1C121.401 140.6 121.501 141.5 121.001 142.1L115.001 149.1C114.701 149.4 114.301 149.6 113.901 149.6Z" fill="#ED1E79"/>
<path d="M102.599 185.9C102.199 185.9 101.699 185.7 101.399 185.3C99.2992 182.6 97.0992 181.3 94.7992 181.3C90.8992 181.3 87.6992 185.3 87.5992 185.3C87.0992 186 86.1992 186.1 85.4992 185.6C84.7992 185.1 84.6992 184.2 85.1992 183.5C85.3992 183.3 89.2992 178.3 94.6992 178.3C97.9992 178.3 100.999 180.1 103.599 183.5C104.099 184.2 103.999 185.1 103.299 185.6C103.199 185.8 102.899 185.9 102.599 185.9Z" fill="#ED1E79"/>
</svg>
