<svg width="341" height="307" viewBox="0 0 341 307" fill="none" xmlns="http://www.w3.org/2000/svg">
<rect width="341" height="307" fill="white"/>
<g clip-path="url(#clip0)">
<rect width="1920" height="3153" transform="translate(-607 -1504)" fill="white"/>
<rect x="-607" y="-1342.59" width="1922.14" height="5125" fill="white"/>
<rect x="-607" y="-926" width="1920" height="2364" fill="#F6F5F3"/>
<rect x="-607" y="-203" width="1920" height="1011" fill="white"/>
<g filter="url(#filter0_d)">
<rect x="-1" width="342" height="645" rx="25" fill="white"/>
</g>
<path d="M0 25C0 11.1929 11.1929 0 25 0H316C329.807 0 341 11.1929 341 25V307H0V25Z" fill="#2179DE"/>
<rect x="89" y="83" width="151" height="91" rx="6" stroke="white" stroke-width="8"/>
<rect x="152" y="175" width="26" height="26" fill="white"/>
<rect x="131" y="201" width="68" height="7" fill="white"/>
<rect x="103" y="100" width="62" height="34" fill="white"/>
<rect x="168" y="100" width="62" height="34" fill="#FFD508"/>
<rect x="104" y="139" width="126" height="8" fill="white"/>
<rect x="104" y="152" width="126" height="8" fill="white"/>
<path d="M266.687 214.227L266.915 222.042L261.913 227.55L259.867 225.714L259.685 223.878L259.367 222.089V220.394C259.367 220.394 259.685 219.5 259.822 219.358C260.004 219.17 260.277 218.37 260.277 218.37L261.413 217.24L262.459 216.157L264.232 214.933L266.687 214.227Z" fill="#FFD508"/>
<path d="M267.74 214.414L271.968 216.203L273.514 218.228C273.514 218.228 274.014 221.193 274.105 221.758C274.196 222.323 273.969 224.442 273.969 224.442L272.969 227.313L270.922 229.809L267.24 230.232L264.102 229.761L262.693 229.338L262.238 227.643L266.103 223.83L267.74 214.414Z" fill="#04A9CC"/>
<path d="M267.148 231.551C262.328 231.551 258.418 227.502 258.418 222.512C258.418 217.522 262.328 213.473 267.148 213.473C271.967 213.473 275.877 217.522 275.877 222.512C275.877 227.502 271.967 231.551 267.148 231.551ZM267.148 215.262C263.283 215.262 260.146 218.51 260.146 222.512C260.146 226.514 263.283 229.762 267.148 229.762C271.012 229.762 274.15 226.514 274.15 222.512C274.15 218.51 271.012 215.262 267.148 215.262Z" fill="white"/>
<path d="M261.55 229.15C261.323 229.15 261.095 229.056 260.913 228.868C260.55 228.538 260.55 227.926 260.913 227.596L266.233 222.088V214.321C266.233 213.803 266.642 213.426 267.097 213.426C267.552 213.426 267.961 213.85 267.961 214.321V222.465C267.961 222.7 267.87 222.936 267.688 223.124L262.141 228.868C262.005 229.056 261.777 229.15 261.55 229.15Z" fill="white"/>
<path d="M283.607 240.213H226.955C225.319 240.213 224 238.848 224 237.153V179.06C224 177.365 225.319 176 226.955 176H283.562C285.199 176 286.517 177.365 286.517 179.06V183.156H284.244V179.06C284.244 178.683 283.926 178.354 283.562 178.354H226.955C226.592 178.354 226.273 178.683 226.273 179.06V237.2C226.273 237.577 226.592 237.906 226.955 237.906H283.562C283.926 237.906 284.244 237.577 284.244 237.2V203.164H286.517V237.2C286.563 238.848 285.199 240.213 283.607 240.213Z" fill="white"/>
<path d="M248.596 192.853C248.596 193.371 248.186 193.795 247.686 193.795H229.636C229.136 193.795 228.727 193.371 228.727 192.853V184.709C228.727 184.191 229.136 183.767 229.636 183.767H247.732C248.232 183.767 248.641 184.191 248.641 184.709V192.853H248.596Z" fill="#FFFF0B"/>
<path d="M271.649 192.853C271.649 193.371 271.24 193.795 270.74 193.795H252.644C252.144 193.795 251.734 193.371 251.734 192.853V184.709C251.734 184.191 252.144 183.767 252.644 183.767H270.74C271.24 183.767 271.649 184.191 271.649 184.709V192.853Z" fill="#07EDCC"/>
<path d="M236.096 217.475H232.504V233.105H236.096V217.475Z" fill="#FFD508"/>
<path d="M241.869 224.537H238.277V233.105H241.869V224.537Z" fill="#07EDCC"/>
<path d="M247.643 220.158H244.051V233.151H247.643V220.158Z" fill="white"/>
<path d="M294.797 190.783L293.16 190.407C293.023 189.936 292.841 189.512 292.614 189.089L293.523 187.629C293.705 187.347 293.66 187.017 293.433 186.829L290.886 184.193C290.659 183.957 290.341 183.957 290.113 184.098L288.704 185.04C288.295 184.805 287.886 184.663 287.431 184.475L287.067 182.78C287.022 182.498 286.749 182.262 286.431 182.262H282.839C282.52 182.262 282.293 182.498 282.202 182.78L281.838 184.475C281.384 184.616 280.975 184.805 280.565 185.04L279.156 184.098C278.883 183.91 278.565 183.957 278.383 184.193L275.837 186.829C275.609 187.064 275.609 187.394 275.746 187.629L276.655 189.089C276.428 189.512 276.291 189.936 276.11 190.407L274.473 190.783C274.2 190.83 273.973 191.113 273.973 191.442V195.162C273.973 195.491 274.2 195.727 274.473 195.821L276.11 196.197C276.246 196.668 276.428 197.092 276.655 197.515L275.746 198.975C275.564 199.257 275.609 199.587 275.837 199.775L278.383 202.411C278.61 202.647 278.929 202.647 279.156 202.506L280.565 201.564C280.975 201.799 281.384 201.941 281.838 202.129L282.202 203.824C282.248 204.106 282.52 204.342 282.839 204.342H286.431C286.749 204.342 286.976 204.106 287.067 203.824L287.431 202.129C287.886 201.988 288.295 201.799 288.704 201.564L290.113 202.506C290.386 202.694 290.705 202.647 290.886 202.411L293.433 199.775C293.66 199.54 293.66 199.21 293.523 198.975L292.614 197.515C292.841 197.092 292.978 196.668 293.16 196.197L294.797 195.821C295.069 195.774 295.297 195.491 295.297 195.162V191.442C295.297 191.113 295.069 190.83 294.797 190.783ZM288.477 193.279C288.477 195.444 286.749 197.233 284.657 197.233C282.566 197.233 280.838 195.444 280.838 193.279C280.838 191.113 282.566 189.324 284.657 189.324C286.749 189.324 288.477 191.113 288.477 193.279Z" fill="#FFD508"/>
<path d="M267.016 212.345L267.334 222.372L260.923 229.434L258.286 227.08L258.013 224.726L257.559 222.466V220.348C257.559 220.348 257.968 219.218 258.195 218.983C258.422 218.747 258.786 217.712 258.786 217.712L260.241 216.252L261.56 214.84L263.833 213.239L267.016 212.345Z" fill="#FFD508"/>
<path d="M268.382 212.627L273.838 214.933L275.839 217.57C275.839 217.57 276.475 221.383 276.612 222.089C276.748 222.795 276.475 225.526 276.475 225.526L275.202 229.245L272.565 232.446L267.791 233.011L263.79 232.399L262.017 231.834L261.426 229.669L266.427 224.773L268.382 212.627Z" fill="#04A9CC"/>
<path d="M267.609 234.612C261.426 234.612 256.379 229.386 256.379 222.984C256.379 216.581 261.426 211.355 267.609 211.355C273.793 211.355 278.84 216.581 278.84 222.984C278.84 229.386 273.793 234.612 267.609 234.612ZM267.609 213.662C262.653 213.662 258.607 217.852 258.607 222.984C258.607 228.115 262.653 232.305 267.609 232.305C272.565 232.305 276.612 228.115 276.612 222.984C276.612 217.805 272.565 213.662 267.609 213.662Z" fill="white"/>
<path d="M260.425 231.552C260.152 231.552 259.834 231.457 259.607 231.222C259.152 230.751 259.152 230.045 259.607 229.574L266.427 222.513V212.532C266.427 211.873 266.927 211.355 267.563 211.355C268.2 211.355 268.7 211.873 268.7 212.532V223.031C268.7 223.36 268.564 223.643 268.382 223.878L261.243 231.175C261.016 231.41 260.743 231.552 260.425 231.552Z" fill="white"/>
<path d="M230.275 214.227H229.82V234.941H230.275V214.227Z" fill="white"/>
<path d="M251.19 234.47H229.82V234.94H251.19V234.47Z" fill="white"/>
<path d="M268.013 200.575H229.82V202.458H268.013V200.575Z" fill="white"/>
<path d="M268.013 203.87H229.82V205.753H268.013V203.87Z" fill="white"/>
<path d="M258.465 207.167H229.82V209.05H258.465V207.167Z" fill="white"/>
<path d="M44.5859 177.13C44.5859 174.208 46.9036 172 49.8006 172H125.767C128.664 172 131.819 174.078 131.819 177V219.015C131.819 221.938 129.051 224.275 126.154 224.275L50.2512 224.34C47.3542 224.34 44.9078 222.067 44.9078 219.145L44.5859 177.13Z" fill="#F2F2F2"/>
<path d="M48.9609 175.896H127.953V221.093L49.8622 221.353L48.9609 175.896Z" fill="white"/>
<path d="M61.7062 183.559H57.5859V215.443H61.7062V183.559Z" fill="#0071BC"/>
<path d="M68.339 194.793H64.2188V215.444H68.339V194.793Z" fill="#7AC943"/>
<path d="M74.9015 183.559H70.7812V215.443H74.9015V183.559Z" fill="#FF931E"/>
<path d="M100.146 201.353L87.9783 210.054C83.2143 203.366 84.4375 193.755 91.0684 188.949L100.146 201.353Z" fill="#FF931E"/>
<path d="M87.9748 210.444C87.846 210.444 87.7816 210.379 87.7173 210.314C85.3352 207.003 84.3696 202.911 84.949 198.82C85.5284 194.664 87.6529 191.158 90.9362 188.755C91.0649 188.625 91.2581 188.69 91.3868 188.82L100.464 201.158C100.529 201.223 100.529 201.288 100.529 201.418C100.529 201.483 100.464 201.613 100.4 201.613L88.2323 210.314C88.1035 210.379 88.0391 210.444 87.9748 210.444ZM91.0006 189.469C88.0391 191.742 86.1078 195.054 85.5284 198.885C85.0134 202.652 85.8503 206.483 87.9748 209.665L99.6273 201.288L91.0006 189.469Z" fill="#3C9E6D"/>
<path d="M100.064 201.352L114.678 203.69C113.326 211.872 105.665 217.457 97.5533 216.093C93.4975 215.379 90.0211 213.041 87.9609 210.054L100.064 201.352Z" fill="#7AC943"/>
<path d="M99.9993 216.678C99.1624 216.678 98.3254 216.613 97.4885 216.483C93.6258 215.834 89.8918 213.496 87.6386 210.314C87.5742 210.249 87.5742 210.184 87.5742 210.054C87.5742 209.924 87.6386 209.924 87.703 209.859L99.8061 201.158C99.8705 201.093 99.9349 201.093 100.064 201.093L114.678 203.431C114.742 203.431 114.806 203.495 114.871 203.56C114.935 203.625 114.935 203.69 114.935 203.82C114.291 207.846 112.102 211.418 108.755 213.821C106.244 215.704 103.154 216.678 99.9993 216.678ZM88.4111 210.184C90.6 213.106 94.0121 215.184 97.6173 215.834C101.48 216.483 105.278 215.574 108.433 213.301C111.523 211.093 113.583 207.781 114.291 204.08L100.128 201.807L88.4111 210.184Z" fill="#3C9E6D"/>
<path d="M100.072 201.481L91.0586 189.013C94.535 186.546 98.1402 185.766 102.196 186.416L100.072 201.481Z" fill="#7AC943"/>
<path d="M100.069 201.807C99.9405 201.807 99.8761 201.742 99.8118 201.677L90.7988 189.209C90.7344 189.144 90.7344 189.079 90.7344 188.949C90.7344 188.819 90.7988 188.754 90.8631 188.754C94.3396 186.287 98.0092 185.442 102.194 186.092C102.387 186.092 102.451 186.287 102.451 186.481L100.391 201.547C100.391 201.677 100.262 201.807 100.134 201.807C100.134 201.807 100.134 201.807 100.069 201.807ZM91.5069 189.079L99.8761 200.638L101.807 186.676C98.0091 186.157 94.7258 186.871 91.5069 189.079Z" fill="#3C9E6D"/>
<path d="M104.645 198.105L107.091 183.299C115.203 184.663 120.675 192.455 119.323 200.637L104.645 198.105Z" fill="#0071BC"/>
<path d="M119.321 200.897L104.578 198.429C104.513 198.429 104.449 198.364 104.385 198.299C104.32 198.234 104.32 198.169 104.32 198.04L106.767 183.234C106.767 183.039 106.96 182.909 107.153 182.974C111.144 183.623 114.685 185.896 117.003 189.208C119.321 192.52 120.286 196.611 119.642 200.637C119.642 200.832 119.514 200.897 119.321 200.897ZM105.028 197.845L119.063 200.248C119.578 196.481 118.677 192.715 116.488 189.598C114.299 186.481 111.08 184.403 107.346 183.688L105.028 197.845Z" fill="#3C9E6D"/>
<path d="M92.8593 223.302H82.6875V240.445H92.8593V223.302Z" fill="#F2F2F2"/>
<path d="M101.875 237.199H73.3555V241.16H101.875V237.199Z" fill="#F2F2F2"/>
<path d="M58.4888 241.549C51.2784 241.549 45.4844 240.056 45.4844 238.497V242.004C45.4844 243.563 51.2784 245.056 58.4888 245.056C65.6349 245.056 71.4933 243.563 71.4933 242.004V238.497C71.4933 240.056 65.6349 241.549 58.4888 241.549Z" fill="#E4AF18"/>
<path d="M57.0045 236.029C49.7941 236.029 44 234.536 44 232.977V236.484C44 238.042 49.7941 239.536 57.0045 239.536C64.1505 239.536 70.0089 238.042 70.0089 236.484V232.977C70.0089 234.536 64.1505 236.029 57.0045 236.029Z" fill="#F4BF1A"/>
<path d="M59.9693 230.444C52.7589 230.444 46.9648 228.951 46.9648 227.392V230.899C46.9648 232.457 52.7589 233.951 59.9693 233.951C67.1153 233.951 72.9738 232.457 72.9738 230.899V227.392C72.9738 228.951 67.1797 230.444 59.9693 230.444Z" fill="#E4AF18"/>
<path d="M70.0089 221.483C70.0089 223.042 64.2149 224.47 57.0045 224.47C49.7941 224.47 44 223.042 44 221.483C44 219.925 49.7941 218.886 57.0045 218.886C64.1505 218.886 70.0089 219.925 70.0089 221.483Z" fill="#FFD949"/>
<path d="M57.0045 224.404C49.7941 224.404 44 222.911 44 221.352V224.859C44 226.417 49.7941 227.911 57.0045 227.911C64.1505 227.911 70.0089 226.417 70.0089 224.859V221.352C70.0089 222.911 64.1505 224.404 57.0045 224.404Z" fill="#F4BF1A"/>
<path d="M45.9961 222.912V226.419C46.318 226.549 46.6399 226.614 47.0261 226.743V223.237C46.6399 223.172 46.318 223.042 45.9961 222.912Z" fill="#DCA815"/>
<path d="M66.9844 223.237V226.743C67.3706 226.614 67.6925 226.549 68.0144 226.419V222.912C67.6925 223.042 67.3706 223.172 66.9844 223.237Z" fill="#DCA815"/>
<path d="M48.5078 223.625V227.132C48.8297 227.197 49.1516 227.262 49.5379 227.327V223.82C49.1516 223.755 48.8297 223.69 48.5078 223.625Z" fill="#DCA815"/>
<path d="M64.4727 223.82V227.327C64.7945 227.262 65.1808 227.197 65.5027 227.132V223.625C65.1808 223.69 64.8589 223.755 64.4727 223.82Z" fill="#DCA815"/>
<path d="M50.9531 224.015V227.522C51.275 227.587 51.5969 227.587 51.9832 227.652V224.145C51.6613 224.145 51.3394 224.08 50.9531 224.015Z" fill="#DCA815"/>
<path d="M61.9609 224.145V227.652C62.2828 227.587 62.6047 227.587 62.991 227.522V224.015C62.6691 224.08 62.3472 224.145 61.9609 224.145Z" fill="#DCA815"/>
<path d="M53.4648 224.275V227.782C53.7867 227.782 54.1086 227.847 54.4949 227.847V224.34C54.173 224.34 53.7867 224.34 53.4648 224.275Z" fill="#DCA815"/>
<path d="M59.5195 224.34V227.847C59.8414 227.847 60.1633 227.782 60.5496 227.782V224.275C60.1633 224.34 59.8414 224.34 59.5195 224.34Z" fill="#DCA815"/>
<path d="M57.0111 224.406C56.818 224.406 56.6892 224.406 56.4961 224.406V227.912C56.6892 227.912 56.818 227.912 57.0111 227.912C57.2043 227.912 57.333 227.912 57.5261 227.912V224.406C57.333 224.406 57.1399 224.406 57.0111 224.406Z" fill="#DCA815"/>
<path d="M48.9609 229.015V232.522C49.2828 232.652 49.6047 232.717 49.991 232.847V229.34C49.6047 229.21 49.2828 229.08 48.9609 229.015Z" fill="#C49214"/>
<path d="M70.0117 229.34V232.847C70.398 232.717 70.7199 232.652 71.0418 232.522V229.015C70.6555 229.08 70.3336 229.21 70.0117 229.34Z" fill="#C49214"/>
<path d="M51.4727 229.666V233.172C51.7945 233.237 52.1164 233.302 52.5027 233.367V229.86C52.1164 229.795 51.7945 229.73 51.4727 229.666Z" fill="#C49214"/>
<path d="M67.5 229.86V233.367C67.8219 233.302 68.2082 233.237 68.5301 233.172V229.666C68.1438 229.73 67.8219 229.795 67.5 229.86Z" fill="#C49214"/>
<path d="M53.9844 230.119V233.626C54.3063 233.691 54.6282 233.691 55.0144 233.756V230.249C54.6282 230.184 54.3063 230.119 53.9844 230.119Z" fill="#C49214"/>
<path d="M64.9922 230.185V233.692C65.3141 233.627 65.636 233.627 66.0222 233.562V230.055C65.636 230.12 65.3141 230.185 64.9922 230.185Z" fill="#C49214"/>
<path d="M56.4961 230.314V233.821C56.818 233.821 57.1399 233.886 57.5261 233.886V230.379C57.1399 230.379 56.818 230.379 56.4961 230.314Z" fill="#C49214"/>
<path d="M62.4805 230.379V233.886C62.8024 233.886 63.1243 233.821 63.5105 233.821V230.314C63.1886 230.379 62.8024 230.379 62.4805 230.379Z" fill="#C49214"/>
<path d="M59.9682 230.444C59.775 230.444 59.6463 230.444 59.4531 230.444V233.951C59.6463 233.951 59.775 233.951 59.9682 233.951C60.1613 233.951 60.29 233.951 60.4832 233.951V230.444C60.29 230.444 60.1613 230.444 59.9682 230.444Z" fill="#C49214"/>
<path d="M45.9961 234.536V238.042C46.318 238.172 46.6399 238.237 47.0261 238.367V234.86C46.6399 234.73 46.318 234.666 45.9961 234.536Z" fill="#DCA815"/>
<path d="M66.9844 234.86V238.367C67.3706 238.237 67.6925 238.172 68.0144 238.042V234.536C67.6925 234.666 67.3706 234.73 66.9844 234.86Z" fill="#DCA815"/>
<path d="M48.5078 235.25V238.756C48.8297 238.821 49.1516 238.886 49.5379 238.951V235.445C49.1516 235.38 48.8297 235.315 48.5078 235.25Z" fill="#DCA815"/>
<path d="M64.4727 235.445V238.951C64.7945 238.886 65.1808 238.821 65.5027 238.756V235.25C65.1808 235.315 64.8589 235.38 64.4727 235.445Z" fill="#DCA815"/>
<path d="M50.9531 235.639V239.146C51.275 239.211 51.5969 239.211 51.9832 239.276V235.769C51.6613 235.704 51.3394 235.704 50.9531 235.639Z" fill="#DCA815"/>
<path d="M61.9609 235.769V239.276C62.2828 239.211 62.6047 239.211 62.991 239.146V235.639C62.6691 235.704 62.3472 235.704 61.9609 235.769Z" fill="#DCA815"/>
<path d="M53.4648 235.899V239.405C53.7867 239.405 54.1086 239.47 54.4949 239.47V235.964C54.173 235.964 53.7867 235.899 53.4648 235.899Z" fill="#DCA815"/>
<path d="M59.5195 235.964V239.47C59.8414 239.47 60.1633 239.405 60.5496 239.405V235.899C60.1633 235.899 59.8414 235.964 59.5195 235.964Z" fill="#DCA815"/>
<path d="M57.0111 236.03C56.818 236.03 56.6892 236.03 56.4961 236.03V239.536C56.6892 239.536 56.818 239.536 57.0111 239.536C57.2043 239.536 57.333 239.536 57.5261 239.536V236.03C57.333 236.03 57.1399 236.03 57.0111 236.03Z" fill="#DCA815"/>
<path d="M47.4805 240.054V243.561C47.8024 243.691 48.1243 243.756 48.5105 243.886V240.379C48.1243 240.314 47.8024 240.184 47.4805 240.054Z" fill="#C49214"/>
<path d="M68.4609 240.379V243.886C68.8472 243.756 69.1691 243.691 69.491 243.561V240.054C69.1691 240.184 68.8472 240.314 68.4609 240.379Z" fill="#C49214"/>
<path d="M49.9883 240.769V244.276C50.3102 244.341 50.6321 244.406 51.0183 244.471V240.964C50.6321 240.899 50.3102 240.834 49.9883 240.769Z" fill="#C49214"/>
<path d="M65.957 240.964V244.471C66.2789 244.406 66.6652 244.341 66.9871 244.276V240.769C66.6652 240.834 66.3433 240.899 65.957 240.964Z" fill="#C49214"/>
<path d="M52.5 241.159V244.666C52.8219 244.731 53.1438 244.731 53.5301 244.795V241.289C53.1438 241.289 52.8219 241.224 52.5 241.159Z" fill="#C49214"/>
<path d="M63.5078 241.289V244.795C63.8297 244.731 64.1516 244.731 64.5379 244.666V241.159C64.1516 241.224 63.8297 241.289 63.5078 241.289Z" fill="#C49214"/>
<path d="M55.0039 241.42V244.926C55.3258 244.926 55.6477 244.991 56.034 244.991V241.485C55.6477 241.485 55.3258 241.485 55.0039 241.42Z" fill="#C49214"/>
<path d="M60.9961 241.485V244.991C61.318 244.991 61.6399 244.926 62.0261 244.926V241.42C61.6399 241.485 61.318 241.485 60.9961 241.485Z" fill="#C49214"/>
<path d="M58.4877 241.55C58.2945 241.55 58.1658 241.55 57.9727 241.55V245.056C58.1658 245.056 58.2945 245.056 58.4877 245.056C58.6808 245.056 58.8096 245.056 59.0027 245.056V241.55C58.8096 241.55 58.6808 241.55 58.4877 241.55Z" fill="#C49214"/>
<path d="M69.556 237.199C68.1397 238.433 63.0538 239.537 56.9378 239.537C52.1738 239.537 48.0536 238.887 45.736 237.978C45.5428 238.173 45.4141 238.368 45.4141 238.562C45.4141 240.121 51.2081 241.55 58.4185 241.55C65.6289 241.55 71.423 240.121 71.423 238.562C71.4874 238.043 70.7792 237.588 69.556 237.199Z" fill="#FCC62D"/>
<path d="M59.9659 234.016C53.3349 234.016 47.9271 232.718 47.0902 231.354C45.1588 231.809 44 232.393 44 233.107C44 234.666 49.7941 236.095 57.0045 236.095C64.2149 236.095 70.0089 234.666 70.0089 233.107C70.0089 233.042 70.0089 232.977 69.9446 232.913C67.5625 233.562 63.9573 234.016 59.9659 234.016Z" fill="#FFD949"/>
<path d="M69.4955 225.704C67.9504 226.938 62.9288 227.977 57.006 227.977C53.1433 227.977 49.7312 227.522 47.3492 226.938C47.1561 227.133 47.0273 227.328 47.0273 227.587C47.0273 229.146 52.8214 230.574 60.0318 230.574C67.1778 230.574 73.0363 229.146 73.0363 227.587C72.9719 226.743 71.6843 226.159 69.4955 225.704Z" fill="#FCC62D"/>
<g filter="url(#filter1_d)">
<rect x="-368" width="343" height="638" rx="25" fill="white"/>
</g>
</g>
<defs>
<filter id="filter0_d" x="-21" y="-15" width="392" height="695" filterUnits="userSpaceOnUse" color-interpolation-filters="sRGB">
<feFlood flood-opacity="0" result="BackgroundImageFix"/>
<feColorMatrix in="SourceAlpha" type="matrix" values="0 0 0 0 0 0 0 0 0 0 0 0 0 0 0 0 0 0 127 0"/>
<feOffset dx="5" dy="10"/>
<feGaussianBlur stdDeviation="12.5"/>
<feColorMatrix type="matrix" values="0 0 0 0 0 0 0 0 0 0 0 0 0 0 0 0 0 0 0.1 0"/>
<feBlend mode="normal" in2="BackgroundImageFix" result="effect1_dropShadow"/>
<feBlend mode="normal" in="SourceGraphic" in2="effect1_dropShadow" result="shape"/>
</filter>
<filter id="filter1_d" x="-388" y="-15" width="393" height="688" filterUnits="userSpaceOnUse" color-interpolation-filters="sRGB">
<feFlood flood-opacity="0" result="BackgroundImageFix"/>
<feColorMatrix in="SourceAlpha" type="matrix" values="0 0 0 0 0 0 0 0 0 0 0 0 0 0 0 0 0 0 127 0"/>
<feOffset dx="5" dy="10"/>
<feGaussianBlur stdDeviation="12.5"/>
<feColorMatrix type="matrix" values="0 0 0 0 0 0 0 0 0 0 0 0 0 0 0 0 0 0 0.1 0"/>
<feBlend mode="normal" in2="BackgroundImageFix" result="effect1_dropShadow"/>
<feBlend mode="normal" in="SourceGraphic" in2="effect1_dropShadow" result="shape"/>
</filter>
<clipPath id="clip0">
<rect width="1920" height="3153" fill="white" transform="translate(-607 -1504)"/>
</clipPath>
</defs>
</svg>
