<svg width="127" height="224" viewBox="0 0 127 224" fill="none" xmlns="http://www.w3.org/2000/svg">
<path d="M63.5 179.341C98.5701 179.341 127 151.059 127 116.171C127 81.2824 98.5701 53 63.5 53C28.4299 53 0 81.2824 0 116.171C0 151.059 28.4299 179.341 63.5 179.341Z" fill="#2BD7FC"/>
<path d="M63.5 179.449C98.5701 179.449 127 152.13 127 118.43C127 84.7309 98.5701 57.4121 63.5 57.4121C28.4299 57.4121 0 84.7309 0 118.43C0 152.13 28.4299 179.449 63.5 179.449Z" fill="#04A9CC"/>
<path d="M20.2305 162.984C20.2305 162.984 52.3591 192.255 52.3591 212.272L63.5013 201.187V160.724L20.2305 162.984Z" fill="#04A9CC"/>
<path d="M106.771 162.984C106.771 162.984 74.6422 192.255 74.6422 212.272L63.5 201.187V160.724L106.771 162.984Z" fill="#04A9CC"/>
<path d="M63.5016 169.01C91.2828 169.01 113.804 146.606 113.804 118.969C113.804 91.3315 91.2828 68.9272 63.5016 68.9272C35.7204 68.9272 13.1992 91.3315 13.1992 118.969C13.1992 146.606 35.7204 169.01 63.5016 169.01Z" fill="#04A9CC"/>
<line x1="63.5" y1="13" x2="63.5" y2="45" stroke="#04A9CC"/>
<circle cx="63.5" cy="6.5" r="5.5" stroke="#04A9CC" stroke-width="2"/>
<path d="M63.5016 223.356C69.6553 223.356 74.6439 218.393 74.6439 212.271C74.6439 206.15 69.6553 201.187 63.5016 201.187C57.3479 201.187 52.3594 206.15 52.3594 212.271C52.3594 218.393 57.3479 223.356 63.5016 223.356Z" fill="#04A9CC"/>
</svg>
