<svg width="1108" height="109" viewBox="0 0 1108 109" fill="none" xmlns="http://www.w3.org/2000/svg">
<path d="M52.5 12C52.5 12.694 51.9594 13.4845 50.6526 14.3006C49.3721 15.1004 47.4859 15.8389 45.1106 16.4663C40.3676 17.7192 33.7875 18.5 26.5 18.5C19.2125 18.5 12.6324 17.7192 7.88937 16.4663C5.51414 15.8389 3.62791 15.1004 2.34736 14.3006C1.04063 13.4845 0.5 12.694 0.5 12C0.5 11.306 1.04063 10.5155 2.34736 9.69937C3.62791 8.89964 5.51414 8.16109 7.88937 7.53367C12.6324 6.28078 19.2125 5.5 26.5 5.5C33.7875 5.5 40.3676 6.28078 45.1106 7.53367C47.4859 8.16109 49.3721 8.89964 50.6526 9.69937C51.9594 10.5155 52.5 11.306 52.5 12Z" stroke="#E6E9ED"/>
<path d="M299.5 102C299.5 102.694 298.959 103.485 297.653 104.301C296.372 105.1 294.486 105.839 292.111 106.466C287.368 107.719 280.788 108.5 273.5 108.5C266.212 108.5 259.632 107.719 254.889 106.466C252.514 105.839 250.628 105.1 249.347 104.301C248.041 103.485 247.5 102.694 247.5 102C247.5 101.306 248.041 100.515 249.347 99.6994C250.628 98.8996 252.514 98.1611 254.889 97.5337C259.632 96.2808 266.212 95.5 273.5 95.5C280.788 95.5 287.368 96.2808 292.111 97.5337C294.486 98.1611 296.372 98.8996 297.653 99.6994C298.959 100.515 299.5 101.306 299.5 102Z" stroke="#E6E9ED"/>
<path d="M578.5 11C578.5 11.694 577.959 12.4845 576.653 13.3006C575.372 14.1004 573.486 14.8389 571.111 15.4663C566.368 16.7192 559.788 17.5 552.5 17.5C545.212 17.5 538.632 16.7192 533.889 15.4663C531.514 14.8389 529.628 14.1004 528.347 13.3006C527.041 12.4845 526.5 11.694 526.5 11C526.5 10.306 527.041 9.51545 528.347 8.69937C529.628 7.89964 531.514 7.16109 533.889 6.53367C538.632 5.28078 545.212 4.5 552.5 4.5C559.788 4.5 566.368 5.28078 571.111 6.53367C573.486 7.16109 575.372 7.89964 576.653 8.69937C577.959 9.51545 578.5 10.306 578.5 11Z" stroke="#E6E9ED"/>
<path d="M859.5 97C859.5 97.694 858.959 98.4845 857.653 99.3006C856.372 100.1 854.486 100.839 852.111 101.466C847.368 102.719 840.788 103.5 833.5 103.5C826.212 103.5 819.632 102.719 814.889 101.466C812.514 100.839 810.628 100.1 809.347 99.3006C808.041 98.4845 807.5 97.694 807.5 97C807.5 96.306 808.041 95.5155 809.347 94.6994C810.628 93.8996 812.514 93.1611 814.889 92.5337C819.632 91.2808 826.212 90.5 833.5 90.5C840.788 90.5 847.368 91.2808 852.111 92.5337C854.486 93.1611 856.372 93.8996 857.653 94.6994C858.959 95.5155 859.5 96.306 859.5 97Z" stroke="#E6E9ED"/>
<path d="M1107.5 7C1107.5 7.69402 1106.96 8.48455 1105.65 9.30063C1104.37 10.1004 1102.49 10.8389 1100.11 11.4663C1095.37 12.7192 1088.79 13.5 1081.5 13.5C1074.21 13.5 1067.63 12.7192 1062.89 11.4663C1060.51 10.8389 1058.63 10.1004 1057.35 9.30063C1056.04 8.48455 1055.5 7.69402 1055.5 7C1055.5 6.30598 1056.04 5.51545 1057.35 4.69937C1058.63 3.89964 1060.51 3.16109 1062.89 2.53367C1067.63 1.28078 1074.21 0.5 1081.5 0.5C1088.79 0.5 1095.37 1.28078 1100.11 2.53367C1102.49 3.16109 1104.37 3.89964 1105.65 4.69937C1106.96 5.51545 1107.5 6.30598 1107.5 7Z" stroke="#E6E9ED"/>
<path d="M45.5 16L248 103" stroke="#E6E9ED"/>
<path d="M299 103L529 14M579.5 11L808 97.5M859 97.5L1059.5 11" stroke="#E6E9ED"/>
</svg>
