<svg width="127" height="226" viewBox="0 0 127 226" fill="none" xmlns="http://www.w3.org/2000/svg">
<line x1="62.5" y1="13" x2="62.5" y2="45" stroke="#342EAD"/>
<circle cx="62.5" cy="6.5" r="5.5" stroke="#342EAD" stroke-width="2"/>
<path d="M63.5 181.341C98.5701 181.341 127 153.059 127 118.171C127 83.2824 98.5701 55 63.5 55C28.4299 55 0 83.2824 0 118.171C0 153.059 28.4299 181.341 63.5 181.341Z" fill="#453CF5"/>
<path d="M63.5 181.449C98.5701 181.449 127 154.13 127 120.43C127 86.7309 98.5701 59.4121 63.5 59.4121C28.4299 59.4121 0 86.7309 0 120.43C0 154.13 28.4299 181.449 63.5 181.449Z" fill="#342EAD"/>
<path d="M20.2305 164.984C20.2305 164.984 52.3591 194.255 52.3591 214.272L63.5013 203.187V162.724L20.2305 164.984Z" fill="#342EAD"/>
<path d="M106.771 164.984C106.771 164.984 74.6422 194.255 74.6422 214.272L63.5 203.187V162.724L106.771 164.984Z" fill="#342EAD"/>
<path d="M66.3024 171.01C94.0836 171.01 116.605 148.606 116.605 120.969C116.605 93.3315 94.0836 70.9272 66.3024 70.9272C38.5211 70.9272 16 93.3315 16 120.969C16 148.606 38.5211 171.01 66.3024 171.01Z" fill="#342EAD"/>
<path d="M63.5016 225.356C69.6553 225.356 74.6439 220.393 74.6439 214.271C74.6439 208.15 69.6553 203.187 63.5016 203.187C57.3479 203.187 52.3594 208.15 52.3594 214.271C52.3594 220.393 57.3479 225.356 63.5016 225.356Z" fill="#342EAD"/>
</svg>
