<?xml version="1.0" encoding="utf-8"?>
<!-- Generator: Adobe Illustrator 24.3.0, SVG Export Plug-In . SVG Version: 6.00 Build 0)  -->
<svg version="1.1" id="Layer_1" xmlns="http://www.w3.org/2000/svg" xmlns:xlink="http://www.w3.org/1999/xlink" x="0px" y="0px"
	 viewBox="0 0 170 45" style="enable-background:new 0 0 170 45;" xml:space="preserve">
<g>
	<path class="st0" fill-rule="evenodd" clip-rule="evenodd" fill="#3C444C"  d="M54.5,10.8c-0.2,0.1-0.4,0.1-0.5,0.2c-0.4,0.2-1.2,1-1.2,1.2c0,0.1,0,0.1-0.1,0.2c-0.2,0.2-0.3,1.4-0.2,2.1
		c0.2,0.7,0.7,1.7,0.9,1.7c0,0,0.2,0.1,0.4,0.2c0.9,0.6,2.5,0.4,3.3-0.4c1.5-1.4,1-4.3-0.8-5C55.9,10.7,54.9,10.6,54.5,10.8
		 M41.7,10.8c0,0-0.1,1.3-0.1,2.9v2.9l1.5,0c1.6,0,1.5,0,2.2-0.4c0.9-0.5,1-2.4,0.1-2.6c-0.2-0.1-0.2-0.1,0-0.3
		c0.4-0.4,0.4-1.5-0.1-2c-0.4-0.4-0.8-0.5-2.3-0.5C42.3,10.7,41.7,10.8,41.7,10.8 M47.3,10.9c0,0.1,0,1.4,0,2.9v2.8h0.7h0.7v-1v-1
		h0.3c0.3,0,0.3,0,0.8,0.9c0.1,0.1,0.2,0.4,0.4,0.6c0.1,0.2,0.2,0.4,0.3,0.5c0,0.1,1.7,0.2,1.7,0.1c0-0.1-0.2-0.3-0.2-0.4
		c0,0-0.1-0.2-0.3-0.4c-0.1-0.2-0.3-0.4-0.3-0.4c0,0-0.1-0.1-0.1-0.2c-0.1-0.1-0.2-0.4-0.4-0.6c-0.1-0.2-0.3-0.4-0.2-0.4
		c1.5-0.9,1.4-2.7-0.2-3.2C49.6,10.7,47.4,10.7,47.3,10.9 M59.3,10.8c0,0,0,1.3,0,2.9v2.8h0.6h0.6l0-2l0-2l0.2,0.3
		c0.1,0.2,0.2,0.4,0.2,0.4c0,0,0.1,0.2,0.2,0.4c0.1,0.2,0.2,0.4,0.2,0.4c0,0.1,0.2,0.5,0.9,1.8l0.3,0.6l0.8,0l0.8,0l0-2.9l0-2.9
		h-0.6H63l0,1.9l0,1.9l-0.6-1.3c-1.4-2.8-1.1-2.5-2.1-2.5C59.7,10.7,59.4,10.8,59.3,10.8 M65.6,10.9c0,0.1-0.1,0.3-0.1,0.5
		c0,0.2-0.1,0.4-0.1,0.5c0,0.1,0.1,0.1,1.4,0.1h1.4l-0.3,0.4c-0.2,0.2-0.3,0.4-0.4,0.5c0,0-0.3,0.3-0.5,0.6
		c-0.2,0.3-0.4,0.6-0.5,0.6c0,0-0.1,0.1-0.1,0.1c0,0-0.1,0.2-0.2,0.3c-0.1,0.1-0.2,0.2-0.2,0.3s-0.1,0.1-0.1,0.2
		c-0.4,0.3-0.5,0.7-0.5,1.2v0.5h2.2h2.2l0.1-0.4c0-0.2,0.1-0.5,0.1-0.6l0-0.2l-1.4,0l-1.4,0l0.1-0.2c0.1-0.1,0.2-0.3,0.3-0.4
		c0.2-0.3,0.3-0.4,0.7-1c0.2-0.2,0.4-0.5,0.5-0.7c0.1-0.1,0.2-0.3,0.2-0.3s0-0.1,0.1-0.1c0.3,0,0.8-1,0.8-1.5v-0.5h-2.1
		C65.8,10.7,65.6,10.8,65.6,10.9 M71.1,13.6v2.9H73c1.5,0,1.9,0,1.9-0.1c0,0,0-0.3,0.1-0.6l0-0.5h-1.3h-1.3v-0.6v-0.6h1.1h1.1l0-0.6
		l0-0.6l-1.1,0l-1.1,0v-0.5V12l1.3,0c1.2,0,1.3,0,1.2-0.2c0-0.1,0-0.3-0.1-0.6l0-0.5H73h-1.9V13.6 M43.9,12c0.3,0.1,0.4,0.3,0.4,0.6
		c0,0.4-0.1,0.5-0.8,0.5h-0.7v-0.6v-0.6h0.4C43.5,11.8,43.8,11.9,43.9,12 M56,12.1c0.8,0.6,1,2,0.3,2.9c-0.6,0.8-1.9,0.5-2.3-0.6
		C53.5,12.8,54.8,11.2,56,12.1 M49.6,12c1,0.4,0.6,1.3-0.6,1.3h-0.5v-0.7v-0.7H49C49.2,11.9,49.5,11.9,49.6,12 M44.3,14.3
		c0.7,0.4,0.2,1.1-0.9,1.1l-0.5,0v-0.7v-0.7l0.6,0C43.9,14.2,44.1,14.2,44.3,14.3 M61.4,30.1l0,7.1l0.2,0.3c0.4,0.6,1.2,0.9,2,0.6
		l0.3-0.1v-0.5v-0.5l-0.4,0c-0.5,0.1-0.8-0.1-0.9-0.4c-0.1-0.2-0.1-1.4-0.1-6.9c0-3.7,0-6.7,0-6.8c0-0.1-0.2-0.1-0.6-0.1h-0.5
		L61.4,30.1 M44.8,24c-1.7,0.2-2.6,0.7-3.2,1.6c-0.7,1-0.6,2.8,0,3.7c0.5,0.7,1.4,1.3,2.6,1.8c0.3,0.1,0.7,0.3,1,0.4
		c0.3,0.1,0.6,0.3,0.8,0.4c0.2,0.1,0.3,0.2,0.4,0.2c0.1,0,1.1,1,1.2,1.3c0.2,0.4,0.2,1.6,0,1.9c-0.1,0.1-0.2,0.3-0.2,0.4
		c-0.6,1.2-3.5,1.6-5.1,0.8c-0.2-0.1-0.4-0.2-0.4-0.2s-0.2-0.1-0.4-0.2C41,36,40.9,36,40.9,36.6c0,0.6,0,0.7,0.5,0.9
		c1.7,0.8,4.5,0.8,5.8,0c0.1-0.1,0.3-0.2,0.3-0.2c0.2,0,0.9-1,1.1-1.4c0.6-1.6,0.3-3.1-0.9-4.1c-0.5-0.4-1.8-1.2-2-1.2
		c-0.2,0-2-0.9-2.3-1.1c-0.1-0.1-0.2-0.2-0.2-0.2c-0.1,0-0.5-0.5-0.6-0.6c0-0.1-0.2-0.3-0.2-0.4c-0.5-0.9,0.1-2.3,1.2-2.9
		c1.2-0.5,3.3-0.4,4.4,0.3c0.3,0.2,0.3,0.2,0.3-0.5v-0.6L48,24.4C47.5,24.2,45.5,23.9,44.8,24 M81.1,24.2c-0.3,0.1-0.5,0.9-0.2,1.2
		c0.5,0.5,1.3,0.1,1.3-0.6C82.1,24.2,81.7,24,81.1,24.2 M110.6,24.3c0,0,0,3.1,0,6.9l0,6.8l0.5,0l0.5,0v-2.5V33l1.4,0
		c3.8,0,5.8-1.6,5.7-4.6c-0.1-2-1-3.2-2.9-3.8l-0.7-0.2l-2.2,0C111,24.2,110.6,24.2,110.6,24.3 M76.3,25.1c-0.4,0.1-0.4,0.1-0.4,1.1
		c0,0.4,0,0.9-0.1,1.3l0,0.6h-0.8h-0.8v0.5V29h0.8h0.8l0,3.8c0,4.2,0,3.9,0.4,4.6c0.4,0.7,2.1,0.9,3,0.4c0.2-0.1,0.2-0.1,0.2-0.5
		c0-0.5,0-0.5-0.6-0.3c-0.7,0.2-1.5,0-1.7-0.4c-0.3-0.5-0.3-0.9-0.3-4.3V29H78h1.2v-0.5V28h-1.2h-1.2l0-1.1c0-0.6,0.1-1.3,0.1-1.5
		l0-0.4l-0.2,0C76.7,25,76.5,25.1,76.3,25.1 M136.7,25.1c-0.3,0.1-0.4,0.1-0.4,0.4c-0.1,0.3-0.2,1.9-0.2,2.3l0,0.3l-0.8,0l-0.8,0
		l0,0.3c0,0.6,0,0.6,0.8,0.6h0.8v3.5c0,4.4,0,4.8,0.9,5.3c0.6,0.4,1.8,0.4,2.5,0.1l0.3-0.1v-0.5c0-0.5,0-0.5-0.6-0.3
		c-0.7,0.2-1.4,0.1-1.7-0.5l-0.2-0.3l0-3.6l0-3.6h1.2h1.2v-0.5V28h-1.3h-1.3l0-1.2c0-0.7,0.1-1.3,0.1-1.5
		C137.4,25,137.4,25,136.7,25.1 M114.4,25.2c1.1,0.2,1.8,0.5,2.4,1.1c1.4,1.5,1,4.2-0.9,5.1c-0.9,0.4-1,0.4-2.7,0.5l-1.6,0v-3.3
		v-3.3l0.4,0C113.1,25.1,114.1,25.1,114.4,25.2 M53.7,28c-2.1,0.5-3.5,2.5-3.5,5c0,0.9,0.3,2.2,0.6,2.8c0.1,0.1,0.2,0.3,0.3,0.4
		c0.5,1,2,1.8,3.4,1.9c2.2,0.1,3.8-1,4.6-3.4c0.4-1.3,0.1-4.1-0.6-5c-0.1-0.1-0.2-0.3-0.2-0.3c0-0.1-1-1-1.4-1.2
		C56.1,27.9,54.8,27.7,53.7,28 M87.8,27.9c-1.4,0.3-2.4,0.9-3,1.9c-0.1,0.2-0.2,0.4-0.3,0.4c0,0.1-0.2,0.4-0.3,0.9l-0.3,0.8l0,1.2
		c0,1.3,0.2,2.1,0.6,2.9c0.1,0.2,0.2,0.4,0.2,0.4c0,0.1,0.9,1,1,1c0,0,0.2,0.1,0.3,0.2c0.7,0.6,2.7,0.8,3.9,0.4
		c0.8-0.3,2.1-1.3,2.1-1.6c0,0,0.1-0.1,0.1-0.2c0.1-0.1,0.2-0.3,0.3-0.5c0.1-0.2,0.2-0.5,0.3-0.8c0.3-0.9,0.2-3.9-0.2-4.3
		c0,0-0.1-0.1-0.1-0.2c0-0.4-1.1-1.6-1.9-2.1C89.9,28,88.5,27.7,87.8,27.9 M98.2,28c-0.6,0.1-1,0.3-1.1,0.4c0,0-0.1,0.1-0.2,0.1
		c-0.1,0-0.4,0.3-0.8,0.6l-0.2,0.2V29c0-0.2,0-0.5,0-0.6l0-0.3h-0.5h-0.5l0,0.3c0,0.1,0.1,2.4,0.1,5l0,4.7l0.5,0l0.5,0l0-3.7l0-3.7
		l0.4-0.4c2-2.1,4.7-1.4,5,1.2c0,0.3,0.1,1.9,0.1,3.6l0,3.1h0.6h0.6l0-3.7c0-4.2,0-4.3-0.6-5.2C101.2,28,99.8,27.6,98.2,28 M122,28
		c-0.4,0.1-0.9,0.2-1.1,0.3l-0.4,0.2V29c0,0.6-0.1,0.6,0.6,0.3c2.6-1,4.5-0.1,4.5,2.1V32l-0.9,0c-2.4-0.1-4.2,0.5-4.9,1.8l-0.3,0.5
		l0,0.9c0,1,0,1.1,0.5,1.8c0.2,0.4,0.9,0.9,1.1,0.9c0.1,0,0.2,0.1,0.4,0.1c1,0.5,3.3,0.3,4.7-0.4l0.5-0.2l0-3.3c0-3.1,0-3.3-0.2-3.8
		c-0.2-0.6-0.3-0.9-0.4-0.9c0,0-0.1-0.1-0.1-0.1c0-0.1-0.5-0.6-0.7-0.7C124.6,27.9,123.5,27.7,122,28 M132.8,28
		c-0.7,0.2-1.3,0.5-1.9,1.1l-0.5,0.4l0-0.4c0-0.2,0-0.6-0.1-0.7l0-0.3h-0.6h-0.6l0,0.3c0,0.2,0.1,2.4,0.1,5l0,4.7h0.5h0.5l0-1.7
		c0-0.9,0-2.5,0-3.6l0-1.9l0.2-0.3c0.7-0.9,1.7-1.4,2.8-1.6l0.3,0v-0.5v-0.5l-0.3,0C133.4,27.8,133.1,27.9,132.8,28 M144.4,28
		c-0.6,0.1-1.1,0.4-1.7,0.9l-0.4,0.3l-0.1-0.5l-0.1-0.5l-0.5,0l-0.5,0l0,4.9c0,2.7,0,4.9,0,5c0,0.1,0.2,0.1,0.5,0.1h0.5v-3.8v-3.8
		l0.5-0.5c1.3-1.3,3.2-1.5,4.1-0.5c0.4,0.4,0.4,0.4,0.6,1l0.2,0.5l0,3.5l0,3.5h0.5h0.5l0-3.3c0-3.7,0-4.3-0.4-5.1
		C147.8,28.2,146.2,27.5,144.4,28 M154.5,27.9c-1.8,0.4-2.8,1.3-3.4,3.1l-0.2,0.6l0,1.4l0,1.4l0.2,0.6c1,2.6,3.4,3.7,6.4,2.8
		c0.8-0.3,0.9-0.3,0.9-0.9c0-0.6,0-0.6-0.6-0.3c-1.1,0.5-3.2,0.5-4,0c-0.1-0.1-0.3-0.2-0.3-0.2c-0.2,0-0.9-0.9-1.1-1.4
		c-0.3-0.6-0.5-1.6-0.4-2.2c0-0.1,0.7-0.1,3.4-0.1c2,0,3.4,0,3.5-0.1c0.1-0.1,0.1-1.8,0-2.2c-0.1-0.4-0.5-1.2-0.7-1.3
		c-0.2-0.3-0.7-0.7-0.9-0.8C156.5,27.9,155.3,27.7,154.5,27.9 M164.3,28c-0.8,0.2-1.4,0.6-2.1,1.2c-0.3,0.3-0.3,0.2-0.3-0.2
		c0-0.1,0-0.4,0-0.6l0-0.3h-0.5h-0.5l0,0.4c0,0.2,0.1,2.4,0.1,5l0,4.6h0.5h0.5v-3.6v-3.6l0.2-0.3c0.8-0.9,1.7-1.4,2.8-1.6l0.3,0
		v-0.5v-0.5l-0.3,0C164.9,27.8,164.5,27.9,164.3,28 M65.2,28.1c0,0.1,0,1.7,0,3.7l0,3.6l0.2,0.7c0.5,1.4,1.4,2.1,3,2.1
		c1.1,0,2.7-0.5,3-1c0.1-0.1,0.2,0,0.2,0.2c0,0.5,0.1,0.6,0.7,0.6h0.5l0-0.3c0-0.2-0.1-2.4-0.1-5l0-4.7h-0.5h-0.5l0,3.9v3.9
		l-0.3,0.3c-1.1,1.1-3.2,1.4-4,0.6c-0.1-0.1-0.2-0.2-0.2-0.2c-0.1,0-0.6-0.9-0.7-1.3c-0.1-0.3-0.1-1.5-0.1-3.8l0-3.4h-0.6
		C65.4,28,65.2,28.1,65.2,28.1 M80.9,33l0,4.9l0.5,0l0.5,0v-5v-5h-0.6h-0.6L80.9,33 M56.1,29.1c0.2,0.1,0.4,0.2,0.4,0.2
		c0.1,0,0.4,0.3,0.7,0.6c1.1,1.2,1.4,4,0.4,5.6c-1.1,1.8-3.4,2.2-5,0.8c-0.1-0.1-0.2-0.2-0.2-0.3c0,0-0.1-0.1-0.1-0.2
		c-0.3-0.3-0.7-1.2-0.8-2c-0.3-2.3,0.7-4.3,2.5-4.8C54.4,28.8,55.7,28.9,56.1,29.1 M89.8,29.1c1,0.5,1.6,1.3,1.9,2.6
		c0.2,0.8,0.2,2,0,2.5c-0.1,0.2-0.1,0.4-0.1,0.5c0,0.1-0.1,0.3-0.4,0.8c-0.9,1.8-3.6,2.1-5,0.7c-0.3-0.3-0.6-0.7-0.6-0.8
		c0,0-0.1-0.2-0.2-0.4c-0.6-1.1-0.6-3.1,0.1-4.4C86.3,29.1,88.2,28.4,89.8,29.1 M156.3,29.1c0.9,0.4,1.4,1.1,1.6,2.3
		c0.1,0.6,0.3,0.6-3,0.6H152l0-0.4C152.3,29.6,154.6,28.2,156.3,29.1 M125.6,33c0.1,0,0.1,0.2,0.1,1.9v1.9l-0.2,0.1
		c-1.2,0.5-3,0.5-3.8,0c-1.7-1.2-1.2-3.3,1-3.7c0.3-0.1,0.6-0.1,0.7-0.1C123.6,32.8,125.4,32.9,125.6,33"/>
	<path class="st1" fill-rule="evenodd" clip-rule="evenodd" fill="#FBF8F7" d="M6.9,19.9c-0.1,0.1-0.1,11.9,0,11.9c0,0,0.2-0.2,0.3-0.5c0.1-0.3,0.4-0.9,0.6-1.4c0.2-0.5,0.6-1.4,0.8-1.9
		c0.2-0.6,0.5-1.3,0.7-1.7c0.4-1,2.4-5.7,2.5-6.1l0.1-0.3H9.4C8,19.8,6.9,19.9,6.9,19.9 M15.6,19.9c0,0,0.2,0.4,0.4,0.9
		c0.2,0.5,0.5,1.1,0.5,1.3c0.1,0.2,0.8,1.8,1.5,3.5c0.7,1.7,1.4,3.4,1.6,3.7c0.3,0.8,0.8,2,1,2.3c0.1,0.2,0.1-0.6,0.1-5.8l0-6h-2.5
		C16.7,19.8,15.6,19.8,15.6,19.9 M13.6,24.6c-0.2,0.4-1.1,2.5-1.2,2.8c-0.3,0.6-0.8,2-0.8,2c0,0,0.5,0.1,1.2,0.1h1.2l0.5,1.2
		l0.5,1.2h1.1c0.6,0,1.1,0,1.1,0c0,0-0.2-0.6-0.5-1.2c-0.3-0.7-0.8-1.9-1.2-2.8c-1.3-3-1.5-3.5-1.5-3.5
		C13.7,24.4,13.7,24.5,13.6,24.6 M11.5,34.2c0,0,0,0.3,0,0.6c0,0.5,0,0.5-0.1,0.5c-1.6,0-2,3-0.5,3.4c0.3,0.1,0.9,0,1.2-0.1l0.2-0.1
		l0-2.2l0-2.2H12C11.8,34.2,11.6,34.2,11.5,34.2 M15.6,36.4c0,1.4,0,2.3,0.1,2.3c0.2,0.1,1,0.1,1.2,0c1.6-0.5,1.4-3.4-0.2-3.4h-0.3
		v-0.6v-0.6H16h-0.4V36.4 M7.5,35.9C7.3,36.7,7.1,37.6,7,38c-0.2,0.7-0.2,0.7,0.2,0.7h0.3l0.1-0.6l0.1-0.6l0.5,0l0.5,0l0.1,0.5
		L9,38.7l0.4,0c0.5,0,0.5,0.3-0.1-2.2l-0.5-2l-0.5,0l-0.5,0L7.5,35.9 M8.6,36.9c-0.1,0.1-0.5,0-0.6-0.1c0-0.1,0.2-1.2,0.2-1.4
		c0-0.1,0.1,0.2,0.2,0.7C8.5,36.5,8.6,36.8,8.6,36.9 M13.7,35.4c-1.3,0.3-1.2,3.1,0.1,3.4c0.9,0.2,1.4-0.5,1.4-1.7
		C15.2,35.8,14.6,35.2,13.7,35.4 M19.1,35.4c-1.1,0.5-1,2.9,0.1,3.3c0.7,0.2,1.2,0.1,1.2-0.4V38l-0.3,0c-0.4,0.1-0.8-0.1-0.9-0.3
		c-0.2-0.4-0.1-0.6,0.2-0.5c0.1,0,0.4,0,0.7,0l0.5,0v-0.5C20.6,35.7,19.9,35.1,19.1,35.4 M11.5,37c0,1.1,0,1.1-0.3,1
		c-0.7-0.2-0.5-2,0.2-2C11.5,36,11.5,36.1,11.5,37 M14.2,36.2c0.3,0.4,0.1,1.9-0.2,1.9c-0.3,0-0.6-0.8-0.4-1.4
		C13.7,36.1,13.9,35.9,14.2,36.2 M16.8,36.1c0.6,0.2,0.5,1.5-0.1,1.9c-0.3,0.2-0.4,0.1-0.4-0.9C16.4,35.9,16.4,35.9,16.8,36.1
		 M19.8,36.1c0,0,0.1,0.2,0.1,0.3l0,0.2h-0.4c-0.3,0-0.4,0-0.4-0.1C19.2,36.1,19.6,35.9,19.8,36.1"/>
	<path class="st2" fill-rule="evenodd" clip-rule="evenodd" fill="#EB1423" d="M0,22.5V45h13.7h13.7V22.5V0H13.7H0V22.5 M20.6,25.9c0,6,0,6.5-0.2,6c0-0.1-0.1-0.3-0.1-0.3
		c0-0.1-0.1-0.2-0.1-0.3c0-0.1-0.1-0.3-0.2-0.4c-0.1-0.2-0.1-0.3-0.2-0.4c-0.2-0.5-0.4-1.1-0.5-1.3c-0.1-0.1-0.1-0.2-0.1-0.3
		c0,0-0.1-0.2-0.1-0.4c-0.1-0.2-0.2-0.4-0.2-0.5c0-0.1-0.1-0.3-0.2-0.5c-0.1-0.2-0.2-0.4-0.2-0.6s-0.1-0.3-0.2-0.5
		c-0.1-0.1-0.1-0.3-0.1-0.3S18,26,17.9,25.8c-0.1-0.2-0.2-0.4-0.2-0.4c0,0-0.1-0.2-0.2-0.5c-0.3-0.6-0.4-0.9-0.4-1
		c0,0-0.1-0.2-0.2-0.5c-0.2-0.5-0.3-0.8-0.5-1.2c-0.1-0.2-0.2-0.6-0.4-0.9c-0.1-0.3-0.3-0.6-0.3-0.7c0-0.1-0.1-0.3-0.2-0.4
		c-0.2-0.5-0.4-0.5,2.3-0.5c1.4,0,2.5,0,2.6,0C20.6,19.7,20.6,20.5,20.6,25.9 M11.9,20c0,0.1-0.1,0.2-0.1,0.3s-0.1,0.1-0.1,0.2
		c0,0.1-0.1,0.3-0.2,0.5c-0.1,0.2-0.2,0.5-0.2,0.5c0,0-0.1,0.3-0.3,0.7c-0.2,0.3-0.4,0.9-0.6,1.3c-0.2,0.4-0.3,0.8-0.4,1
		C10,24.5,10,24.6,10,24.7s-0.1,0.2-0.1,0.4c-0.2,0.5-0.3,0.7-0.7,1.7c-0.4,0.9-0.6,1.4-0.7,1.7c-0.2,0.4-0.4,1-0.4,1
		c0,0-0.1,0.3-0.2,0.5c-0.4,0.9-0.5,1.1-0.5,1.2c0,0.1,0,0.1-0.1,0.1s-0.1,0.1-0.1,0.1c0,0.2-0.3,0.7-0.4,0.6
		c-0.1-0.1-0.1-12.1,0-12.1c0,0,1.2,0,2.6,0H12L11.9,20 M13.9,24.6c0.1,0.1,0.2,0.4,0.3,0.6c0.1,0.2,0.2,0.6,0.3,0.8
		c0.1,0.2,0.2,0.5,0.3,0.8c0.3,0.7,0.7,1.8,0.8,1.9c0,0.1,0.1,0.2,0.1,0.2c0,0.1,0,0.1,0.1,0.1c0,0,0.1,0.2,0.2,0.4
		c0.1,0.2,0.3,0.6,0.4,0.8c0.1,0.2,0.2,0.5,0.2,0.5c0,0.1,0.2,0.6,0.4,1C17.1,32,17.1,32,16,32c-0.5,0-1,0-1.1,0
		c-0.1,0-0.4-0.5-0.7-1.3c-0.4-1.1-0.3-1.1-1.6-1.1c-1.1,0-1.3-0.1-1.2-0.3c0,0,0.1-0.3,0.2-0.6c0.3-0.7,0.3-0.7,0.4-1.1
		c0.1-0.2,0.3-0.8,0.6-1.3c0.2-0.5,0.5-1.1,0.5-1.2c0.1-0.1,0.1-0.2,0.1-0.3c0-0.2,0.3-0.7,0.4-0.7C13.8,24.3,13.9,24.4,13.9,24.6
		 M12.4,36.3l0,2.2l-0.2,0.1c-0.4,0.2-1.2,0.2-1.6,0c-0.5-0.3-0.9-1.3-0.7-1.9c0-0.1,0.1-0.3,0.1-0.5c0.1-0.5,0.8-1,1.3-1
		c0.2,0,0.2,0,0.2-0.5c0-0.7,0-0.6,0.5-0.6l0.4,0L12.4,36.3 M16.5,34.3c0,0.1,0,0.4,0,0.6l0,0.3h0.3c1.3,0,1.8,2.1,0.7,3.1
		c-0.5,0.5-1.8,0.6-1.9,0.2c-0.1-0.2-0.1-4.3,0-4.5c0,0,0.2-0.1,0.4-0.1h0.4L16.5,34.3 M8.8,34.5C8.9,34.6,9,34.7,9,34.8
		c0,0.1,0.2,1,0.4,1.7c0,0.1,0.1,0.5,0.2,0.8c0.1,0.3,0.1,0.6,0.2,0.7c0.3,0.7,0.2,0.9-0.3,0.9c-0.4,0-0.4,0-0.6-0.6l-0.1-0.4H8.3
		H7.9L7.8,38c-0.2,0.7-0.2,0.8-0.6,0.8c-0.5,0-0.5,0-0.3-0.8c0.1-0.4,0.2-0.9,0.2-1.1c0-0.2,0.1-0.5,0.1-0.6c0-0.2,0.1-0.4,0.1-0.6
		c0-0.2,0.1-0.4,0.1-0.5c0-0.1,0.1-0.3,0.1-0.4C7.6,34.3,8.6,34.1,8.8,34.5 M14.5,35.4c1,0.5,1,2.8,0,3.3c-1,0.5-1.8-0.2-1.8-1.6
		C12.7,35.7,13.5,34.9,14.5,35.4 M20,35.3c0.5,0.3,0.7,0.6,0.7,1.4c0,0.6,0,0.6-0.9,0.6c-0.6,0-0.6,0-0.5,0.3
		c0.1,0.3,0.5,0.4,0.8,0.3c0.3-0.1,0.3,0,0.3,0.3c0,0.5-0.1,0.5-0.8,0.5c-0.8,0-1.3-0.4-1.4-1.1c0-0.2-0.1-0.4-0.1-0.4
		C18,36.1,19.1,34.9,20,35.3 M8.2,35.9c-0.2,0.3-0.1,0.9,0,0.9c0.1,0,0.2,0,0.2-0.2C8.5,36.3,8.3,35.8,8.2,35.9 M11.1,36.2
		c-0.5,0.4-0.3,1.7,0.2,1.7c0.1,0,0.1-0.1,0.1-0.9C11.4,36,11.4,35.9,11.1,36.2 M13.9,36.1c-0.3,0.2-0.3,1.7,0,1.8
		c0.3,0.1,0.4-0.2,0.4-0.9C14.3,36.3,14.1,36,13.9,36.1 M19.3,36.2c-0.2,0.2-0.1,0.3,0.2,0.3c0.3,0,0.4-0.2,0.2-0.4
		C19.6,36,19.4,36.1,19.3,36.2 M16.5,36.2c-0.1,0.1-0.1,1.7,0,1.8c0.4,0.2,0.8-1,0.5-1.5C16.9,36.2,16.6,36.1,16.5,36.2"/>
	<path class="st3" fill-rule="evenodd" clip-rule="evenodd" fill="#E86A66" d="M6.8,19.8c0,0,2,0,4.3,0c0.5,0-0.3,0-1.7,0C8,19.8,6.8,19.8,6.8,19.8 M15.5,19.8c0,0,1.1,0,2.5,0l2.5,0l0,6.1
		c0,3.3,0,6.1,0,6.1c0,0,0-2.7,0-6.1v-6.1h-2.6C16.7,19.8,15.5,19.8,15.5,19.8 M11.2,21.5C11.1,21.7,11.1,21.8,11.2,21.5
		c0.1,0,0.1-0.1,0.1-0.1C11.3,21.3,11.3,21.4,11.2,21.5 M16.4,21.9c0,0.1,0.1,0.2,0.1,0.3c0,0.1,0.1,0.1,0-0.1
		C16.5,22,16.4,21.9,16.4,21.9C16.3,21.8,16.3,21.8,16.4,21.9 M13.7,24.4C13.6,24.4,13.6,24.5,13.7,24.4c0.1,0,0.1,0.1,0.2,0.2
		c0,0.1,0.1,0.2,0.1,0.2C14,24.7,13.8,24.3,13.7,24.4C13.7,24.3,13.7,24.3,13.7,24.4 M14.6,26.4c0,0.1,0.1,0.2,0.1,0.3
		c0,0.1,0,0.1,0-0.1C14.7,26.6,14.7,26.4,14.6,26.4C14.6,26.3,14.6,26.3,14.6,26.4 M9.1,26.6C9,26.8,9,26.9,9.1,26.6
		c0.1,0,0.1-0.1,0.1-0.1S9.1,26.5,9.1,26.6 M8.6,27.7C8.5,28,8.5,28,8.6,27.7c0.1,0,0.1-0.1,0.1-0.1C8.7,27.6,8.7,27.6,8.6,27.7
		 M18.9,28c0,0.1,0.1,0.2,0.1,0.2C19.1,28.3,19,28.2,18.9,28C18.9,27.9,18.8,27.8,18.9,28 M8.3,28.5c-0.1,0.2-0.1,0.3-0.1,0.3
		C8.2,28.8,8.3,28.7,8.3,28.5c0.1-0.1,0.2-0.2,0.1-0.3C8.4,28.2,8.4,28.3,8.3,28.5 M11.5,29.5c0,0.1,0.1,0.1,1.2,0.1
		c1,0,1.2,0,1.2,0.1c0.1,0.1,0.1,0.1,0,0c0-0.1,0-0.1,0-0.2c0,0-0.5,0-1.2,0C11.9,29.5,11.6,29.5,11.5,29.5
		C11.5,29.4,11.5,29.4,11.5,29.5 M16.4,30.7c0,0.1,0.1,0.2,0.1,0.2c0,0-0.1-0.4-0.1-0.4C16.3,30.4,16.4,30.5,16.4,30.7 M15.9,32
		l-1.1,0L15.9,32c0.7,0.1,1.1,0,1.1,0c0,0,0-0.1,0-0.1C17,31.9,16.5,31.9,15.9,32 M11.5,34.1c0,0,0.1,0,0.3,0c0.5,0,0.6-0.1,0.1-0.1
		C11.7,34.1,11.5,34.1,11.5,34.1 M15.6,34.1c-0.1,0.1-0.1,4.5,0,4.5c0,0,0-1,0-2.2L15.6,34.1l0.4,0h0.4l0,0.6l0,0.6l0-0.6l0-0.6
		l-0.4,0C15.8,34.1,15.6,34.1,15.6,34.1 M7.7,34.5c0,0.1,0,0.1,0,0.2c0,0,0,0,0-0.1c0-0.2,0-0.2,0.5-0.1c0.3,0,0.5,0,0.5,0
		C8.8,34.3,7.8,34.4,7.7,34.5 M8.2,35.4c0,0,0,0.1,0,0.2c0,0.1,0,0.1,0.1,0C8.3,35.5,8.3,35.3,8.2,35.4 M10.7,35.5
		c-0.1,0.1-0.3,0.2-0.4,0.3c-0.1,0.2-0.1,0.2,0.1,0c0.1-0.1,0.4-0.3,0.5-0.3c0.2-0.1,0.2-0.1,0.1-0.1C11,35.3,10.8,35.4,10.7,35.5
		 M13.3,35.6L13,35.8L13.3,35.6c0.2-0.1,0.3-0.2,0.4-0.2c0.1,0,0.1,0,0,0C13.6,35.3,13.4,35.4,13.3,35.6 M17.3,35.5
		c0.2,0.1,0.4,0.2,0.4,0.4c0.1,0.1,0.1,0.2,0.1,0.2c0-0.2-0.5-0.6-0.8-0.6C17,35.3,17.1,35.4,17.3,35.5 M20,35.5
		c0.1,0.1,0.3,0.2,0.4,0.4c0.1,0.1,0.2,0.2,0.2,0.1c0-0.1-0.5-0.6-0.7-0.6C19.8,35.3,19.8,35.4,20,35.5 M14.5,35.4
		c0,0,0.1,0.1,0.3,0.2l0.2,0.2l-0.2-0.2C14.7,35.5,14.5,35.4,14.5,35.4C14.5,35.4,14.5,35.4,14.5,35.4 M7.4,35.9c0,0.1,0,0.3,0,0.3
		C7.4,36.2,7.4,36.1,7.4,35.9c0.1-0.1,0.1-0.2,0.1-0.2C7.5,35.7,7.4,35.8,7.4,35.9 M9.2,36.1c0,0.2,0.1,0.5,0.1,0.3
		C9.3,36.3,9.3,36.2,9.2,36.1C9.2,36,9.2,36,9.2,36.1 M13.7,36.2C13.6,36.3,13.6,36.3,13.7,36.2c0.1,0,0.2-0.1,0.3-0.1
		c0.1,0,0.1,0,0,0C13.9,36,13.8,36.1,13.7,36.2 M16.4,36.1c-0.1,0.2,0,1.9,0.1,1.9c0.1,0,0.1,0,0,0c-0.2-0.1-0.1-1.9,0.1-2l0.2,0
		l-0.2,0C16.5,36,16.4,36.1,16.4,36.1 M20.6,36.7c0,0.2,0,0.3,0,0.2c0-0.1,0-0.3,0-0.4C20.6,36.4,20.6,36.5,20.6,36.7 M19.8,36.5
		c0,0.1-0.1,0.1-0.4,0.1c-0.2,0-0.4,0-0.3,0C19.2,36.7,19.8,36.6,19.8,36.5C19.9,36.5,19.9,36.5,19.8,36.5
		C19.9,36.4,19.8,36.5,19.8,36.5 M14.3,36.8c0,0.2,0,0.3,0,0.2s0-0.3,0-0.4C14.4,36.6,14.3,36.6,14.3,36.8 M15.2,37.1
		c0,0.3,0,0.5,0,0.3c0-0.2,0-0.4,0-0.6C15.2,36.6,15.2,36.7,15.2,37.1 M17.2,36.9c0,0.2,0,0.3,0,0.2c0-0.1,0-0.3,0-0.4
		C17.2,36.6,17.2,36.7,17.2,36.9 M18,36.9c0,0.2,0,0.3,0,0.2c0-0.1,0-0.3,0-0.4C18,36.6,18,36.7,18,36.9 M13.5,37.1
		c0,0.2,0,0.2,0,0.2c0-0.1,0-0.2,0-0.3C13.5,36.8,13.5,36.9,13.5,37.1 M18.3,37.1c0,0.2,0,0.2,0,0.1c0-0.1,0-0.2,0-0.3
		C18.3,36.9,18.3,36.9,18.3,37.1 M7.1,37.4C7,37.7,7.1,37.7,7.1,37.4c0.1-0.1,0.1-0.2,0.1-0.2C7.1,37.2,7.1,37.3,7.1,37.4
		 M20.2,37.2c0.1,0,0.2,0,0.3,0c0.1,0,0,0-0.2,0C20.2,37.2,20.1,37.2,20.2,37.2 M10.8,37.5c0,0.1,0.1,0.3,0.1,0.3c0,0,0,0,0-0.1
		C10.8,37.3,10.7,37.2,10.8,37.5 M14.2,37.8c-0.1,0.2-0.3,0.2-0.5,0.1l-0.1-0.1l0.1,0.2C13.9,38.2,14.4,38,14.2,37.8
		C14.3,37.7,14.3,37.7,14.2,37.8 M12.9,38.1c0,0,0.1,0.2,0.2,0.3c0.1,0.1,0.2,0.1,0.1,0.1C13.1,38.3,13,38.2,12.9,38.1
		C12.9,38,12.9,38,12.9,38.1 M19.8,38.1c0.1,0,0.2,0,0.3,0c0.1,0,0,0-0.2,0C19.7,38,19.7,38.1,19.8,38.1 M17.5,38.4l-0.2,0.2
		L17.5,38.4c0.2-0.2,0.3-0.2,0.2-0.2C17.7,38.2,17.6,38.3,17.5,38.4 M18.5,38.2c0,0,0.1,0.1,0.2,0.2l0.2,0.2l-0.2-0.2
		C18.6,38.2,18.5,38.2,18.5,38.2 M9.8,38.6c0,0.1-0.1,0.1-0.4,0.1c-0.2,0-0.4,0-0.4,0C9,38.8,9.8,38.8,9.8,38.6
		C9.8,38.7,9.8,38.6,9.8,38.6C9.8,38.6,9.8,38.6,9.8,38.6 M6.9,38.7c0,0,0.2,0,0.4,0l0.3,0l-0.4,0C7,38.7,6.9,38.7,6.9,38.7
		 M11.2,38.8c0.1,0,0.2,0,0.2,0c0.1,0,0,0-0.1,0C11.2,38.8,11.2,38.8,11.2,38.8 M16.3,38.8c0.1,0,0.2,0,0.2,0c0.1,0,0,0-0.1,0
		C16.3,38.8,16.2,38.8,16.3,38.8 M19.6,38.8c0.1,0,0.2,0,0.2,0c0.1,0,0,0-0.1,0C19.6,38.8,19.5,38.8,19.6,38.8"/>
	<path class="st4" fill-rule="evenodd" clip-rule="evenodd" fill="#CE3937" d="M6.8,25.9c0,3.3,0,4.7,0,3.1c0-1.7,0-4.4,0-6.1C6.8,21.2,6.8,22.5,6.8,25.9 M11.2,21.7
		C11,22.2,11,22.2,11.2,21.7c0.1-0.1,0.2-0.3,0.2-0.3C11.3,21.4,11.3,21.6,11.2,21.7 M16.1,21.5c0,0,0,0.1,0.1,0.2
		c0.1,0.1,0.1,0.1,0.1,0.1c0,0,0-0.1-0.1-0.2C16.2,21.5,16.1,21.4,16.1,21.5 M10.2,24c0,0.1-0.1,0.2,0,0.2
		C10.2,24.2,10.2,24.2,10.2,24C10.4,23.8,10.3,23.8,10.2,24 M9.9,24.8c0,0.1-0.1,0.2,0,0.2C9.8,25.1,9.9,25,9.9,24.8
		C10,24.6,10,24.6,9.9,24.8 M17.8,25.5c0,0.1,0.1,0.2,0.1,0.2C18,25.8,17.9,25.7,17.8,25.5C17.8,25.3,17.7,25.3,17.8,25.5
		 M18.2,26.3c0,0.1,0.1,0.2,0.1,0.2C18.3,26.6,18.3,26.5,18.2,26.3C18.2,26.1,18.1,26.1,18.2,26.3 M15.3,27.9c0,0,0.1,0.2,0.1,0.3
		c0.1,0.1,0.1,0.2,0.1,0.2c0,0-0.1-0.2-0.1-0.3C15.4,28,15.3,27.9,15.3,27.9 M15.8,29.1c0,0.1,0.1,0.2,0.1,0.2c0,0-0.1-0.3-0.1-0.3
		C15.7,28.9,15.7,29,15.8,29.1 M7.9,29.7C7.7,29.9,7.8,30,7.9,29.7C8,29.6,8,29.5,8,29.5C8,29.5,7.9,29.6,7.9,29.7 M19.9,30.6
		c0,0.1,0.1,0.2,0.1,0.2C20.1,30.9,20.1,30.8,19.9,30.6C20,30.4,19.9,30.4,19.9,30.6 M16.6,31c0,0,0.1,0.2,0.1,0.3
		c0.1,0.1,0.1,0.2,0.1,0.2s-0.1-0.2-0.1-0.3C16.7,31.1,16.6,31,16.6,31 M20.4,31.8c0,0.1,0.1,0.2,0.1,0.2
		C20.6,32.1,20.6,31.9,20.4,31.8l0-0.2L20.4,31.8 M11.4,34.7v0.5l-0.2,0c-0.2,0-0.2,0,0,0l0.3,0L11.4,34.7c0.1-0.3,0.1-0.5,0-0.5
		C11.4,34.2,11.4,34.4,11.4,34.7 M12.4,36.3c0,1.2,0,1.7,0,1.1c0-0.6,0-1.6,0-2.2C12.4,34.6,12.4,35.1,12.4,36.3 M7.8,34.4
		c0,0,0.1,0,0.3,0c0.6,0,0.7-0.1,0.2-0.1C8,34.3,7.8,34.3,7.8,34.4 M16.5,34.6c0,0.2,0,0.3,0,0.2c0-0.1,0-0.3,0-0.4
		C16.5,34.3,16.5,34.4,16.5,34.6 M8.9,34.7C8.9,35,9,35,8.9,34.7c0.1,0,0.1-0.1,0-0.2C8.8,34.5,8.8,34.6,8.9,34.7 M13.8,35.3
		c0.1,0,0.3,0,0.4,0c0.1,0,0,0-0.2,0S13.7,35.3,13.8,35.3 M16.6,35.3c0.1,0,0.3,0,0.4,0c0.1,0,0,0-0.2,0
		C16.6,35.3,16.5,35.3,16.6,35.3 M19,35.4C19,35.4,19,35.5,19,35.4c0,0,0.3,0,0.5,0l0.4,0l-0.4,0C19.3,35.3,19.1,35.3,19,35.4
		 M20.2,35.6c0.2,0.2,0.2,0.2,0.2,0.1C20.5,35.7,20.4,35.6,20.2,35.6l-0.2-0.2L20.2,35.6 M8.2,35.6c-0.1,0.2-0.1,0.3,0,0.2
		C8.3,35.8,8.3,35.7,8.2,35.6C8.3,35.5,8.3,35.5,8.2,35.6 M10.3,35.8c-0.1,0.1-0.2,0.3-0.2,0.3c0,0.1,0,0.1,0.1,0
		c0-0.1,0.2-0.2,0.3-0.3C10.6,35.5,10.5,35.5,10.3,35.8 M9.2,35.9c0,0.1,0,0.2,0.1,0.2c0,0.1,0.1,0.1,0.1,0
		C9.3,36.1,9.3,36,9.2,35.9C9.2,35.8,9.2,35.8,9.2,35.9 M11.4,37c0,0.8,0,0.9-0.1,1c-0.1,0-0.1,0,0,0C11.5,38,11.5,38,11.4,37
		c0.1-0.5,0.1-0.9,0-0.9C11.4,36.1,11.4,36.5,11.4,37 M16.5,36.1c0,0,0.1,0.1,0.2,0.1c0.2,0,0.2,0,0.3,0.2c0.1,0.1,0.1,0.2,0.1,0.1
		c0-0.2-0.3-0.5-0.5-0.5C16.6,36.1,16.5,36.1,16.5,36.1 M19.2,36.3c0,0.1-0.1,0.2-0.1,0.3c0,0.1,0,0,0,0
		C19.2,36.4,19.3,36.3,19.2,36.3c0.1-0.1,0.1-0.1,0.1-0.1C19.3,36.1,19.3,36.2,19.2,36.3 M13.6,36.4c0,0.1-0.1,0.4-0.1,0.7l0,0.5
		l0-0.6C13.7,36.7,13.7,36.4,13.6,36.4c0.1-0.1,0.1-0.2,0.1-0.2C13.7,36.2,13.7,36.3,13.6,36.4 M8.1,36.4c0,0.1,0,0.2-0.1,0.3
		c0,0.1,0,0.2,0.3,0.2c0.3,0,0.3,0,0.3-0.2c0-0.2,0-0.2-0.1,0c0,0.3-0.3,0.2-0.4-0.1C8.1,36.4,8.1,36.3,8.1,36.4 M15.5,37
		c0,0.4,0,0.5,0,0.3c0-0.2,0-0.5,0-0.7C15.5,36.5,15.5,36.6,15.5,37 M9.3,36.6c0.1,0.4,0.2,0.6,0.1,0.2c0-0.2-0.1-0.3-0.1-0.4
		C9.3,36.4,9.3,36.5,9.3,36.6 M7.2,36.6c0,0.1,0,0.2,0,0.2c0,0.1,0,0,0.1-0.1C7.3,36.5,7.3,36.4,7.2,36.6 M12.7,37
		c0,0.3,0,0.4,0,0.3s0-0.4,0-0.6C12.7,36.6,12.7,36.7,12.7,37 M9.8,36.8c0,0.1,0,0.2,0,0.4c0,0.3,0.1,0.3,0.1-0.1
		C9.9,36.7,9.9,36.6,9.8,36.8 M10.8,37c0,0.2,0,0.2,0,0.1c0-0.1,0-0.2,0-0.3C10.8,36.8,10.8,36.9,10.8,37 M18.2,37.5
		C18.3,37.7,18.3,37.7,18.2,37.5c0.1,0,0.1-0.1,0-0.2C18.2,37.3,18.2,37.3,18.2,37.5 M19.4,37.3c0.2,0,0.5,0,0.7,0c0.2,0,0,0-0.3,0
		C19.4,37.3,19.3,37.3,19.4,37.3 M17,37.6C16.8,37.9,16.9,38,17,37.6c0.1-0.1,0.2-0.2,0.1-0.2C17.1,37.3,17.1,37.4,17,37.6
		 M19.1,37.6c0,0.1,0.2,0.4,0.3,0.4c0,0,0,0,0-0.1c0,0-0.1-0.1-0.2-0.2C19.2,37.6,19.2,37.5,19.1,37.6 M12.7,37.8
		c0,0.1,0,0.2,0.1,0.2c0.1,0.1,0.1,0,0-0.1C12.8,37.7,12.7,37.6,12.7,37.8 M18.3,37.9c0,0.1,0,0.2,0.1,0.2
		C18.5,38.1,18.5,38,18.3,37.9C18.3,37.7,18.3,37.7,18.3,37.9 M9.7,38.1C9.7,38.3,9.8,38.4,9.7,38.1c0.1,0,0.1-0.1,0-0.2
		C9.7,37.9,9.7,37.9,9.7,38.1 M20.3,37.9c0,0,0.1,0.2,0.1,0.4l0,0.3l0-0.4C20.4,38,20.4,37.9,20.3,37.9
		C20.2,37.9,20.2,37.9,20.3,37.9 M7.7,38.3c0,0.1,0,0.2,0,0.3C7.7,38.6,7.7,38.5,7.7,38.3c0.1-0.1,0.1-0.2,0.1-0.2
		C7.7,38.1,7.7,38.2,7.7,38.3 M14.9,38.4c-0.1,0.2-0.1,0.2-0.1,0.2c0.1-0.1,0.3-0.5,0.3-0.5C15,38.1,15,38.2,14.9,38.4 M17.5,38.4
		c-0.1,0.1-0.2,0.2-0.4,0.3c-0.1,0-0.2,0.1-0.2,0.1C17,38.8,17.4,38.6,17.5,38.4c0.2-0.1,0.2-0.2,0.2-0.2S17.6,38.3,17.5,38.4
		 M13.1,38.5c0.1,0.1,0.2,0.2,0.3,0.2C13.5,38.8,13.5,38.8,13.1,38.5C13,38.3,13,38.3,13.1,38.5"/>
</g>
</svg>
