<?xml version="1.0" encoding="utf-8"?>
<!-- Generator: Adobe Illustrator 24.3.0, SVG Export Plug-In . SVG Version: 6.00 Build 0)  -->
<svg version="1.1" id="Layer_1" xmlns:v="https://vecta.io/nano"
	 xmlns="http://www.w3.org/2000/svg" xmlns:xlink="http://www.w3.org/1999/xlink" x="0px" y="0px" viewBox="0 0 156 45"
	 style="enable-background:new 0 0 156 45;" xml:space="preserve">
<path class="st0" fill="#222D64" d="M6.4,0h143.1c2.8,0,5,2.3,5,5V40c0,2.8-2.3,5-5,5H6.4c-2.8,0-5-2.3-5-5V5C1.4,2.3,3.6,0,6.4,0z"/>
<path class="st1" fill="#009DDC"  d="M29.6,9c3.3-3.5,8.8-3.6,12.2-0.3c0.7,0.6,1.2,1.3,1.6,2.1c1.4-0.6,2.8-0.9,4.3-0.9c5.9,0,10.7,4.8,10.7,10.7
	s-4.8,10.7-10.7,10.7c-0.7,0-1.4-0.1-2.1-0.2c-2,3.6-6.5,5-10.2,3.2c-1.9,4.5-7.1,6.6-11.6,4.7c-2.3-1-4-2.8-4.9-5.1
	c-0.6,0.1-1.1,0.2-1.7,0.2C12.7,34.1,9,30.3,9,25.7c0-2.9,1.6-5.6,4.1-7.1c-2.1-4.9,0.1-10.5,5-12.6C22.2,4.3,26.9,5.5,29.6,9z"/>
<g>
	<path class="st2" fill="#FFFFFF"  d="M16.2,23.1c0,0.1,0,0.1,0,0.1c0,0,0.2,0.1,0.3,0.2c0.5,0.2,1,0.4,1.5,0.3c1,0,1.6-0.5,1.6-1.4l0,0
		c0-0.8-0.7-1.1-1.4-1.3l-0.1,0c-0.5-0.2-0.9-0.3-0.9-0.6l0,0c0-0.3,0.3-0.5,0.6-0.5c0.4,0,0.9,0.1,1.3,0.3c0,0,0.1,0.1,0.1,0
		l0.2-0.6c0,0,0-0.1-0.1-0.1c-0.4-0.3-0.9-0.4-1.5-0.4h-0.1c-0.8-0.1-1.5,0.5-1.6,1.2c0,0,0,0.1,0,0.1l0,0c0,0.9,0.7,1.1,1.4,1.3
		l0.1,0c0.5,0.1,0.9,0.3,0.9,0.6l0,0c0,0.3-0.3,0.5-0.7,0.5c-0.5,0-0.9-0.1-1.3-0.4l-0.2-0.1c0,0-0.1-0.1-0.1,0.1L16.2,23.1z
		 M31,23.1v0.1c0,0,0.2,0.1,0.3,0.2c0.5,0.2,1,0.4,1.5,0.3c1,0,1.6-0.5,1.6-1.4l0,0c0-0.8-0.7-1.1-1.4-1.3L33,21
		c-0.5-0.2-0.9-0.3-0.9-0.6l0,0c0-0.3,0.3-0.5,0.6-0.5c0.4,0,0.9,0.1,1.3,0.3c0,0,0.1,0.1,0.1,0l0.2-0.6c0,0,0-0.1-0.1-0.1
		c-0.4-0.3-0.9-0.4-1.5-0.4h-0.1c-0.8-0.1-1.5,0.5-1.6,1.2c0,0,0,0.1,0,0.1l0,0c0,0.9,0.7,1.1,1.4,1.3l0.1,0
		c0.5,0.1,0.9,0.3,0.9,0.6l0,0c0,0.3-0.3,0.5-0.7,0.5c-0.5,0-0.9-0.1-1.3-0.4l-0.2-0.1c0,0-0.1,0-0.1,0c0,0,0,0,0,0L31,23.1z
		 M42,20.5c-0.1-0.3-0.2-0.5-0.4-0.7c-0.2-0.2-0.4-0.4-0.6-0.5c-0.6-0.2-1.2-0.2-1.8,0c-0.2,0.1-0.5,0.3-0.6,0.5
		c-0.2,0.2-0.3,0.5-0.4,0.7c-0.2,0.6-0.2,1.2,0,1.8c0.1,0.3,0.2,0.5,0.4,0.7c0.2,0.2,0.4,0.4,0.6,0.5c0.6,0.2,1.2,0.2,1.8,0
		c0.2-0.1,0.5-0.3,0.6-0.5c0.2-0.2,0.3-0.5,0.4-0.7C42.2,21.8,42.2,21.1,42,20.5 M41.1,21.4c0,0.4-0.1,0.8-0.3,1.1
		c-0.3,0.5-1,0.5-1.4,0.2c-0.1-0.1-0.1-0.1-0.2-0.2c-0.2-0.3-0.3-0.7-0.3-1.1c0-0.4,0.1-0.8,0.3-1.2c0.4-0.5,1-0.5,1.5-0.2
		c0.1,0,0.1,0.1,0.2,0.2C41.1,20.6,41.2,21,41.1,21.4"/>
	<path class="st3" fill="#FFFFFF"  fill-rule="evenodd" clip-rule="evenodd" d="M48.9,22.9c0,0-0.1-0.1-0.1-0.1c-0.1,0-0.3,0.1-0.4,0.1c-0.2,0-0.3,0-0.5,0c-0.3,0-0.7-0.1-0.9-0.3
		c-0.3-0.3-0.4-0.7-0.4-1.2c0-0.4,0.1-0.8,0.3-1.1c0.2-0.3,0.6-0.4,0.9-0.4c0.3,0,0.6,0,0.9,0.1c0,0,0.1,0,0.1-0.1l0.2-0.6
		c0,0,0-0.1,0-0.1c0,0,0,0,0,0c-0.2-0.1-0.4-0.1-0.6-0.1c-0.2,0-0.4,0-0.6,0c-0.3,0-0.6,0.1-0.9,0.2c-0.3,0.1-0.5,0.3-0.7,0.5
		c-0.2,0.2-0.3,0.5-0.4,0.7c-0.1,0.3-0.1,0.6-0.1,0.9c0,0.6,0.2,1.2,0.6,1.7c0.4,0.4,1,0.7,1.7,0.6c0.4,0,0.8-0.1,1.2-0.2
		c0,0,0.1-0.1,0-0.1L48.9,22.9z M53.3,20.4c-0.1-0.2-0.2-0.5-0.4-0.7c-0.2-0.2-0.3-0.3-0.5-0.4c-0.3-0.1-0.5-0.2-0.8-0.2
		c-0.3,0-0.6,0.1-0.9,0.2c-0.3,0.1-0.5,0.3-0.7,0.5c-0.2,0.2-0.3,0.5-0.4,0.7c-0.1,0.3-0.1,0.6-0.1,0.9c0,0.3,0,0.6,0.1,0.9
		c0.1,0.3,0.2,0.5,0.4,0.7c0.2,0.2,0.4,0.4,0.7,0.5c0.3,0.1,0.7,0.2,1,0.2c0.5,0,1-0.1,1.4-0.3c0,0,0.1,0,0-0.1L53,22.8
		c0,0-0.1-0.1-0.1-0.1c0,0,0,0,0,0c-0.4,0.2-0.8,0.2-1.2,0.2c-0.6,0.1-1.2-0.4-1.3-1c0-0.1,0-0.2,0-0.3h2.9c0,0,0.1,0,0.1-0.1
		C53.4,21.2,53.4,20.8,53.3,20.4z M50.4,21c0-0.2,0.1-0.5,0.2-0.7c0.2-0.3,0.5-0.4,0.8-0.4c0.3,0,0.6,0.1,0.8,0.4
		c0.1,0.2,0.2,0.4,0.2,0.7L50.4,21z M30.3,20.4c-0.1-0.2-0.2-0.5-0.4-0.7c-0.2-0.2-0.3-0.3-0.5-0.4c-0.3-0.1-0.5-0.2-0.8-0.2
		c-0.3,0-0.6,0.1-0.9,0.2c-0.2,0.1-0.5,0.3-0.6,0.5c-0.2,0.2-0.3,0.5-0.4,0.7c-0.1,0.3-0.1,0.6-0.1,0.9c0,0.3,0,0.6,0.1,0.9
		c0.1,0.3,0.2,0.5,0.4,0.7c0.2,0.2,0.4,0.4,0.7,0.5c0.3,0.1,0.7,0.2,1,0.2c0.5,0,1-0.1,1.4-0.3c0,0,0.1,0,0-0.1L30,22.8
		c0,0-0.1-0.1-0.1-0.1c-0.4,0.2-0.8,0.2-1.2,0.2c-0.4,0-0.7-0.1-1-0.3c-0.2-0.3-0.4-0.6-0.3-1h2.9c0,0,0.1,0,0.1-0.1
		C30.5,21.2,30.4,20.8,30.3,20.4z M27.5,21c0-0.2,0.1-0.5,0.2-0.7c0.2-0.3,0.5-0.4,0.8-0.4c0.3,0,0.6,0.1,0.8,0.4
		c0.1,0.2,0.2,0.4,0.2,0.7L27.5,21z"/>
	<path class="st2" fill="#FFFFFF"  d="M22.4,20.8c-0.1,0-0.3,0-0.4,0c-0.2,0-0.5,0-0.7,0.1c-0.2,0.1-0.4,0.1-0.6,0.3c-0.4,0.3-0.6,0.7-0.6,1.1
		c0,0.2,0,0.4,0.1,0.6c0.1,0.2,0.2,0.3,0.4,0.4c0.2,0.1,0.4,0.2,0.6,0.3c0.2,0.1,0.5,0.1,0.8,0.1c0.3,0,0.6,0,0.9-0.1l0.7-0.1
		l0.2-0.1c0,0,0.1,0,0.1-0.1v-2.6c0-0.5-0.1-0.9-0.5-1.3c-0.4-0.3-0.8-0.4-1.3-0.4c-0.3,0-0.5,0-0.8,0.1c-0.3,0.1-0.6,0.2-0.9,0.3
		c0,0,0,0.1,0,0.1l0.2,0.5c0,0,0,0.1,0.1,0.1c0,0,0,0,0,0h0c0.4-0.2,0.8-0.3,1.3-0.3c0.2,0,0.5,0,0.7,0.2c0.2,0.1,0.2,0.3,0.2,0.7
		v0.1L22.4,20.8z M21.3,22.8c-0.1,0-0.1-0.1-0.2-0.2c-0.1-0.1-0.1-0.2-0.1-0.4c0-0.2,0.1-0.4,0.3-0.6c0.2-0.2,0.5-0.2,0.8-0.2
		c0.3,0,0.5,0,0.8,0.1v1.3c-0.3,0-0.5,0.1-0.8,0.1C21.8,23.1,21.6,23,21.3,22.8z"/>
	<path class="st3" fill="#FFFFFF" fill-rule="evenodd" clip-rule="evenodd"  d="M45.5,19.4c0,0,0-0.1,0-0.1c-0.2,0-0.3-0.1-0.5-0.1c-0.3,0-0.5,0-0.7,0.1c-0.2,0.1-0.4,0.2-0.5,0.4v-0.4
		c0,0,0-0.1-0.1-0.1H43c0,0-0.1,0-0.1,0.1v4.3c0,0,0,0.1,0.1,0.1h0.8c0,0,0.1,0,0.1-0.1v-2.1c0-0.3,0-0.5,0.1-0.8
		c0.1-0.2,0.1-0.3,0.3-0.4c0.1-0.1,0.2-0.2,0.4-0.2c0.1,0,0.3-0.1,0.4-0.1c0.1,0,0.2,0,0.3,0c0,0,0.1,0,0.1-0.1L45.5,19.4z
		 M38.5,17.4l-0.3-0.1c-0.1,0-0.3,0-0.4,0c-0.4,0-0.9,0.1-1.2,0.4c-0.3,0.4-0.5,0.8-0.6,1.3l0,0.2h-0.6c0,0-0.1,0-0.1,0.1
		c0,0,0,0,0,0l-0.1,0.6c0,0.1,0,0.1,0.1,0.1h0.6l-0.6,3.6c0,0.2-0.1,0.5-0.2,0.7c0,0.1-0.1,0.3-0.2,0.4c-0.1,0.1-0.2,0.2-0.3,0.2
		c-0.1,0-0.2,0.1-0.3,0.1c-0.1,0-0.2,0-0.2,0c-0.1,0-0.1,0-0.2-0.1c0,0-0.1,0-0.1,0c0,0.1-0.2,0.5-0.2,0.6c0,0,0,0.1,0,0.1
		c0,0,0,0,0,0c0.2,0.1,0.4,0.1,0.7,0.1c0.2,0,0.4-0.1,0.7-0.1c0.2-0.1,0.4-0.2,0.5-0.4c0.2-0.2,0.3-0.4,0.4-0.6
		c0.1-0.3,0.2-0.6,0.3-1l0.6-3.7h0.9c0,0,0.1,0,0.1-0.1l0.1-0.6c0-0.1,0-0.1-0.1-0.1h-0.9c0-0.2,0.1-0.4,0.2-0.6
		c0-0.1,0.1-0.2,0.2-0.3c0.1-0.1,0.1-0.1,0.2-0.2c0.1,0,0.2,0,0.3,0c0.1,0,0.2,0,0.2,0l0.1,0c0.1,0,0.1,0,0.1,0l0.2-0.6
		C38.5,17.5,38.5,17.4,38.5,17.4C38.5,17.4,38.5,17.4,38.5,17.4z M25.7,23.6C25.7,23.6,25.7,23.7,25.7,23.6
		C25.6,23.7,25.6,23.7,25.7,23.6l-0.8,0.1c0,0-0.1,0-0.1-0.1c0,0,0,0,0,0v-6.1c0,0,0-0.1,0.1-0.1c0,0,0,0,0,0h0.8c0,0,0.1,0,0.1,0.1
		V23.6z"/>
	<path class="st2" fill="#FFFFFF"  d="M77,27V16.8h3.4c0.8,0,1.7,0.1,2.4,0.4c1.1,0.6,1.8,1.8,1.8,3.1c0,1.9-1,3.6-4,3.6h-1.2V27H77z M80.6,21.5
		c1.1,0,1.6-0.4,1.6-1.3c0-0.9-0.5-1.2-1.7-1.2h-1v2.4L80.6,21.5z M91.2,27l-0.5-1.5h-3.5L86.6,27h-2.8l4.1-10.2H90L94,27H91.2z
		 M89,20L89,20l-1.1,3.5H90L89,20z M99.9,27l-2.4-3.3V27h-2.5V16.8h3.3c0.8,0,1.6,0.1,2.4,0.4c1.2,0.6,1.9,1.8,1.9,3.1
		c0.1,1.6-1,2.9-2.6,3.2l2.8,3.5H99.9z M98.5,21.9c1,0,1.7-0.5,1.7-1.5s-0.7-1.4-1.6-1.4h-1v2.8L98.5,21.9z M104.9,27v-7.9h-2v-2.3
		h6.6v2.3h-2V27H104.9z M116.9,27l-3.9-6.3l0.1,6.3h-2.5V16.8h2.2l4,6.5l-0.1-6.5h2.5V27L116.9,27z M121,27V16.8h5.7v2.3h-3.2v1.6
		h3.1v2.3h-3.1v1.8h3.2V27H121z M133.2,27l-2.4-3.3h-0.1V27h-2.5V16.8h3.3c0.8,0,1.6,0.1,2.4,0.4c1.2,0.6,1.9,1.8,1.9,3.1
		c0.1,1.6-1,2.9-2.5,3.2l2.8,3.5L133.2,27z M131.8,21.9c1,0,1.7-0.5,1.7-1.5s-0.7-1.4-1.6-1.4h-1v2.8L131.8,21.9z"/>
</g>
</svg>
