<svg width="41" height="42" viewBox="0 0 41 42" fill="none" xmlns="http://www.w3.org/2000/svg">
<path d="M16.6118 35.075L16.422 35.8006L16.6118 35.075ZM9.10889 29.947L9.71595 29.5065L9.71595 29.5065L9.10889 29.947ZM6.56224 21.2231L5.81357 21.1785L5.81357 21.1785L6.56224 21.2231ZM10.128 12.8639L9.5776 12.3545L9.5776 12.3545L10.128 12.8639ZM18.1874 8.66429L18.2896 9.40729L18.1874 8.66429ZM27.0816 10.5307L26.6893 11.1699L27.0816 10.5307ZM32.7729 17.6159L32.2325 8.97257L25.0173 13.7622L32.7729 17.6159ZM31.4835 27.5931C30.1956 30.2438 28.0285 32.3659 25.3513 33.5979L25.9784 34.9606C28.9708 33.5835 31.3931 31.2115 32.8327 28.2487L31.4835 27.5931ZM25.3513 33.5979C22.6742 34.8299 19.6527 35.0955 16.8017 34.3494L16.422 35.8006C19.6087 36.6345 22.986 36.3376 25.9784 34.9606L25.3513 33.5979ZM16.8017 34.3494C13.9507 33.6034 11.4465 31.8919 9.71595 29.5065L8.50183 30.3874C10.4362 33.0536 13.2352 34.9667 16.422 35.8006L16.8017 34.3494ZM9.71595 29.5065C7.98537 27.1212 7.13541 24.2096 7.31091 21.2678L5.81357 21.1785C5.61741 24.4667 6.56745 27.7211 8.50183 30.3874L9.71595 29.5065ZM7.31091 21.2678C7.48641 18.326 8.67649 15.5361 10.6784 13.3734L9.5776 12.3545C7.33996 14.7718 6.00973 17.8903 5.81357 21.1785L7.31091 21.2678ZM10.6784 13.3734C12.6803 11.2107 15.3701 9.80908 18.2896 9.40729L18.0851 7.92129C14.8218 8.3704 11.8152 9.9371 9.5776 12.3545L10.6784 13.3734ZM18.2896 9.40729C21.2091 9.0055 24.1776 9.62843 26.6893 11.1699L27.4739 9.89152C24.6665 8.16848 21.3484 7.47219 18.0851 7.92129L18.2896 9.40729ZM26.6893 11.1699C27.35 11.5754 27.9683 12.0379 28.5383 12.5499L29.5407 11.434C28.9035 10.8616 28.2124 10.3447 27.4739 9.89152L26.6893 11.1699Z" fill="#020288"/>
<path d="M19 17V24C19 24.5523 19.4477 25 20 25H27" stroke="#E84A5F" stroke-width="1.5"/>
</svg>
