<svg width="22" height="35" viewBox="0 0 22 35" fill="none" xmlns="http://www.w3.org/2000/svg">
<path d="M16.8163 6.63158C16.3953 4.10526 14.1496 2.5614 13.0268 2V6.21053C13.0268 7.89474 11.3426 8.31579 10.5005 8.31579C8.8163 8.31579 8.11455 7.19298 7.9742 6.63158V2C4.94262 2.67368 3.90402 6.21053 3.76367 7.89474C3.76367 11.6 6.57069 13.6491 7.9742 14.2105V16.7368L13.0268 15.0526V14.2105C17.2374 11.6842 17.0864 8.25199 16.8163 6.63158Z" stroke="#DC2230" stroke-width="1.5"/>
<path d="M11.0794 16.7369C12.4829 16.0351 16.5531 14.0421 18.2373 15.0526C18.9391 15.3333 20.3426 16.4 20.3426 18.421V23.4737C20.3426 24.1754 19.8373 25.4947 17.8163 25.1579H10.2373" stroke="#020288" stroke-width="1.5" stroke-linejoin="round"/>
<path d="M14.7108 16.7368H7.55294C3.17399 17.7473 1.79855 21.0877 1.6582 22.6316V27.6842C2.33189 32.7368 6.43013 34 8.39505 34H15.5529C17.9108 33.3263 16.8161 30.9123 15.974 29.7894C18.3319 28.1052 16.9564 26 15.974 25.1579C18.3319 23.4737 16.6757 21.6491 15.5529 20.9473C17.2372 20.6105 17.3775 19.1228 17.2372 18.421C17.2372 17.0737 15.5529 16.7368 14.7108 16.7368Z" stroke="#020288" stroke-width="1.5"/>
<line x1="9.2373" y1="20.1973" x2="15.9741" y2="20.1973" stroke="#020288" stroke-width="1.5" stroke-linejoin="round"/>
<line x1="9.2373" y1="29.4604" x2="15.9741" y2="29.4604" stroke="#020288" stroke-width="1.5" stroke-linejoin="round"/>
</svg>
