<svg width="16" height="18" viewBox="0 0 16 18" fill="none" xmlns="http://www.w3.org/2000/svg">
<path d="M12.9996 5.8C14.3251 5.8 15.3996 4.72548 15.3996 3.4C15.3996 2.07452 14.3251 1 12.9996 1C11.6741 1 10.5996 2.07452 10.5996 3.4C10.5996 4.72548 11.6741 5.8 12.9996 5.8Z" stroke="#5A5B5C" stroke-linecap="round" stroke-linejoin="round"/>
<path d="M3.4 11.4001C4.72548 11.4001 5.8 10.3256 5.8 9.0001C5.8 7.67461 4.72548 6.6001 3.4 6.6001C2.07452 6.6001 1 7.67461 1 9.0001C1 10.3256 2.07452 11.4001 3.4 11.4001Z" stroke="#5A5B5C" stroke-linecap="round" stroke-linejoin="round"/>
<path d="M12.9996 17C14.3251 17 15.3996 15.9254 15.3996 14.6C15.3996 13.2745 14.3251 12.2 12.9996 12.2C11.6741 12.2 10.5996 13.2745 10.5996 14.6C10.5996 15.9254 11.6741 17 12.9996 17Z" stroke="#5A5B5C" stroke-linecap="round" stroke-linejoin="round"/>
<path d="M5.47168 10.208L10.9357 13.392" stroke="#5A5B5C" stroke-linecap="round" stroke-linejoin="round"/>
<path d="M10.9277 4.60791L5.47168 7.79191" stroke="#5A5B5C" stroke-linecap="round" stroke-linejoin="round"/>
</svg>
