<svg width="31" height="31" viewBox="0 0 31 31" fill="none" xmlns="http://www.w3.org/2000/svg">
<path fill-rule="evenodd" clip-rule="evenodd" d="M25.1875 27.125C25.1875 27.125 27.125 27.125 27.125 25.1875C27.125 23.25 25.1875 17.4375 15.5 17.4375C5.8125 17.4375 3.875 23.25 3.875 25.1875C3.875 27.125 5.8125 27.125 5.8125 27.125H25.1875ZM5.82219 25.296V25.2921V25.296ZM5.85513 25.1875H25.1449C25.1539 25.1864 25.163 25.1852 25.172 25.1836L25.1875 25.1798C25.1856 24.7031 24.8891 23.2694 23.5755 21.9557C22.3123 20.6925 19.9349 19.375 15.5 19.375C11.0631 19.375 8.68775 20.6925 7.4245 21.9557C6.11088 23.2694 5.81638 24.7031 5.8125 25.1798C5.82668 25.1825 5.84089 25.1851 5.85513 25.1875ZM25.1798 25.296V25.2921V25.296ZM15.5 13.5625C16.5277 13.5625 17.5133 13.1542 18.24 12.4275C18.9667 11.7008 19.375 10.7152 19.375 9.6875C19.375 8.65979 18.9667 7.67416 18.24 6.94746C17.5133 6.22076 16.5277 5.8125 15.5 5.8125C14.4723 5.8125 13.4867 6.22076 12.76 6.94746C12.0333 7.67416 11.625 8.65979 11.625 9.6875C11.625 10.7152 12.0333 11.7008 12.76 12.4275C13.4867 13.1542 14.4723 13.5625 15.5 13.5625ZM21.3125 9.6875C21.3125 11.2291 20.7001 12.7075 19.6101 13.7976C18.52 14.8876 17.0416 15.5 15.5 15.5C13.9584 15.5 12.48 14.8876 11.3899 13.7976C10.2999 12.7075 9.6875 11.2291 9.6875 9.6875C9.6875 8.14593 10.2999 6.6675 11.3899 5.57744C12.48 4.48739 13.9584 3.875 15.5 3.875C17.0416 3.875 18.52 4.48739 19.6101 5.57744C20.7001 6.6675 21.3125 8.14593 21.3125 9.6875Z" fill="white"/>
</svg>
