<svg width="23" height="20" viewBox="0 0 23 20" fill="none" xmlns="http://www.w3.org/2000/svg">
<path d="M8.21942 18.4977C8.73512 18.4977 9.15319 18.1314 9.15319 17.6795C9.15319 17.2276 8.73512 16.8613 8.21942 16.8613C7.70371 16.8613 7.28564 17.2276 7.28564 17.6795C7.28564 18.1314 7.70371 18.4977 8.21942 18.4977Z" stroke="#E8E5E5" stroke-width="1.5" stroke-linecap="round" stroke-linejoin="round"/>
<path d="M18.4909 18.4977C19.0066 18.4977 19.4247 18.1314 19.4247 17.6795C19.4247 17.2276 19.0066 16.8613 18.4909 16.8613C17.9752 16.8613 17.5571 17.2276 17.5571 17.6795C17.5571 18.1314 17.9752 18.4977 18.4909 18.4977Z" stroke="#E8E5E5" stroke-width="1.5" stroke-linecap="round" stroke-linejoin="round"/>
<path d="M0.75 1.31641H4.48509L6.98759 12.2719C7.07298 12.6485 7.30686 12.9869 7.64828 13.2277C7.9897 13.4686 8.41691 13.5965 8.85514 13.5891H17.9314C18.3696 13.5965 18.7968 13.4686 19.1382 13.2277C19.4797 12.9869 19.7135 12.6485 19.7989 12.2719L21.293 5.40732H5.41886" stroke="#E8E5E5" stroke-width="1.5" stroke-linecap="round" stroke-linejoin="round"/>
</svg>
