<svg width="5" height="19" viewBox="0 0 5 19" fill="none" xmlns="http://www.w3.org/2000/svg">
<path d="M2.875 10.333C3.42728 10.333 3.875 9.88529 3.875 9.33301C3.875 8.78072 3.42728 8.33301 2.875 8.33301C2.32272 8.33301 1.875 8.78072 1.875 9.33301C1.875 9.88529 2.32272 10.333 2.875 10.333Z" stroke="white" stroke-width="2" stroke-linecap="round" stroke-linejoin="round"/>
<path d="M2.875 3.33301C3.42728 3.33301 3.875 2.88529 3.875 2.33301C3.875 1.78072 3.42728 1.33301 2.875 1.33301C2.32272 1.33301 1.875 1.78072 1.875 2.33301C1.875 2.88529 2.32272 3.33301 2.875 3.33301Z" stroke="white" stroke-width="2" stroke-linecap="round" stroke-linejoin="round"/>
<path d="M2.875 17.333C3.42728 17.333 3.875 16.8853 3.875 16.333C3.875 15.7807 3.42728 15.333 2.875 15.333C2.32272 15.333 1.875 15.7807 1.875 16.333C1.875 16.8853 2.32272 17.333 2.875 17.333Z" stroke="white" stroke-width="2" stroke-linecap="round" stroke-linejoin="round"/>
</svg>
