<?xml version="1.0" encoding="UTF-8"?>
<!DOCTYPE svg PUBLIC "-//W3C//DTD SVG 1.1//EN" "http://www.w3.org/Graphics/SVG/1.1/DTD/svg11.dtd">
<!-- Creator: CorelDRAW 2019 (64-Bit) -->
<svg xmlns="http://www.w3.org/2000/svg" xml:space="preserve" width="250px" height="35px" version="1.1" style="shape-rendering:geometricPrecision; text-rendering:geometricPrecision; image-rendering:optimizeQuality; fill-rule:evenodd; clip-rule:evenodd"
viewBox="0 0 60 8.5"
 xmlns:xlink="http://www.w3.org/1999/xlink">

 <g id="__x0023_Layer_x0020_1">
  <metadata id="CorelCorpID_0Corel-Layer"/>
  <g id="_2148304049408">
   <g>
    <path class="fil0" fill="#BB3B40"  d="M0 8.28l0 -8.09 2.13 0 3.06 4.16c0.06,0.09 0.16,0.26 0.29,0.51 0.14,0.26 0.29,0.57 0.45,0.92 -0.05,-0.34 -0.08,-0.63 -0.1,-0.9 -0.02,-0.26 -0.03,-0.49 -0.03,-0.69l0 -4 2.12 0 0 8.09 -2.12 0 -3.06 -4.17c-0.06,-0.09 -0.16,-0.26 -0.3,-0.52 -0.13,-0.25 -0.28,-0.55 -0.44,-0.9 0.05,0.34 0.08,0.64 0.1,0.9 0.02,0.26 0.03,0.49 0.03,0.7l0 3.99 -2.13 0z"/>
    <path class="fil0" fill="#BB3B40" d="M8.71 8.28l2.79 -8.09 2.77 0 2.8 8.09 -2.2 0 -0.41 -1.45 -3.13 0 -0.43 1.45 -2.19 0zm3.09 -3.02l0 0 2.2 0 -0.83 -2.67c-0.02,-0.08 -0.06,-0.21 -0.1,-0.39 -0.05,-0.18 -0.1,-0.41 -0.17,-0.7 -0.05,0.2 -0.1,0.39 -0.14,0.57 -0.05,0.18 -0.1,0.35 -0.14,0.52l-0.82 2.67z"/>
    <path class="fil0" fill="#BB3B40" d="M18.21 5.67c0.33,0.37 0.65,0.65 0.97,0.83 0.32,0.19 0.64,0.28 0.95,0.28 0.3,0 0.54,-0.08 0.73,-0.24 0.19,-0.16 0.29,-0.36 0.29,-0.6 0,-0.27 -0.09,-0.48 -0.25,-0.62 -0.16,-0.15 -0.54,-0.3 -1.11,-0.45 -0.8,-0.22 -1.36,-0.5 -1.69,-0.84 -0.33,-0.34 -0.49,-0.81 -0.49,-1.4 0,-0.78 0.26,-1.41 0.78,-1.9 0.52,-0.49 1.19,-0.73 2.01,-0.73 0.45,0 0.88,0.06 1.28,0.18 0.4,0.12 0.77,0.3 1.13,0.54l-0.69 1.59c-0.25,-0.21 -0.51,-0.38 -0.77,-0.49 -0.27,-0.1 -0.53,-0.16 -0.78,-0.16 -0.27,0 -0.49,0.07 -0.65,0.19 -0.17,0.13 -0.25,0.29 -0.25,0.49 0,0.21 0.07,0.37 0.22,0.49 0.14,0.12 0.43,0.24 0.84,0.35l0.1 0.03c0.9,0.24 1.5,0.51 1.78,0.8 0.19,0.19 0.34,0.43 0.43,0.71 0.1,0.28 0.15,0.59 0.15,0.93 0,0.85 -0.28,1.54 -0.84,2.06 -0.57,0.53 -1.32,0.79 -2.26,0.79 -0.56,0 -1.08,-0.1 -1.54,-0.29 -0.46,-0.19 -0.91,-0.49 -1.34,-0.9l1 -1.64z"/>
    <path class="fil0" fill="#BB3B40" d="M24.79 5.67c0.33,0.37 0.66,0.65 0.98,0.83 0.32,0.19 0.63,0.28 0.95,0.28 0.3,0 0.54,-0.08 0.73,-0.24 0.19,-0.16 0.28,-0.36 0.28,-0.6 0,-0.27 -0.08,-0.48 -0.24,-0.62 -0.17,-0.15 -0.54,-0.3 -1.12,-0.45 -0.79,-0.22 -1.35,-0.5 -1.68,-0.84 -0.33,-0.34 -0.49,-0.81 -0.49,-1.4 0,-0.78 0.26,-1.41 0.77,-1.9 0.52,-0.49 1.2,-0.73 2.02,-0.73 0.45,0 0.87,0.06 1.27,0.18 0.4,0.12 0.78,0.3 1.14,0.54l-0.69 1.59c-0.25,-0.21 -0.51,-0.38 -0.77,-0.49 -0.27,-0.1 -0.53,-0.16 -0.79,-0.16 -0.26,0 -0.48,0.07 -0.65,0.19 -0.16,0.13 -0.24,0.29 -0.24,0.49 0,0.21 0.07,0.37 0.22,0.49 0.14,0.12 0.42,0.24 0.84,0.35l0.1 0.03c0.9,0.24 1.49,0.51 1.77,0.8 0.2,0.19 0.34,0.43 0.44,0.71 0.1,0.28 0.15,0.59 0.15,0.93 0,0.85 -0.28,1.54 -0.84,2.06 -0.57,0.53 -1.32,0.79 -2.26,0.79 -0.57,0 -1.08,-0.1 -1.54,-0.29 -0.47,-0.19 -0.91,-0.49 -1.34,-0.9l0.99 -1.64z"/>
    <path class="fil0" fill="#BB3B40" d="M36.89 0.51l0 2.41c-0.3,-0.34 -0.6,-0.58 -0.9,-0.74 -0.3,-0.16 -0.62,-0.24 -0.97,-0.24 -0.63,0 -1.15,0.22 -1.54,0.65 -0.39,0.44 -0.59,1 -0.59,1.7 0,0.64 0.2,1.18 0.6,1.61 0.4,0.43 0.91,0.64 1.53,0.64 0.35,0 0.67,-0.08 0.97,-0.24 0.3,-0.15 0.6,-0.4 0.9,-0.74l0 2.42c-0.35,0.17 -0.69,0.29 -1.04,0.38 -0.35,0.08 -0.7,0.13 -1.05,0.13 -0.45,0 -0.85,-0.06 -1.23,-0.16 -0.37,-0.11 -0.72,-0.27 -1.03,-0.48 -0.61,-0.41 -1.07,-0.91 -1.39,-1.53 -0.31,-0.62 -0.47,-1.31 -0.47,-2.08 0,-0.62 0.1,-1.18 0.3,-1.69 0.2,-0.5 0.51,-0.96 0.91,-1.37 0.38,-0.4 0.82,-0.69 1.3,-0.89 0.48,-0.19 1.02,-0.29 1.61,-0.29 0.35,0 0.7,0.04 1.05,0.13 0.35,0.08 0.69,0.21 1.04,0.38z"/>
    <g>
     <path class="fil0" fill="#BB3B40" d="M42.13 6.63c0.61,0 1.12,-0.23 1.52,-0.67 0.4,-0.45 0.6,-1.02 0.6,-1.71 0,-0.67 -0.2,-1.24 -0.61,-1.69 -0.4,-0.46 -0.91,-0.68 -1.51,-0.68 -0.61,0 -1.12,0.22 -1.52,0.67 -0.4,0.46 -0.6,1.02 -0.6,1.7 0,0.7 0.2,1.27 0.59,1.71 0.4,0.45 0.91,0.67 1.53,0.67zm4.33 -2.38l0 0c0,0.59 -0.11,1.13 -0.32,1.64 -0.21,0.51 -0.52,0.96 -0.93,1.36 -0.42,0.4 -0.89,0.71 -1.42,0.92 -0.53,0.22 -1.08,0.33 -1.66,0.33 -0.58,0 -1.13,-0.11 -1.66,-0.33 -0.53,-0.21 -1,-0.52 -1.4,-0.92 -0.42,-0.4 -0.73,-0.85 -0.95,-1.37 -0.22,-0.51 -0.32,-1.05 -0.32,-1.63 0,-0.58 0.1,-1.12 0.32,-1.63 0.22,-0.51 0.53,-0.96 0.95,-1.37 0.4,-0.39 0.87,-0.7 1.4,-0.92 0.53,-0.21 1.08,-0.32 1.66,-0.32 0.58,0 1.13,0.11 1.67,0.32 0.53,0.22 1,0.53 1.41,0.92 0.4,0.4 0.71,0.86 0.93,1.37 0.21,0.51 0.32,1.05 0.32,1.63z"/>
    </g>
    <path class="fil0" fill="#BB3B40" d="M57.14 8.28l-2.06 0 -0.48 -3.49c-0.03,-0.25 -0.06,-0.53 -0.09,-0.83 -0.03,-0.3 -0.05,-0.63 -0.07,-0.99 -0.06,0.34 -0.16,0.77 -0.31,1.28 -0.03,0.11 -0.06,0.19 -0.07,0.24l-1.1 3.79 -1.47 0 -1.11 -3.79c-0.01,-0.05 -0.04,-0.13 -0.06,-0.24 -0.16,-0.51 -0.26,-0.93 -0.31,-1.27 -0.02,0.3 -0.05,0.61 -0.08,0.91 -0.03,0.3 -0.06,0.6 -0.1,0.9l-0.48 3.49 -2.05 0 1.25 -8.09 2.19 0 1.22 4.17c0.01,0.03 0.02,0.08 0.05,0.15 0.11,0.37 0.18,0.69 0.21,0.95 0.02,-0.14 0.04,-0.3 0.08,-0.47 0.05,-0.18 0.1,-0.39 0.17,-0.64l1.24 -4.16 2.19 0 1.24 8.09z"/>
    <g>
     <path class="fil1" fill="#252726" d="M58.13 1.4l0.31 0c0.15,0 0.25,-0.02 0.31,-0.07 0.05,-0.04 0.08,-0.1 0.08,-0.17 0,-0.05 -0.01,-0.09 -0.04,-0.13 -0.03,-0.04 -0.06,-0.07 -0.11,-0.08 -0.05,-0.02 -0.13,-0.03 -0.26,-0.03l-0.29 0 0 0.48zm-0.26 0.9l0 0 0 -1.59 0.55 0c0.19,0 0.32,0.01 0.41,0.04 0.08,0.03 0.14,0.08 0.2,0.15 0.05,0.08 0.07,0.15 0.07,0.24 0,0.11 -0.04,0.21 -0.13,0.3 -0.08,0.09 -0.19,0.13 -0.32,0.14 0.05,0.03 0.1,0.06 0.13,0.09 0.06,0.06 0.14,0.17 0.23,0.31l0.2 0.32 -0.31 0 -0.15 -0.26c-0.11,-0.19 -0.19,-0.32 -0.26,-0.37 -0.05,-0.03 -0.12,-0.05 -0.21,-0.05l-0.15 0 0 0.68 -0.26 0zm0.65 -2.05l0 0c0.21,0 0.41,0.05 0.61,0.16 0.19,0.1 0.35,0.25 0.46,0.45 0.11,0.2 0.17,0.41 0.17,0.62 0,0.21 -0.06,0.41 -0.17,0.61 -0.11,0.2 -0.26,0.35 -0.45,0.46 -0.2,0.11 -0.4,0.16 -0.62,0.16 -0.21,0 -0.41,-0.05 -0.61,-0.16 -0.2,-0.11 -0.35,-0.26 -0.46,-0.46 -0.11,-0.2 -0.16,-0.4 -0.16,-0.61 0,-0.21 0.05,-0.42 0.17,-0.62 0.11,-0.2 0.26,-0.35 0.46,-0.45 0.19,-0.11 0.4,-0.16 0.6,-0.16zm0 -0.25l0 0c0.25,0 0.49,0.06 0.73,0.19 0.23,0.13 0.42,0.31 0.55,0.55 0.13,0.23 0.2,0.48 0.2,0.74 0,0.25 -0.07,0.5 -0.2,0.73 -0.13,0.24 -0.31,0.42 -0.54,0.55 -0.24,0.13 -0.48,0.2 -0.74,0.2 -0.25,0 -0.5,-0.07 -0.73,-0.2 -0.24,-0.13 -0.42,-0.31 -0.55,-0.55 -0.13,-0.23 -0.2,-0.48 -0.2,-0.73 0,-0.26 0.07,-0.51 0.2,-0.74 0.13,-0.24 0.32,-0.42 0.56,-0.55 0.23,-0.13 0.47,-0.19 0.72,-0.19z"/>
    </g>
   </g>
  </g>
 </g>
</svg>
