<svg width="196" height="196" viewBox="0 0 196 196" fill="none" xmlns="http://www.w3.org/2000/svg">
<path d="M138.144 146.41H25.779C13.3814 146.41 3.14844 136.177 3.14844 123.779V51.5583C3.14844 39.1607 13.3814 28.9277 25.779 28.9277H149.165C161.562 28.9277 171.795 39.1607 171.795 51.5583V112.365V146.41H138.144Z" fill="#2AC5E8"/>
<path d="M171.008 57.0682H4.13281V78.518H171.008V57.0682Z" fill="#4AE5FF"/>
<path d="M164.907 167.072C180.231 167.072 192.654 154.649 192.654 139.325C192.654 124.001 180.231 111.578 164.907 111.578C149.583 111.578 137.16 124.001 137.16 139.325C137.16 154.649 149.583 167.072 164.907 167.072Z" fill="#FFD66E"/>
<path d="M25.7791 149.558H135.586C139.916 161.562 151.329 170.221 164.908 170.221C182.028 170.221 196 156.249 196 139.128C196 125.55 187.145 113.94 175.141 109.807V51.5582C175.141 37.1927 163.53 25.7791 149.361 25.7791H25.7791C11.6104 25.7791 0 37.3895 0 51.5582V123.779C0 137.948 11.6104 149.558 25.7791 149.558ZM189.506 139.325C189.506 152.904 178.486 163.924 164.908 163.924C151.329 163.924 140.506 152.904 140.506 139.325C140.506 125.747 151.526 114.727 164.908 114.727C178.486 114.727 189.506 125.747 189.506 139.325ZM6.49398 59.8232H168.45V74.779H6.49398V59.8232ZM25.7791 32.273H149.165C159.791 32.273 168.45 40.9317 168.45 51.5582V53.3292H6.49398V51.5582C6.49398 40.9317 15.1526 32.273 25.7791 32.273ZM6.49398 81.273H168.45V108.233C167.269 108.036 166.088 108.036 164.908 108.036C147.787 108.036 133.815 122.008 133.815 139.128C133.815 140.506 134.012 141.687 134.012 142.867H25.7791C15.1526 142.867 6.49398 134.209 6.49398 123.582V81.273Z" fill="#005F75"/>
<path d="M20.2673 103.904H51.3596C53.1307 103.904 54.705 102.526 54.705 100.558C54.705 98.7871 53.3275 97.2128 51.3596 97.2128H20.2673C18.4962 97.2128 16.9219 98.5903 16.9219 100.558C17.1187 102.526 18.4962 103.904 20.2673 103.904Z" fill="#005F75"/>
<path d="M65.529 103.904H83.043C84.8141 103.904 86.3884 102.526 86.3884 100.558C86.3884 98.7871 85.0109 97.2128 83.043 97.2128H65.529C63.7579 97.2128 62.1836 98.5903 62.1836 100.558C62.1836 102.526 63.7579 103.904 65.529 103.904Z" fill="#005F75"/>
<path d="M157.037 126.534C155.66 125.157 153.692 125.157 152.314 126.534C150.937 127.912 150.937 129.88 152.314 131.257L160.383 139.325L152.314 147.197C150.937 148.574 150.937 150.542 152.314 151.92C152.905 152.51 153.889 152.904 154.676 152.904C155.463 152.904 156.447 152.51 157.037 151.92L165.106 143.851L173.174 151.92C173.764 152.51 174.748 152.904 175.535 152.904C176.322 152.904 177.306 152.51 177.897 151.92C179.274 150.542 179.274 148.574 177.897 147.197L169.828 139.128L177.897 131.06C179.274 129.683 179.274 127.715 177.897 126.337C176.519 124.96 174.551 124.96 173.174 126.337L164.909 134.602L157.037 126.534Z" fill="#005F75"/>
</svg>
