<svg width="20" height="20" viewBox="0 0 20 20" fill="none" xmlns="http://www.w3.org/2000/svg">
<path d="M18.9994 14.575V17.2901C19.0005 17.5421 18.9488 17.7916 18.8479 18.0226C18.7469 18.2535 18.5988 18.4608 18.413 18.6312C18.2273 18.8016 18.008 18.9314 17.7693 19.0121C17.5305 19.0929 17.2775 19.1229 17.0265 19.1002C14.2415 18.7976 11.5664 17.8459 9.21601 16.3217C7.02929 14.9322 5.17534 13.0782 3.7858 10.8915C2.25627 8.53044 1.30442 5.8423 1.00735 3.04484C0.98473 2.79457 1.01447 2.54233 1.09468 2.30418C1.17489 2.06604 1.30381 1.8472 1.47323 1.66161C1.64265 1.47601 1.84885 1.32773 2.07872 1.22619C2.30858 1.12466 2.55707 1.0721 2.80837 1.07187H5.52347C5.96269 1.06754 6.3885 1.22308 6.72152 1.50948C7.05455 1.79588 7.27207 2.19361 7.33354 2.62853C7.44814 3.49742 7.66067 4.35056 7.96707 5.17167C8.08883 5.49561 8.11519 5.84766 8.043 6.18611C7.97082 6.52456 7.80313 6.83523 7.5598 7.0813L6.41041 8.23069C7.69877 10.4965 9.57482 12.3725 11.8406 13.6609L12.99 12.5115C13.2361 12.2682 13.5467 12.1005 13.8852 12.0283C14.2236 11.9561 14.5757 11.9825 14.8996 12.1042C15.7207 12.4106 16.5739 12.6232 17.4428 12.7378C17.8824 12.7998 18.2839 13.0212 18.5709 13.36C18.858 13.6987 19.0105 14.1311 18.9994 14.575Z" stroke="#5A5B5C" stroke-width="1.5" stroke-linecap="round" stroke-linejoin="round"/>
</svg>
