<svg width="275" height="329" viewBox="0 0 275 329" fill="none" xmlns="http://www.w3.org/2000/svg">
<path d="M23.3105 301.956C22.2629 301.168 19.3819 300.118 17.0248 304.319C14.6676 308.257 13.8819 314.034 16.7629 314.822C19.6438 315.609 22.001 311.146 23.0486 307.995C23.8343 304.844 24.62 302.744 23.3105 301.956Z" fill="white"/>
<path d="M0 325.587H275" stroke="#0E2549" stroke-width="0.5" stroke-miterlimit="10"/>
<path d="M90.3594 108.179H91.1451H109.217H127.288H130.169H145.359C145.359 108.179 145.621 106.603 145.359 102.402C146.145 105.553 151.383 108.179 151.383 108.179C151.383 108.179 146.931 97.9385 151.121 50.676C155.312 3.15083 116.55 0 109.478 0C102.145 0 63.3832 3.15083 67.5737 50.676C71.7641 97.9385 67.3118 108.179 67.3118 108.179C67.3118 108.179 72.5499 105.553 73.3356 102.402C73.0737 106.603 73.3356 108.179 73.3356 108.179H88.526H90.3594Z" fill="#0E2549"/>
<path d="M125.716 87.1729H96.1211V132.86H125.716V87.1729Z" fill="white" stroke="#8B8486" stroke-width="0.5" stroke-miterlimit="10"/>
<path d="M93.7611 120.257C53.1659 107.128 20.1659 167.257 10.9992 210.581C-0.786514 266.246 59.4516 296.704 108.952 296.704C158.452 296.704 177.833 282 188.833 218.458C195.642 179.86 161.333 131.547 125.452 118.156C125.452 118.156 127.285 130.76 113.142 129.972C107.38 129.709 102.142 122.883 93.7611 120.257Z" fill="#E84A5F" stroke="#202020" stroke-width="0.5" stroke-miterlimit="10"/>
<path d="M207.691 325.374V272.073C207.691 270.235 209.263 268.922 210.834 268.922H251.429C253.263 268.922 254.572 270.497 254.572 272.073V325.637" fill="#59B1F8"/>
<path d="M252.736 315.922L250.902 313.297L263.998 304.369C265.045 303.582 266.093 302.006 266.093 300.693V294.654C266.093 294.392 266.093 294.129 265.831 293.866C265.569 293.866 265.569 293.866 265.045 293.866L253.521 297.805L252.474 294.654L263.998 290.716C265.307 290.19 266.617 290.453 267.664 291.241C268.712 292.028 269.236 293.079 269.236 294.654V300.693C269.236 303.056 267.664 305.682 265.831 306.995L252.736 315.922Z" fill="#59B1F8"/>
<path d="M212.144 177.76L162.382 102.665C162.382 102.665 146.667 97.1512 136.453 115.006C147.453 141 189 217 189 217C189 217 236 227 212.144 177.76Z" fill="#E84A5F" stroke="#202020" stroke-width="0.5" stroke-miterlimit="10"/>
<path d="M139.331 47.7879C131.998 28.0952 109.474 17.855 109.474 17.855C109.474 17.855 87.2121 28.0952 79.6168 47.7879C76.9978 54.6148 76.2121 92.1622 109.474 98.2014C142.736 92.1622 141.95 54.6148 139.331 47.7879Z" fill="white" stroke="#8B8486" stroke-width="0.5" stroke-miterlimit="10"/>
<path d="M76.9979 46.2124C76.9979 46.2124 65.9979 46.2124 65.2122 57.5029C64.4265 69.056 72.0217 74.8325 81.1884 73.5197C78.3075 58.8158 76.9979 46.2124 76.9979 46.2124Z" fill="#59B1F8"/>
<path d="M142.214 46.2124C142.214 46.2124 153.214 46.2124 154 57.5029C154.785 68.7934 147.19 74.8325 138.023 73.5197C140.904 58.8158 142.214 46.2124 142.214 46.2124Z" fill="#59B1F8"/>
<path d="M138.023 17.8551C131.213 10.5031 121.785 6.82715 109.475 6.82715H109.213H108.951C96.6418 6.82715 87.2132 10.7657 80.4037 17.8551C68.8799 30.4584 70.1894 49.1009 70.1894 49.8886L75.6894 49.3635C75.6894 49.1009 74.3799 32.559 84.3323 21.5311C90.0942 15.2294 98.2132 12.0785 108.951 12.0785C119.689 12.0785 128.07 15.2294 133.57 21.5311C143.523 32.2964 142.213 49.1009 142.213 49.3635L147.713 49.8886C148.237 49.1009 149.547 30.4584 138.023 17.8551Z" fill="#59B1F8"/>
<path d="M143.001 70.6311C143.869 70.6311 144.573 70.0433 144.573 69.3182C144.573 68.5932 143.869 68.0054 143.001 68.0054C142.133 68.0054 141.43 68.5932 141.43 69.3182C141.43 70.0433 142.133 70.6311 143.001 70.6311Z" fill="#003474"/>
<path d="M143 69.3184C143 69.3184 144.048 90.5865 120.477 90.5865" stroke="#0052B2" stroke-width="2" stroke-miterlimit="10" stroke-linecap="round" stroke-linejoin="round"/>
<path d="M78.049 55.4025C78.049 55.4025 105.025 49.8885 114.454 33.6092C114.454 33.6092 130.692 35.1846 137.763 44.3745L134.359 28.3578L117.335 17.855H97.43L89.049 23.1064L83.8109 28.3578L78.5728 36.76C78.5728 36.76 77.5252 51.2014 78.049 55.4025Z" fill="#0E2549"/>
<path d="M161.335 105.553C161.335 105.553 154.525 83.4971 149.811 81.6591C145.097 79.8211 127.025 67.4804 123.882 72.4692C119.692 79.0334 140.644 86.1228 140.644 86.1228C140.644 86.1228 125.192 92.4245 128.073 101.089C130.43 108.179 133.835 111.33 135.668 104.503C134.882 116.318 140.382 112.905 140.382 112.905C140.382 112.905 156.358 108.704 161.335 105.553Z" fill="white" stroke="#8B8486" stroke-width="0.5" stroke-miterlimit="10"/>
<path d="M54.2139 178.811L39.0234 221.084L62.5949 237.626" stroke="#0E2549" stroke-width="0.5" stroke-miterlimit="10"/>
<path d="M181.76 313.508C181.76 320.598 175.998 326.637 168.665 326.637L32.7362 327.687C25.6648 327.687 19.641 321.911 19.641 314.559L19.1172 241.039C19.1172 233.95 24.8791 227.911 32.2124 227.911L168.141 226.86C175.212 226.86 181.236 232.637 181.236 239.989L181.76 313.508Z" fill="white"/>
<path d="M181.76 313.508C181.76 320.598 175.998 326.637 168.665 326.637L32.7362 327.687C25.6648 327.687 19.641 321.911 19.641 314.559L19.1172 241.039C19.1172 233.95 24.8791 227.911 32.2124 227.911L168.141 226.86C175.212 226.86 181.236 232.637 181.236 239.989L181.76 313.508Z" stroke="#8B8486" stroke-miterlimit="10"/>
<path d="M120.477 93.2123C124.093 93.2123 127.025 92.0368 127.025 90.5866C127.025 89.1365 124.093 87.9609 120.477 87.9609C116.861 87.9609 113.93 89.1365 113.93 90.5866C113.93 92.0368 116.861 93.2123 120.477 93.2123Z" fill="#003474"/>
</svg>
