<svg width="75" height="59" viewBox="0 0 75 59" fill="none" xmlns="http://www.w3.org/2000/svg">
<path d="M49.3958 1H1.72607V57.5942H49.3958V1Z" stroke="#333333" stroke-width="2" stroke-miterlimit="10"/>
<path d="M73.8185 41.6178V39.7458L71.1194 39.3105L70.1616 36.9596L71.6418 34.7394L70.2922 33.4769L68.2026 35.0877L65.9388 34.0864L65.1117 31.2131H63.1527L62.7608 33.651L60.0617 34.7394L58.0592 33.4334L56.7967 34.7829L58.2333 36.6114L57.2756 39.0493L54.9683 39.4846V41.3566L57.3191 41.7048L58.4945 44.3604L57.145 46.363L58.4945 47.669L60.4535 46.1888L62.8479 47.1031L63.2833 49.5845H65.1552L65.547 47.0595L68.0285 45.9276L70.2487 47.4078L71.5112 46.1018L69.8569 43.9686L70.684 41.879L73.8185 41.6178Z" stroke="#333333" stroke-width="2" stroke-miterlimit="10"/>
<path d="M64.2851 43.577C65.9441 43.577 67.2889 42.2322 67.2889 40.5732C67.2889 38.9142 65.9441 37.5693 64.2851 37.5693C62.6261 37.5693 61.2812 38.9142 61.2812 40.5732C61.2812 42.2322 62.6261 43.577 64.2851 43.577Z" stroke="#333333" stroke-width="2" stroke-miterlimit="10"/>
<path d="M54.0976 40.7036H49.9619" stroke="#333333" stroke-width="2" stroke-miterlimit="10"/>
<path d="M13.9155 15.7148V43.6202H46.5225" stroke="#333333" stroke-width="2" stroke-miterlimit="10"/>
<path d="M24.2332 22.9414H18.1384V43.5765H24.2332V22.9414Z" stroke="#333333" stroke-width="2" stroke-miterlimit="10"/>
<path d="M33.7671 28.1216H27.6724V43.6197H33.7671V28.1216Z" stroke="#333333" stroke-width="2" stroke-miterlimit="10"/>
<path d="M43.3018 22.9414H37.207V43.5765H43.3018V22.9414Z" stroke="#333333" stroke-width="2" stroke-miterlimit="10"/>
<path d="M5.51392 18.8057H13.0888" stroke="#333333" stroke-width="2" stroke-miterlimit="10"/>
<path d="M7.82129 23.5513H12.6536" stroke="#333333" stroke-width="2" stroke-miterlimit="10"/>
<path d="M6.34106 29.3406H13.0888" stroke="#333333" stroke-width="2" stroke-miterlimit="10"/>
<path d="M7.82129 33.2595H13.916" stroke="#333333" stroke-width="2" stroke-miterlimit="10"/>
<path d="M5.51392 38.3525H13.0888" stroke="#333333" stroke-width="2" stroke-miterlimit="10"/>
</svg>
