<svg width="73" height="51" viewBox="0 0 73 51" fill="none" xmlns="http://www.w3.org/2000/svg">
<path d="M35.9949 22.5276C41.9395 22.5276 46.7586 17.7085 46.7586 11.7638C46.7586 5.81911 41.9395 1 35.9949 1C30.0502 1 25.2311 5.81911 25.2311 11.7638C25.2311 17.7085 30.0502 22.5276 35.9949 22.5276Z" stroke="#333333" stroke-width="2" stroke-miterlimit="10"/>
<path d="M15.9855 49.1467C15.9855 43.8163 18.103 38.7042 21.8721 34.935C25.6413 31.1658 30.7534 29.0483 36.0838 29.0483C41.4142 29.0483 46.5263 31.1658 50.2955 34.935C54.0647 38.7042 56.1822 43.8163 56.1822 49.1467H15.9855Z" stroke="#333333" stroke-width="2" stroke-miterlimit="10"/>
<path d="M57.9239 22.5276C61.4019 22.5276 64.2214 19.7081 64.2214 16.2301C64.2214 12.7521 61.4019 9.93262 57.9239 9.93262C54.4459 9.93262 51.6265 12.7521 51.6265 16.2301C51.6265 19.7081 54.4459 22.5276 57.9239 22.5276Z" stroke="#333333" stroke-width="2" stroke-miterlimit="10"/>
<path d="M44.7941 30.388C47.2532 28.5667 50.172 27.468 53.2218 27.2158C56.2716 26.9636 59.3312 27.5679 62.0561 28.9605C64.7811 30.3532 67.0631 32.4789 68.6452 35.0983C70.2274 37.7178 71.0468 40.7269 71.0113 43.7869H56.0045" stroke="#333333" stroke-width="2" stroke-miterlimit="10"/>
<path d="M15.0481 22.5276C18.5261 22.5276 21.3456 19.7081 21.3456 16.2301C21.3456 12.7521 18.5261 9.93262 15.0481 9.93262C11.5701 9.93262 8.75061 12.7521 8.75061 16.2301C8.75061 19.7081 11.5701 22.5276 15.0481 22.5276Z" stroke="#333333" stroke-width="2" stroke-miterlimit="10"/>
<path d="M28.179 30.388C25.7198 28.5667 22.801 27.468 19.7513 27.2158C16.7015 26.9636 13.6419 27.5679 10.9169 28.9605C8.19198 30.3532 5.90995 32.4789 4.32781 35.0983C2.74566 37.7178 1.92624 40.7269 1.9618 43.7869H16.9686" stroke="#333333" stroke-width="2" stroke-miterlimit="10"/>
</svg>
