<svg width="0" height="0" class="hidden">
  <symbol xmlns="http://www.w3.org/2000/svg" fill="none" viewBox="0 0 12 23" id="left">
    <path d="M11 1L1 11.0574L11 21.1149" stroke="white" stroke-width="2" stroke-linecap="round" stroke-linejoin="round"></path>
  </symbol>
  <symbol xmlns="http://www.w3.org/2000/svg" fill="none" viewBox="0 0 12 23" id="right">
    <path d="M1 21.1149L11 11.0574L1 1" stroke="white" stroke-width="2" stroke-linecap="round" stroke-linejoin="round"></path>
  </symbol>
  <!-- 
   <svg class='icon' width='40' height='40'><use xlink:href='/assets/sprite.svg#left'></use> </svg>
   <svg class='icon' width='40' height='40'><use xlink:href='/assets/sprite.svg#right'></use> </svg>
   -->
    <symbol fill="none" xmlns="http://www.w3.org/2000/svg" viewBox="0 0 18 18" id="phone-icon">
      <path d="M16.9995 13.0029V15.4163C17.0004 15.6403 16.9545 15.8621 16.8648 16.0674C16.775 16.2727 16.6434 16.4569 16.4783 16.6084C16.3132 16.7599 16.1183 16.8752 15.906 16.947C15.6938 17.0187 15.4689 17.0454 15.2457 17.0252C12.7702 16.7562 10.3923 15.9103 8.30312 14.5555C6.35937 13.3204 4.71141 11.6724 3.47627 9.72864C2.11669 7.62993 1.27059 5.24046 1.00653 2.75383C0.986426 2.53137 1.01286 2.30716 1.08416 2.09547C1.15546 1.88379 1.27005 1.68926 1.42065 1.52429C1.57124 1.35932 1.75454 1.22751 1.95886 1.13726C2.16319 1.04701 2.38407 1.00029 2.60744 1.00008H5.02086C5.41128 0.996235 5.78977 1.13449 6.0858 1.38907C6.38182 1.64365 6.57517 1.99718 6.62981 2.38378C6.73168 3.15613 6.92059 3.91447 7.19295 4.64435C7.30118 4.93229 7.32461 5.24523 7.26045 5.54607C7.19629 5.84692 7.04723 6.12307 6.83093 6.3418L5.80925 7.36348C6.95447 9.37752 8.62206 11.0451 10.6361 12.1903L11.6578 11.1687C11.8765 10.9524 12.1527 10.8033 12.4535 10.7391C12.7544 10.675 13.0673 10.6984 13.3552 10.8066C14.0851 11.079 14.8435 11.2679 15.6158 11.3698C16.0066 11.4249 16.3635 11.6217 16.6186 11.9228C16.8737 12.2239 17.0093 12.6083 16.9995 13.0029Z" stroke="#FCBB46" stroke-linecap="round" stroke-linejoin="round"></path>
    </symbol>
    <!-- phone Icon -->
     <symbol xmlns="http://www.w3.org/2000/svg" viewBox="-1 0 512 512" id="whatsapp">
      <path d="m10.894531 512c-2.875 0-5.671875-1.136719-7.746093-3.234375-2.734376-2.765625-3.789063-6.78125-2.761719-10.535156l33.285156-121.546875c-20.722656-37.472656-31.648437-79.863282-31.632813-122.894532.058594-139.941406 113.941407-253.789062 253.871094-253.789062 67.871094.0273438 131.644532 26.464844 179.578125 74.433594 47.925781 47.972656 74.308594 111.742187 74.289063 179.558594-.0625 139.945312-113.945313 253.800781-253.867188 253.800781 0 0-.105468 0-.109375 0-40.871093-.015625-81.390625-9.976563-117.46875-28.84375l-124.675781 32.695312c-.914062.238281-1.84375.355469-2.761719.355469zm0 0" fill="#e5e5e5"></path>
      <path d="m10.894531 501.105469 34.46875-125.871094c-21.261719-36.839844-32.445312-78.628906-32.429687-121.441406.054687-133.933594 109.046875-242.898438 242.976562-242.898438 64.992188.027344 125.996094 25.324219 171.871094 71.238281 45.871094 45.914063 71.125 106.945313 71.101562 171.855469-.058593 133.929688-109.066406 242.910157-242.972656 242.910157-.007812 0 .003906 0 0 0h-.105468c-40.664063-.015626-80.617188-10.214844-116.105469-29.570313zm134.769531-77.75 7.378907 4.371093c31 18.398438 66.542969 28.128907 102.789062 28.148438h.078125c111.304688 0 201.898438-90.578125 201.945313-201.902344.019531-53.949218-20.964844-104.679687-59.09375-142.839844-38.132813-38.160156-88.832031-59.1875-142.777344-59.210937-111.394531 0-201.984375 90.566406-202.027344 201.886719-.015625 38.148437 10.65625 75.296875 30.875 107.445312l4.804688 7.640625-20.40625 74.5zm0 0" fill="#fff"></path>
      <path d="m19.34375 492.625 33.277344-121.519531c-20.53125-35.5625-31.324219-75.910157-31.3125-117.234375.050781-129.296875 105.273437-234.488282 234.558594-234.488282 62.75.027344 121.644531 24.449219 165.921874 68.773438 44.289063 44.324219 68.664063 103.242188 68.640626 165.898438-.054688 129.300781-105.28125 234.503906-234.550782 234.503906-.011718 0 .003906 0 0 0h-.105468c-39.253907-.015625-77.828126-9.867188-112.085938-28.539063zm0 0" fill="#64b161"></path>
      <g fill="#fff">
        <path d="m10.894531 501.105469 34.46875-125.871094c-21.261719-36.839844-32.445312-78.628906-32.429687-121.441406.054687-133.933594 109.046875-242.898438 242.976562-242.898438 64.992188.027344 125.996094 25.324219 171.871094 71.238281 45.871094 45.914063 71.125 106.945313 71.101562 171.855469-.058593 133.929688-109.066406 242.910157-242.972656 242.910157-.007812 0 .003906 0 0 0h-.105468c-40.664063-.015626-80.617188-10.214844-116.105469-29.570313zm134.769531-77.75 7.378907 4.371093c31 18.398438 66.542969 28.128907 102.789062 28.148438h.078125c111.304688 0 201.898438-90.578125 201.945313-201.902344.019531-53.949218-20.964844-104.679687-59.09375-142.839844-38.132813-38.160156-88.832031-59.1875-142.777344-59.210937-111.394531 0-201.984375 90.566406-202.027344 201.886719-.015625 38.148437 10.65625 75.296875 30.875 107.445312l4.804688 7.640625-20.40625 74.5zm0 0"></path>
        <path d="m195.183594 152.246094c-4.546875-10.109375-9.335938-10.3125-13.664063-10.488282-3.539062-.152343-7.589843-.144531-11.632812-.144531-4.046875 0-10.625 1.523438-16.1875 7.597657-5.566407 6.074218-21.253907 20.761718-21.253907 50.632812 0 29.875 21.757813 58.738281 24.792969 62.792969 3.035157 4.050781 42 67.308593 103.707031 91.644531 51.285157 20.226562 61.71875 16.203125 72.851563 15.191406 11.132813-1.011718 35.917969-14.6875 40.976563-28.863281 5.0625-14.175781 5.0625-26.324219 3.542968-28.867187-1.519531-2.527344-5.566406-4.046876-11.636718-7.082032-6.070313-3.035156-35.917969-17.726562-41.484376-19.75-5.566406-2.027344-9.613281-3.035156-13.660156 3.042969-4.050781 6.070313-15.675781 19.742187-19.21875 23.789063-3.542968 4.058593-7.085937 4.566406-13.15625 1.527343-6.070312-3.042969-25.625-9.449219-48.820312-30.132812-18.046875-16.089844-30.234375-35.964844-33.777344-42.042969-3.539062-6.070312-.058594-9.070312 2.667969-12.386719 4.910156-5.972656 13.148437-16.710937 15.171875-20.757812 2.023437-4.054688 1.011718-7.597657-.503906-10.636719-1.519532-3.035156-13.320313-33.058594-18.714844-45.066406zm0 0" fill-rule="evenodd"></path>
      </g>
    </symbol>
    <symbol fill="none" xmlns="http://www.w3.org/2000/svg" viewBox="0 0 18 15" id="mail-icon">
        <path d="M2.6 1H15.4C16.28 1 17 1.72 17 2.6V12.2C17 13.08 16.28 13.8 15.4 13.8H2.6C1.72 13.8 1 13.08 1 12.2V2.6C1 1.72 1.72 1 2.6 1Z" stroke="#DCA815" stroke-linecap="round" stroke-linejoin="round"></path>
        <path d="M17 2.59961L9 8.19961L1 2.59961" stroke="#DCA815" stroke-linecap="round" stroke-linejoin="round"></path>
    </symbol>
    <symbol fill="none" xmlns="http://www.w3.org/2000/svg" viewBox="0 0 19 19" id="search-icon">
      <path d="M8.76687 15.5542C12.694 15.5542 15.8775 12.3707 15.8775 8.44363C15.8775 4.51654 12.694 1.33301 8.76687 1.33301C4.83978 1.33301 1.65625 4.51654 1.65625 8.44363C1.65625 12.3707 4.83978 15.5542 8.76687 15.5542Z" stroke="#E8E5E5" stroke-width="1.5" stroke-linecap="round" stroke-linejoin="round"></path>
      <path d="M17.6581 17.3315L13.7917 13.4651" stroke="#E8E5E5" stroke-width="1.5" stroke-linecap="round" stroke-linejoin="round"></path>
    </symbol>
    <!-- search icon -->
    <symbol xmlns="http://www.w3.org/2000/svg" fill="#000000" viewBox="0 0 24 24" id="search">
      <path d="M0 0h24v24H0V0z" fill="none"></path>
      <path d="M15.5 14h-.79l-.28-.27C15.41 12.59 16 11.11 16 9.5 16 5.91 13.09 3 9.5 3S3 5.91 3 9.5 5.91 16 9.5 16c1.61 0 3.09-.59 4.23-1.57l.27.28v.79l5 4.99L20.49 19l-4.99-5zm-6 0C7.01 14 5 11.99 5 9.5S7.01 5 9.5 5 14 7.01 14 9.5 11.99 14 9.5 14z"></path>
    </symbol>
    <!-- search black icon -->
  <symbol xmlns="http://www.w3.org/2000/svg" fill="#000000" viewBox="0 0 24 24" id="close">
    <path d="M0 0h24v24H0V0z" fill="none"></path>
    <path d="M19 6.41L17.59 5 12 10.59 6.41 5 5 6.41 10.59 12 5 17.59 6.41 19 12 13.41 17.59 19 19 17.59 13.41 12 19 6.41z"></path>
  </symbol>
  <!-- close icon -->
   <symbol fill="none" xmlns="http://www.w3.org/2000/svg" viewBox="0 0 21 17" id="back-arrow">
    <path d="M19.5 8.07715H1" stroke="#E8E5E5" stroke-width="2" stroke-linecap="round" stroke-linejoin="round"></path>
    <path d="M8 15.0771L1 8.07715L8 1.07715" stroke="#E8E5E5" stroke-width="2" stroke-linecap="round" stroke-linejoin="round"></path>
  </symbol>
  <!-- back arrow -->
<symbol fill="none" xmlns="http://www.w3.org/2000/svg" viewBox="0 0 23 20" id="cart-icon">
    <path d="M8.21942 18.4977C8.73512 18.4977 9.15319 18.1314 9.15319 17.6795C9.15319 17.2276 8.73512 16.8613 8.21942 16.8613C7.70371 16.8613 7.28564 17.2276 7.28564 17.6795C7.28564 18.1314 7.70371 18.4977 8.21942 18.4977Z" stroke="#E8E5E5" stroke-width="1.5" stroke-linecap="round" stroke-linejoin="round"></path>
    <path d="M18.4909 18.4977C19.0066 18.4977 19.4247 18.1314 19.4247 17.6795C19.4247 17.2276 19.0066 16.8613 18.4909 16.8613C17.9752 16.8613 17.5571 17.2276 17.5571 17.6795C17.5571 18.1314 17.9752 18.4977 18.4909 18.4977Z" stroke="#E8E5E5" stroke-width="1.5" stroke-linecap="round" stroke-linejoin="round"></path>
    <path d="M0.75 1.31641H4.48509L6.98759 12.2719C7.07298 12.6485 7.30686 12.9869 7.64828 13.2277C7.9897 13.4686 8.41691 13.5965 8.85514 13.5891H17.9314C18.3696 13.5965 18.7968 13.4686 19.1382 13.2277C19.4797 12.9869 19.7135 12.6485 19.7989 12.2719L21.293 5.40732H5.41886" stroke="#E8E5E5" stroke-width="1.5" stroke-linecap="round" stroke-linejoin="round"></path>
  </symbol>
  <!-- card icon -->
  <symbol xmlns="http://www.w3.org/2000/svg" fill="white" viewBox="0 0 24 24" id="favorite_icon">
    <path d="M0 0h24v24H0V0z" fill="none"></path>
    <path d="M16.5 3c-1.74 0-3.41.81-4.5 2.09C10.91 3.81 9.24 3 7.5 3 4.42 3 2 5.42 2 8.5c0 3.78 3.4 6.86 8.55 11.54L12 21.35l1.45-1.32C18.6 15.36 22 12.28 22 8.5 22 5.42 19.58 3 16.5 3zm-4.4 15.55l-.1.1-.1-.1C7.14 14.24 4 11.39 4 8.5 4 6.5 5.5 5 7.5 5c1.54 0 3.04.99 3.57 2.36h1.87C13.46 5.99 14.96 5 16.5 5c2 0 3.5 1.5 3.5 3.5 0 2.89-3.14 5.74-7.9 10.05z"></path>
  </symbol>
  <!-- favorite_icon  -->
    <symbol fill="none" xmlns="http://www.w3.org/2000/svg" viewBox="0 0 31 31" id="bi_person">
    <path fill-rule="evenodd" clip-rule="evenodd" d="M25.1875 27.125C25.1875 27.125 27.125 27.125 27.125 25.1875C27.125 23.25 25.1875 17.4375 15.5 17.4375C5.8125 17.4375 3.875 23.25 3.875 25.1875C3.875 27.125 5.8125 27.125 5.8125 27.125H25.1875ZM5.82219 25.296V25.2921V25.296ZM5.85513 25.1875H25.1449C25.1539 25.1864 25.163 25.1852 25.172 25.1836L25.1875 25.1798C25.1856 24.7031 24.8891 23.2694 23.5755 21.9557C22.3123 20.6925 19.9349 19.375 15.5 19.375C11.0631 19.375 8.68775 20.6925 7.4245 21.9557C6.11088 23.2694 5.81638 24.7031 5.8125 25.1798C5.82668 25.1825 5.84089 25.1851 5.85513 25.1875ZM25.1798 25.296V25.2921V25.296ZM15.5 13.5625C16.5277 13.5625 17.5133 13.1542 18.24 12.4275C18.9667 11.7008 19.375 10.7152 19.375 9.6875C19.375 8.65979 18.9667 7.67416 18.24 6.94746C17.5133 6.22076 16.5277 5.8125 15.5 5.8125C14.4723 5.8125 13.4867 6.22076 12.76 6.94746C12.0333 7.67416 11.625 8.65979 11.625 9.6875C11.625 10.7152 12.0333 11.7008 12.76 12.4275C13.4867 13.1542 14.4723 13.5625 15.5 13.5625ZM21.3125 9.6875C21.3125 11.2291 20.7001 12.7075 19.6101 13.7976C18.52 14.8876 17.0416 15.5 15.5 15.5C13.9584 15.5 12.48 14.8876 11.3899 13.7976C10.2999 12.7075 9.6875 11.2291 9.6875 9.6875C9.6875 8.14593 10.2999 6.6675 11.3899 5.57744C12.48 4.48739 13.9584 3.875 15.5 3.875C17.0416 3.875 18.52 4.48739 19.6101 5.57744C20.7001 6.6675 21.3125 8.14593 21.3125 9.6875Z" fill="white"></path>
  </symbol>
  <!-- bi_person / end -->
  <symbol fill="none" xmlns="http://www.w3.org/2000/svg" viewBox="0 0 5 19" id="mobile-dot">
    <path d="M2.875 10.333C3.42728 10.333 3.875 9.88529 3.875 9.33301C3.875 8.78072 3.42728 8.33301 2.875 8.33301C2.32272 8.33301 1.875 8.78072 1.875 9.33301C1.875 9.88529 2.32272 10.333 2.875 10.333Z" stroke="white" stroke-width="2" stroke-linecap="round" stroke-linejoin="round"></path>
    <path d="M2.875 3.33301C3.42728 3.33301 3.875 2.88529 3.875 2.33301C3.875 1.78072 3.42728 1.33301 2.875 1.33301C2.32272 1.33301 1.875 1.78072 1.875 2.33301C1.875 2.88529 2.32272 3.33301 2.875 3.33301Z" stroke="white" stroke-width="2" stroke-linecap="round" stroke-linejoin="round"></path>
    <path d="M2.875 17.333C3.42728 17.333 3.875 16.8853 3.875 16.333C3.875 15.7807 3.42728 15.333 2.875 15.333C2.32272 15.333 1.875 15.7807 1.875 16.333C1.875 16.8853 2.32272 17.333 2.875 17.333Z" stroke="white" stroke-width="2" stroke-linecap="round" stroke-linejoin="round"></path>
  </symbol>
  <!-- mobile dot -->
  <symbol fill="none" xmlns="http://www.w3.org/2000/svg" viewBox="0 0 56 56" id="365days-icon">
    <path d="M31.7954 0.198242C24.5702 0.198242 18.0938 3.40149 13.7109 8.46412C14.3228 8.77341 14.8967 9.18419 15.4079 9.69679L18.4899 12.787C21.692 9.02405 26.4646 6.63671 31.7954 6.63671C41.4369 6.63671 49.2529 14.446 49.2529 24.0792C49.2529 29.4263 46.8449 34.2113 43.0533 37.4109L45.529 39.8932C46.2633 40.6295 46.788 41.4969 47.1033 42.4205C52.3553 38.0398 55.6969 31.4495 55.6969 24.0792C55.6968 10.8902 44.9958 0.198242 31.7954 0.198242Z" fill="#ED5565"></path>
    <path d="M46.3002 39.1245L42.7459 35.5606C41.3404 34.1515 39.4729 33.3754 37.4871 33.3754C35.5013 33.3754 33.6336 34.1515 32.2281 35.5608L29.0175 38.7819L16.519 26.2547L19.7335 23.0296C22.631 20.1243 22.631 15.3972 19.7335 12.492L16.1792 8.92813C14.7269 7.4719 12.797 6.66992 10.7448 6.66992C8.69268 6.66992 6.76279 7.4719 5.31048 8.92813C5.28067 8.95805 5.2526 8.9896 5.2265 9.02278L3.48622 11.23C1.82504 13.3369 0.70268 15.8423 0.240333 18.4756C-0.22593 21.1315 -0.0110744 23.8694 0.861509 26.3936C1.49378 28.2226 2.28902 29.6257 3.22502 30.5643L24.74 52.1315C25.4821 52.8756 26.5237 53.5371 27.8361 54.0975C29.7945 54.9339 31.8743 55.3438 33.9512 55.3437C37.4091 55.3436 40.858 54.207 43.7175 52.0102L46.1926 50.1087C46.2304 50.0797 46.2663 50.048 46.3001 50.0142C49.2944 47.0119 49.2944 42.1268 46.3002 39.1245ZM44.8077 48.4288L42.3921 50.2846C38.4377 53.3226 33.1875 54.0168 28.6905 52.0965C27.6357 51.646 26.8249 51.1408 26.2804 50.5949L4.76545 29.0277C4.06356 28.3238 3.44184 27.1984 2.91792 25.6826C1.38032 21.2347 2.23147 16.3355 5.19484 12.577L6.8941 10.4218C7.93008 9.40495 9.29525 8.84567 10.7448 8.84567C12.2147 8.84567 13.5975 9.42061 14.6386 10.4645L18.1929 14.0284C20.2454 16.0865 20.2454 19.4351 18.1926 21.4934L14.212 25.4871C13.7887 25.9118 13.7888 26.599 14.2123 27.0235L28.2477 41.0909C28.4517 41.2955 28.729 41.4105 29.018 41.4104C29.307 41.4103 29.5842 41.2952 29.7882 41.0906L33.7686 37.0971C34.7628 36.1002 36.0833 35.5512 37.4869 35.5512C38.8904 35.5512 40.2109 36.1002 41.2051 37.0971L44.7594 40.661C46.8927 42.7999 46.9088 46.27 44.8077 48.4288Z" fill="#020288"></path>
    <path d="M26.708 25.0124C27.8706 25.5564 28.452 26.4524 28.452 27.7004C28.452 28.639 28.1 29.3964 27.396 29.9724C26.7026 30.5377 25.8173 30.8204 24.74 30.8204C23.7906 30.8204 22.964 30.5964 22.26 30.1484C21.556 29.7004 21.0706 29.119 20.804 28.4044L22.692 27.6204C23.0013 28.4524 23.6306 28.8684 24.58 28.8684C25.0386 28.8684 25.4226 28.735 25.732 28.4684C26.052 28.2017 26.212 27.8444 26.212 27.3964C26.212 26.9804 26.052 26.6337 25.732 26.3564C25.4226 26.079 24.98 25.9404 24.404 25.9404H23.604V24.1644H24.58C25.0493 24.1644 25.4013 24.047 25.636 23.8124C25.8813 23.567 26.004 23.2524 26.004 22.8684C26.004 22.4737 25.8653 22.1537 25.588 21.9084C25.3106 21.663 24.964 21.5404 24.548 21.5404C23.8333 21.5404 23.3 21.8444 22.948 22.4524L21.204 21.5244C21.4706 20.9377 21.9026 20.4684 22.5 20.1164C23.108 19.7537 23.8066 19.5724 24.596 19.5724C25.6093 19.5724 26.452 19.8337 27.124 20.3564C27.796 20.879 28.132 21.599 28.132 22.5164C28.132 23.6044 27.6573 24.4257 26.708 24.9804V25.0124ZM34.4515 23.6524C35.4115 23.6524 36.2115 23.967 36.8515 24.5964C37.5021 25.2257 37.8275 26.0897 37.8275 27.1884C37.8275 28.255 37.4488 29.1297 36.6915 29.8124C35.9448 30.4844 35.0008 30.8204 33.8595 30.8204C32.7181 30.8204 31.7741 30.415 31.0275 29.6044C30.2808 28.783 29.9075 27.7217 29.9075 26.4204C29.9075 24.639 30.4408 23.103 31.5075 21.8124C32.5848 20.511 33.9875 19.7004 35.7155 19.3804L36.3395 21.1244C34.3021 21.7004 32.9901 22.7137 32.4035 24.1644H32.4195C33.0168 23.823 33.6941 23.6524 34.4515 23.6524ZM33.9235 28.8684C34.4355 28.8684 34.8568 28.703 35.1875 28.3724C35.5288 28.031 35.6995 27.6204 35.6995 27.1404C35.6995 26.6497 35.5341 26.2497 35.2035 25.9404C34.8728 25.631 34.4355 25.4764 33.8915 25.4764C33.1555 25.4764 32.5208 25.8017 31.9875 26.4524V26.6124C31.9875 27.2844 32.1741 27.8284 32.5475 28.2444C32.9208 28.6604 33.3795 28.8684 33.9235 28.8684ZM43.2348 23.6044C44.1948 23.6044 45.0055 23.9297 45.6668 24.5804C46.3282 25.231 46.6588 26.0844 46.6588 27.1404C46.6588 28.2177 46.2802 29.103 45.5228 29.7964C44.7762 30.479 43.8428 30.8204 42.7228 30.8204C41.1122 30.8204 39.8482 30.2444 38.9308 29.0924L40.4988 27.8284C41.0108 28.5004 41.7148 28.8364 42.6108 28.8364C43.1335 28.8364 43.5708 28.671 43.9228 28.3404C44.2748 28.0097 44.4508 27.599 44.4508 27.1084C44.4508 26.5644 44.2588 26.143 43.8748 25.8444C43.4908 25.535 43.0535 25.3804 42.5628 25.3804C41.9335 25.3804 41.3842 25.567 40.9148 25.9404L39.7628 25.5084L40.0988 19.7004H46.0988V21.6844H41.9868L41.8588 23.8444C42.3708 23.6844 42.8295 23.6044 43.2348 23.6044Z" fill="#020288"></path>
  </symbol>
  <!-- 365days support -->
  <symbol fill="none" xmlns="http://www.w3.org/2000/svg" viewBox="0 0 59 56" id="support-icon">
    <path d="M29.6343 44.2687C37.7167 44.2687 44.2687 37.7167 44.2687 29.6343C44.2687 21.552 37.7167 15 29.6343 15C21.552 15 15 21.552 15 29.6343C15 37.7167 21.552 44.2687 29.6343 44.2687Z" fill="#ED5565"></path>
    <path d="M29.6354 41.7385C36.3203 41.7385 41.7395 36.3193 41.7395 29.6344C41.7395 22.9495 36.3203 17.5303 29.6354 17.5303C22.9504 17.5303 17.5312 22.9495 17.5312 29.6344C17.5312 36.3193 22.9504 41.7385 29.6354 41.7385Z" fill="#D8ECFE"></path>
    <path d="M29.6371 21.2666C30.1896 21.2666 30.6375 20.8187 30.6375 20.2661C30.6375 19.7136 30.1896 19.2656 29.6371 19.2656C29.0846 19.2656 28.6367 19.7136 28.6367 20.2661C28.6367 20.8187 29.0846 21.2666 29.6371 21.2666Z" fill="#60B7FF"></path>
    <path d="M29.6371 40.0027C30.1896 40.0027 30.6375 39.5548 30.6375 39.0023C30.6375 38.4498 30.1896 38.002 29.6371 38.002C29.0846 38.002 28.6367 38.4498 28.6367 39.0023C28.6367 39.5548 29.0846 40.0027 29.6371 40.0027Z" fill="#60B7FF"></path>
    <path d="M39.0043 30.6355C39.5568 30.6355 40.0047 30.1876 40.0047 29.6351C40.0047 29.0827 39.5568 28.6348 39.0043 28.6348C38.4518 28.6348 38.0039 29.0827 38.0039 29.6351C38.0039 30.1876 38.4518 30.6355 39.0043 30.6355Z" fill="#60B7FF"></path>
    <path d="M20.2699 30.6355C20.8224 30.6355 21.2703 30.1876 21.2703 29.6351C21.2703 29.0827 20.8224 28.6348 20.2699 28.6348C19.7174 28.6348 19.2695 29.0827 19.2695 29.6351C19.2695 30.1876 19.7174 30.6355 20.2699 30.6355Z" fill="#60B7FF"></path>
    <path d="M33.6687 30.5586H29.2551C28.7397 30.5586 28.3177 30.9511 28.294 31.4523C28.2819 31.7118 28.3736 31.958 28.5525 32.1455C28.7314 32.333 28.9726 32.4363 29.2318 32.4363H33.6686C34.1863 32.4363 34.6074 32.0151 34.6074 31.4974C34.6075 30.9798 34.1864 30.5586 33.6687 30.5586Z" fill="#7A8C98"></path>
    <path d="M30.1705 31.4968C30.1705 31.8375 29.9904 32.1503 29.6751 32.3267C29.5407 32.4019 29.3871 32.4356 29.2331 32.4356H29.2317C29.2167 32.4356 29.2016 32.4352 29.1865 32.4346C28.6854 32.4109 28.293 31.9889 28.293 31.4735V25.9759C28.293 25.4574 28.7133 25.0371 29.2317 25.0371C29.7502 25.0371 30.1705 25.4574 30.1705 25.9759V31.4968Z" fill="#596C76"></path>
    <path d="M29.6323 15C29.206 15 28.7842 15.0193 28.3672 15.055C35.857 15.6965 41.7364 21.9783 41.7364 29.6343C41.7364 37.2904 35.857 43.5722 28.3672 44.2137C28.7843 44.2494 29.206 44.2687 29.6323 44.2687C37.7146 44.2687 44.2666 37.7167 44.2666 29.6343C44.2666 21.552 37.7146 15 29.6323 15V15Z" fill="#ED5565"></path>
    <path d="M29.6335 21.7086C30.4286 21.7086 31.0755 21.0617 31.0755 20.2665C31.0755 19.4712 30.4286 18.8242 29.6335 18.8242C28.8383 18.8242 28.1914 19.4711 28.1914 20.2664C28.1914 21.0617 28.8383 21.7086 29.6335 21.7086ZM29.6335 19.7076C29.9415 19.7076 30.1922 19.9583 30.1922 20.2664C30.1922 20.5745 29.9415 20.8252 29.6335 20.8252C29.3254 20.8252 29.0748 20.5745 29.0748 20.2664C29.0748 19.9583 29.3254 19.7076 29.6335 19.7076Z" fill="black"></path>
    <path d="M29.6335 37.5605C28.8383 37.5605 28.1914 38.2075 28.1914 39.0026C28.1914 39.7977 28.8383 40.4447 29.6335 40.4447C30.4286 40.4447 31.0755 39.7978 31.0755 39.0027C31.0755 38.2075 30.4286 37.5605 29.6335 37.5605ZM29.6335 39.5614C29.3254 39.5614 29.0748 39.3107 29.0748 39.0027C29.0748 38.6946 29.3254 38.444 29.6335 38.444C29.9415 38.444 30.1922 38.6946 30.1922 39.0027C30.1922 39.3107 29.9415 39.5614 29.6335 39.5614Z" fill="black"></path>
    <path d="M39.0046 31.0765C39.7997 31.0765 40.4466 30.4296 40.4466 29.6344C40.4466 28.8393 39.7997 28.1924 39.0046 28.1924C38.2094 28.1924 37.5625 28.8393 37.5625 29.6344C37.5625 30.4296 38.2094 31.0765 39.0046 31.0765ZM39.0046 29.0757C39.3126 29.0757 39.5633 29.3264 39.5633 29.6344C39.5633 29.9425 39.3126 30.1931 39.0046 30.1931C38.6965 30.1931 38.4459 29.9425 38.4459 29.6344C38.4459 29.3264 38.6964 29.0757 39.0046 29.0757V29.0757Z" fill="black"></path>
    <path d="M20.2624 28.1924C19.4672 28.1924 18.8203 28.8393 18.8203 29.6344C18.8203 30.4296 19.4672 31.0765 20.2624 31.0765C21.0575 31.0765 21.7044 30.4296 21.7044 29.6344C21.7044 28.8393 21.0576 28.1924 20.2624 28.1924V28.1924ZM20.2624 30.1931C19.9543 30.1931 19.7037 29.9425 19.7037 29.6344C19.7037 29.3264 19.9543 29.0757 20.2624 29.0757C20.5704 29.0757 20.8211 29.3264 20.8211 29.6344C20.8211 29.9425 20.5705 30.1931 20.2624 30.1931Z" fill="black"></path>
    <path d="M15.4316 21H13.1055V39H15.4316V21Z" fill="#342EAD"></path>
    <path d="M14.2667 39.1524H7.70196C3.4633 39.1524 0 35.3728 0 30.719V29.4334C0 24.7796 3.4633 21 7.70196 21H14.2409V23.314H7.70196C4.72973 23.314 2.3261 26.0652 2.3261 29.4334V30.719C2.3261 34.0872 4.72973 36.8384 7.70196 36.8384H14.2409V39.1524H14.2667Z" fill="#342EAD"></path>
    <path d="M45.2284 21H42.9023V39H45.2284V21Z" fill="#342EAD"></path>
    <path d="M50.6053 39.1524H44.0664V36.8384H50.6053C53.5776 36.8384 55.9812 34.0872 55.9812 30.719V29.4334C55.9812 26.0652 53.5776 23.314 50.6053 23.314H44.0664V21H50.6053C54.8698 21 58.3073 24.7796 58.3073 29.4334V30.719C58.3331 35.3728 54.8698 39.1524 50.6053 39.1524Z" fill="#342EAD"></path>
    <path d="M48.0443 22.5234C46.9588 11.1846 38.5849 2.31405 28.9962 2.31405C19.33 2.31405 11.2662 11.0046 10.2323 22.5234L7.90625 22.3177C8.44901 16.3526 10.8268 10.7732 14.6002 6.63361C18.5288 2.36547 23.6462 0 28.9962 0C39.7738 0 49.1557 9.79614 50.3704 22.292L48.0443 22.5234Z" fill="#342EAD"></path>
    <path d="M24.9683 52.2211C20.0577 52.2211 16.4134 49.7271 16.2325 49.5986L16.155 49.5471C11.1151 45.4333 9.20254 38.8511 9.125 38.5683L11.3736 37.9512L10.2622 38.2597L11.3736 37.9512C11.3994 38.0026 13.1311 44.0963 17.5765 47.7216C17.9383 47.953 21.3758 50.1385 25.6661 49.8814L25.7954 52.1954C25.5369 52.2211 25.2526 52.2211 24.9683 52.2211Z" fill="#342EAD"></path>
    <path d="M29.5922 55.9996C26.8267 55.9996 24.5781 53.7626 24.5781 51.0115C24.5781 48.2604 26.8267 46.0234 29.5922 46.0234C32.3576 46.0234 34.6062 48.2604 34.6062 51.0115C34.6062 53.7626 32.3576 55.9996 29.5922 55.9996ZM29.5922 48.3375C28.119 48.3375 26.9042 49.5459 26.9042 51.0115C26.9042 52.4771 28.119 53.6855 29.5922 53.6855C31.0653 53.6855 32.2801 52.4771 32.2801 51.0115C32.2801 49.5459 31.0912 48.3375 29.5922 48.3375Z" fill="#342EAD"></path>
  </symbol>
  <!-- support-icon"  -->
  
  <symbol version="1.1" id="adobe" xmlns="http://www.w3.org/2000/svg" xmlns:xlink="http://www.w3.org/1999/xlink" x="0px" y="0px" xml:space="preserve" viewBox="0 0 170 45">
    <g>
      <path fill-rule="evenodd" clip-rule="evenodd" fill="#3C444C" d="M54.5,10.8c-0.2,0.1-0.4,0.1-0.5,0.2c-0.4,0.2-1.2,1-1.2,1.2c0,0.1,0,0.1-0.1,0.2c-0.2,0.2-0.3,1.4-0.2,2.1
		c0.2,0.7,0.7,1.7,0.9,1.7c0,0,0.2,0.1,0.4,0.2c0.9,0.6,2.5,0.4,3.3-0.4c1.5-1.4,1-4.3-0.8-5C55.9,10.7,54.9,10.6,54.5,10.8
		 M41.7,10.8c0,0-0.1,1.3-0.1,2.9v2.9l1.5,0c1.6,0,1.5,0,2.2-0.4c0.9-0.5,1-2.4,0.1-2.6c-0.2-0.1-0.2-0.1,0-0.3
		c0.4-0.4,0.4-1.5-0.1-2c-0.4-0.4-0.8-0.5-2.3-0.5C42.3,10.7,41.7,10.8,41.7,10.8 M47.3,10.9c0,0.1,0,1.4,0,2.9v2.8h0.7h0.7v-1v-1
		h0.3c0.3,0,0.3,0,0.8,0.9c0.1,0.1,0.2,0.4,0.4,0.6c0.1,0.2,0.2,0.4,0.3,0.5c0,0.1,1.7,0.2,1.7,0.1c0-0.1-0.2-0.3-0.2-0.4
		c0,0-0.1-0.2-0.3-0.4c-0.1-0.2-0.3-0.4-0.3-0.4c0,0-0.1-0.1-0.1-0.2c-0.1-0.1-0.2-0.4-0.4-0.6c-0.1-0.2-0.3-0.4-0.2-0.4
		c1.5-0.9,1.4-2.7-0.2-3.2C49.6,10.7,47.4,10.7,47.3,10.9 M59.3,10.8c0,0,0,1.3,0,2.9v2.8h0.6h0.6l0-2l0-2l0.2,0.3
		c0.1,0.2,0.2,0.4,0.2,0.4c0,0,0.1,0.2,0.2,0.4c0.1,0.2,0.2,0.4,0.2,0.4c0,0.1,0.2,0.5,0.9,1.8l0.3,0.6l0.8,0l0.8,0l0-2.9l0-2.9
		h-0.6H63l0,1.9l0,1.9l-0.6-1.3c-1.4-2.8-1.1-2.5-2.1-2.5C59.7,10.7,59.4,10.8,59.3,10.8 M65.6,10.9c0,0.1-0.1,0.3-0.1,0.5
		c0,0.2-0.1,0.4-0.1,0.5c0,0.1,0.1,0.1,1.4,0.1h1.4l-0.3,0.4c-0.2,0.2-0.3,0.4-0.4,0.5c0,0-0.3,0.3-0.5,0.6
		c-0.2,0.3-0.4,0.6-0.5,0.6c0,0-0.1,0.1-0.1,0.1c0,0-0.1,0.2-0.2,0.3c-0.1,0.1-0.2,0.2-0.2,0.3s-0.1,0.1-0.1,0.2
		c-0.4,0.3-0.5,0.7-0.5,1.2v0.5h2.2h2.2l0.1-0.4c0-0.2,0.1-0.5,0.1-0.6l0-0.2l-1.4,0l-1.4,0l0.1-0.2c0.1-0.1,0.2-0.3,0.3-0.4
		c0.2-0.3,0.3-0.4,0.7-1c0.2-0.2,0.4-0.5,0.5-0.7c0.1-0.1,0.2-0.3,0.2-0.3s0-0.1,0.1-0.1c0.3,0,0.8-1,0.8-1.5v-0.5h-2.1
		C65.8,10.7,65.6,10.8,65.6,10.9 M71.1,13.6v2.9H73c1.5,0,1.9,0,1.9-0.1c0,0,0-0.3,0.1-0.6l0-0.5h-1.3h-1.3v-0.6v-0.6h1.1h1.1l0-0.6
		l0-0.6l-1.1,0l-1.1,0v-0.5V12l1.3,0c1.2,0,1.3,0,1.2-0.2c0-0.1,0-0.3-0.1-0.6l0-0.5H73h-1.9V13.6 M43.9,12c0.3,0.1,0.4,0.3,0.4,0.6
		c0,0.4-0.1,0.5-0.8,0.5h-0.7v-0.6v-0.6h0.4C43.5,11.8,43.8,11.9,43.9,12 M56,12.1c0.8,0.6,1,2,0.3,2.9c-0.6,0.8-1.9,0.5-2.3-0.6
		C53.5,12.8,54.8,11.2,56,12.1 M49.6,12c1,0.4,0.6,1.3-0.6,1.3h-0.5v-0.7v-0.7H49C49.2,11.9,49.5,11.9,49.6,12 M44.3,14.3
		c0.7,0.4,0.2,1.1-0.9,1.1l-0.5,0v-0.7v-0.7l0.6,0C43.9,14.2,44.1,14.2,44.3,14.3 M61.4,30.1l0,7.1l0.2,0.3c0.4,0.6,1.2,0.9,2,0.6
		l0.3-0.1v-0.5v-0.5l-0.4,0c-0.5,0.1-0.8-0.1-0.9-0.4c-0.1-0.2-0.1-1.4-0.1-6.9c0-3.7,0-6.7,0-6.8c0-0.1-0.2-0.1-0.6-0.1h-0.5
		L61.4,30.1 M44.8,24c-1.7,0.2-2.6,0.7-3.2,1.6c-0.7,1-0.6,2.8,0,3.7c0.5,0.7,1.4,1.3,2.6,1.8c0.3,0.1,0.7,0.3,1,0.4
		c0.3,0.1,0.6,0.3,0.8,0.4c0.2,0.1,0.3,0.2,0.4,0.2c0.1,0,1.1,1,1.2,1.3c0.2,0.4,0.2,1.6,0,1.9c-0.1,0.1-0.2,0.3-0.2,0.4
		c-0.6,1.2-3.5,1.6-5.1,0.8c-0.2-0.1-0.4-0.2-0.4-0.2s-0.2-0.1-0.4-0.2C41,36,40.9,36,40.9,36.6c0,0.6,0,0.7,0.5,0.9
		c1.7,0.8,4.5,0.8,5.8,0c0.1-0.1,0.3-0.2,0.3-0.2c0.2,0,0.9-1,1.1-1.4c0.6-1.6,0.3-3.1-0.9-4.1c-0.5-0.4-1.8-1.2-2-1.2
		c-0.2,0-2-0.9-2.3-1.1c-0.1-0.1-0.2-0.2-0.2-0.2c-0.1,0-0.5-0.5-0.6-0.6c0-0.1-0.2-0.3-0.2-0.4c-0.5-0.9,0.1-2.3,1.2-2.9
		c1.2-0.5,3.3-0.4,4.4,0.3c0.3,0.2,0.3,0.2,0.3-0.5v-0.6L48,24.4C47.5,24.2,45.5,23.9,44.8,24 M81.1,24.2c-0.3,0.1-0.5,0.9-0.2,1.2
		c0.5,0.5,1.3,0.1,1.3-0.6C82.1,24.2,81.7,24,81.1,24.2 M110.6,24.3c0,0,0,3.1,0,6.9l0,6.8l0.5,0l0.5,0v-2.5V33l1.4,0
		c3.8,0,5.8-1.6,5.7-4.6c-0.1-2-1-3.2-2.9-3.8l-0.7-0.2l-2.2,0C111,24.2,110.6,24.2,110.6,24.3 M76.3,25.1c-0.4,0.1-0.4,0.1-0.4,1.1
		c0,0.4,0,0.9-0.1,1.3l0,0.6h-0.8h-0.8v0.5V29h0.8h0.8l0,3.8c0,4.2,0,3.9,0.4,4.6c0.4,0.7,2.1,0.9,3,0.4c0.2-0.1,0.2-0.1,0.2-0.5
		c0-0.5,0-0.5-0.6-0.3c-0.7,0.2-1.5,0-1.7-0.4c-0.3-0.5-0.3-0.9-0.3-4.3V29H78h1.2v-0.5V28h-1.2h-1.2l0-1.1c0-0.6,0.1-1.3,0.1-1.5
		l0-0.4l-0.2,0C76.7,25,76.5,25.1,76.3,25.1 M136.7,25.1c-0.3,0.1-0.4,0.1-0.4,0.4c-0.1,0.3-0.2,1.9-0.2,2.3l0,0.3l-0.8,0l-0.8,0
		l0,0.3c0,0.6,0,0.6,0.8,0.6h0.8v3.5c0,4.4,0,4.8,0.9,5.3c0.6,0.4,1.8,0.4,2.5,0.1l0.3-0.1v-0.5c0-0.5,0-0.5-0.6-0.3
		c-0.7,0.2-1.4,0.1-1.7-0.5l-0.2-0.3l0-3.6l0-3.6h1.2h1.2v-0.5V28h-1.3h-1.3l0-1.2c0-0.7,0.1-1.3,0.1-1.5
		C137.4,25,137.4,25,136.7,25.1 M114.4,25.2c1.1,0.2,1.8,0.5,2.4,1.1c1.4,1.5,1,4.2-0.9,5.1c-0.9,0.4-1,0.4-2.7,0.5l-1.6,0v-3.3
		v-3.3l0.4,0C113.1,25.1,114.1,25.1,114.4,25.2 M53.7,28c-2.1,0.5-3.5,2.5-3.5,5c0,0.9,0.3,2.2,0.6,2.8c0.1,0.1,0.2,0.3,0.3,0.4
		c0.5,1,2,1.8,3.4,1.9c2.2,0.1,3.8-1,4.6-3.4c0.4-1.3,0.1-4.1-0.6-5c-0.1-0.1-0.2-0.3-0.2-0.3c0-0.1-1-1-1.4-1.2
		C56.1,27.9,54.8,27.7,53.7,28 M87.8,27.9c-1.4,0.3-2.4,0.9-3,1.9c-0.1,0.2-0.2,0.4-0.3,0.4c0,0.1-0.2,0.4-0.3,0.9l-0.3,0.8l0,1.2
		c0,1.3,0.2,2.1,0.6,2.9c0.1,0.2,0.2,0.4,0.2,0.4c0,0.1,0.9,1,1,1c0,0,0.2,0.1,0.3,0.2c0.7,0.6,2.7,0.8,3.9,0.4
		c0.8-0.3,2.1-1.3,2.1-1.6c0,0,0.1-0.1,0.1-0.2c0.1-0.1,0.2-0.3,0.3-0.5c0.1-0.2,0.2-0.5,0.3-0.8c0.3-0.9,0.2-3.9-0.2-4.3
		c0,0-0.1-0.1-0.1-0.2c0-0.4-1.1-1.6-1.9-2.1C89.9,28,88.5,27.7,87.8,27.9 M98.2,28c-0.6,0.1-1,0.3-1.1,0.4c0,0-0.1,0.1-0.2,0.1
		c-0.1,0-0.4,0.3-0.8,0.6l-0.2,0.2V29c0-0.2,0-0.5,0-0.6l0-0.3h-0.5h-0.5l0,0.3c0,0.1,0.1,2.4,0.1,5l0,4.7l0.5,0l0.5,0l0-3.7l0-3.7
		l0.4-0.4c2-2.1,4.7-1.4,5,1.2c0,0.3,0.1,1.9,0.1,3.6l0,3.1h0.6h0.6l0-3.7c0-4.2,0-4.3-0.6-5.2C101.2,28,99.8,27.6,98.2,28 M122,28
		c-0.4,0.1-0.9,0.2-1.1,0.3l-0.4,0.2V29c0,0.6-0.1,0.6,0.6,0.3c2.6-1,4.5-0.1,4.5,2.1V32l-0.9,0c-2.4-0.1-4.2,0.5-4.9,1.8l-0.3,0.5
		l0,0.9c0,1,0,1.1,0.5,1.8c0.2,0.4,0.9,0.9,1.1,0.9c0.1,0,0.2,0.1,0.4,0.1c1,0.5,3.3,0.3,4.7-0.4l0.5-0.2l0-3.3c0-3.1,0-3.3-0.2-3.8
		c-0.2-0.6-0.3-0.9-0.4-0.9c0,0-0.1-0.1-0.1-0.1c0-0.1-0.5-0.6-0.7-0.7C124.6,27.9,123.5,27.7,122,28 M132.8,28
		c-0.7,0.2-1.3,0.5-1.9,1.1l-0.5,0.4l0-0.4c0-0.2,0-0.6-0.1-0.7l0-0.3h-0.6h-0.6l0,0.3c0,0.2,0.1,2.4,0.1,5l0,4.7h0.5h0.5l0-1.7
		c0-0.9,0-2.5,0-3.6l0-1.9l0.2-0.3c0.7-0.9,1.7-1.4,2.8-1.6l0.3,0v-0.5v-0.5l-0.3,0C133.4,27.8,133.1,27.9,132.8,28 M144.4,28
		c-0.6,0.1-1.1,0.4-1.7,0.9l-0.4,0.3l-0.1-0.5l-0.1-0.5l-0.5,0l-0.5,0l0,4.9c0,2.7,0,4.9,0,5c0,0.1,0.2,0.1,0.5,0.1h0.5v-3.8v-3.8
		l0.5-0.5c1.3-1.3,3.2-1.5,4.1-0.5c0.4,0.4,0.4,0.4,0.6,1l0.2,0.5l0,3.5l0,3.5h0.5h0.5l0-3.3c0-3.7,0-4.3-0.4-5.1
		C147.8,28.2,146.2,27.5,144.4,28 M154.5,27.9c-1.8,0.4-2.8,1.3-3.4,3.1l-0.2,0.6l0,1.4l0,1.4l0.2,0.6c1,2.6,3.4,3.7,6.4,2.8
		c0.8-0.3,0.9-0.3,0.9-0.9c0-0.6,0-0.6-0.6-0.3c-1.1,0.5-3.2,0.5-4,0c-0.1-0.1-0.3-0.2-0.3-0.2c-0.2,0-0.9-0.9-1.1-1.4
		c-0.3-0.6-0.5-1.6-0.4-2.2c0-0.1,0.7-0.1,3.4-0.1c2,0,3.4,0,3.5-0.1c0.1-0.1,0.1-1.8,0-2.2c-0.1-0.4-0.5-1.2-0.7-1.3
		c-0.2-0.3-0.7-0.7-0.9-0.8C156.5,27.9,155.3,27.7,154.5,27.9 M164.3,28c-0.8,0.2-1.4,0.6-2.1,1.2c-0.3,0.3-0.3,0.2-0.3-0.2
		c0-0.1,0-0.4,0-0.6l0-0.3h-0.5h-0.5l0,0.4c0,0.2,0.1,2.4,0.1,5l0,4.6h0.5h0.5v-3.6v-3.6l0.2-0.3c0.8-0.9,1.7-1.4,2.8-1.6l0.3,0
		v-0.5v-0.5l-0.3,0C164.9,27.8,164.5,27.9,164.3,28 M65.2,28.1c0,0.1,0,1.7,0,3.7l0,3.6l0.2,0.7c0.5,1.4,1.4,2.1,3,2.1
		c1.1,0,2.7-0.5,3-1c0.1-0.1,0.2,0,0.2,0.2c0,0.5,0.1,0.6,0.7,0.6h0.5l0-0.3c0-0.2-0.1-2.4-0.1-5l0-4.7h-0.5h-0.5l0,3.9v3.9
		l-0.3,0.3c-1.1,1.1-3.2,1.4-4,0.6c-0.1-0.1-0.2-0.2-0.2-0.2c-0.1,0-0.6-0.9-0.7-1.3c-0.1-0.3-0.1-1.5-0.1-3.8l0-3.4h-0.6
		C65.4,28,65.2,28.1,65.2,28.1 M80.9,33l0,4.9l0.5,0l0.5,0v-5v-5h-0.6h-0.6L80.9,33 M56.1,29.1c0.2,0.1,0.4,0.2,0.4,0.2
		c0.1,0,0.4,0.3,0.7,0.6c1.1,1.2,1.4,4,0.4,5.6c-1.1,1.8-3.4,2.2-5,0.8c-0.1-0.1-0.2-0.2-0.2-0.3c0,0-0.1-0.1-0.1-0.2
		c-0.3-0.3-0.7-1.2-0.8-2c-0.3-2.3,0.7-4.3,2.5-4.8C54.4,28.8,55.7,28.9,56.1,29.1 M89.8,29.1c1,0.5,1.6,1.3,1.9,2.6
		c0.2,0.8,0.2,2,0,2.5c-0.1,0.2-0.1,0.4-0.1,0.5c0,0.1-0.1,0.3-0.4,0.8c-0.9,1.8-3.6,2.1-5,0.7c-0.3-0.3-0.6-0.7-0.6-0.8
		c0,0-0.1-0.2-0.2-0.4c-0.6-1.1-0.6-3.1,0.1-4.4C86.3,29.1,88.2,28.4,89.8,29.1 M156.3,29.1c0.9,0.4,1.4,1.1,1.6,2.3
		c0.1,0.6,0.3,0.6-3,0.6H152l0-0.4C152.3,29.6,154.6,28.2,156.3,29.1 M125.6,33c0.1,0,0.1,0.2,0.1,1.9v1.9l-0.2,0.1
		c-1.2,0.5-3,0.5-3.8,0c-1.7-1.2-1.2-3.3,1-3.7c0.3-0.1,0.6-0.1,0.7-0.1C123.6,32.8,125.4,32.9,125.6,33"></path>
      <path fill-rule="evenodd" clip-rule="evenodd" fill="#FBF8F7" d="M6.9,19.9c-0.1,0.1-0.1,11.9,0,11.9c0,0,0.2-0.2,0.3-0.5c0.1-0.3,0.4-0.9,0.6-1.4c0.2-0.5,0.6-1.4,0.8-1.9
		c0.2-0.6,0.5-1.3,0.7-1.7c0.4-1,2.4-5.7,2.5-6.1l0.1-0.3H9.4C8,19.8,6.9,19.9,6.9,19.9 M15.6,19.9c0,0,0.2,0.4,0.4,0.9
		c0.2,0.5,0.5,1.1,0.5,1.3c0.1,0.2,0.8,1.8,1.5,3.5c0.7,1.7,1.4,3.4,1.6,3.7c0.3,0.8,0.8,2,1,2.3c0.1,0.2,0.1-0.6,0.1-5.8l0-6h-2.5
		C16.7,19.8,15.6,19.8,15.6,19.9 M13.6,24.6c-0.2,0.4-1.1,2.5-1.2,2.8c-0.3,0.6-0.8,2-0.8,2c0,0,0.5,0.1,1.2,0.1h1.2l0.5,1.2
		l0.5,1.2h1.1c0.6,0,1.1,0,1.1,0c0,0-0.2-0.6-0.5-1.2c-0.3-0.7-0.8-1.9-1.2-2.8c-1.3-3-1.5-3.5-1.5-3.5
		C13.7,24.4,13.7,24.5,13.6,24.6 M11.5,34.2c0,0,0,0.3,0,0.6c0,0.5,0,0.5-0.1,0.5c-1.6,0-2,3-0.5,3.4c0.3,0.1,0.9,0,1.2-0.1l0.2-0.1
		l0-2.2l0-2.2H12C11.8,34.2,11.6,34.2,11.5,34.2 M15.6,36.4c0,1.4,0,2.3,0.1,2.3c0.2,0.1,1,0.1,1.2,0c1.6-0.5,1.4-3.4-0.2-3.4h-0.3
		v-0.6v-0.6H16h-0.4V36.4 M7.5,35.9C7.3,36.7,7.1,37.6,7,38c-0.2,0.7-0.2,0.7,0.2,0.7h0.3l0.1-0.6l0.1-0.6l0.5,0l0.5,0l0.1,0.5
		L9,38.7l0.4,0c0.5,0,0.5,0.3-0.1-2.2l-0.5-2l-0.5,0l-0.5,0L7.5,35.9 M8.6,36.9c-0.1,0.1-0.5,0-0.6-0.1c0-0.1,0.2-1.2,0.2-1.4
		c0-0.1,0.1,0.2,0.2,0.7C8.5,36.5,8.6,36.8,8.6,36.9 M13.7,35.4c-1.3,0.3-1.2,3.1,0.1,3.4c0.9,0.2,1.4-0.5,1.4-1.7
		C15.2,35.8,14.6,35.2,13.7,35.4 M19.1,35.4c-1.1,0.5-1,2.9,0.1,3.3c0.7,0.2,1.2,0.1,1.2-0.4V38l-0.3,0c-0.4,0.1-0.8-0.1-0.9-0.3
		c-0.2-0.4-0.1-0.6,0.2-0.5c0.1,0,0.4,0,0.7,0l0.5,0v-0.5C20.6,35.7,19.9,35.1,19.1,35.4 M11.5,37c0,1.1,0,1.1-0.3,1
		c-0.7-0.2-0.5-2,0.2-2C11.5,36,11.5,36.1,11.5,37 M14.2,36.2c0.3,0.4,0.1,1.9-0.2,1.9c-0.3,0-0.6-0.8-0.4-1.4
		C13.7,36.1,13.9,35.9,14.2,36.2 M16.8,36.1c0.6,0.2,0.5,1.5-0.1,1.9c-0.3,0.2-0.4,0.1-0.4-0.9C16.4,35.9,16.4,35.9,16.8,36.1
		 M19.8,36.1c0,0,0.1,0.2,0.1,0.3l0,0.2h-0.4c-0.3,0-0.4,0-0.4-0.1C19.2,36.1,19.6,35.9,19.8,36.1"></path>
      <path fill-rule="evenodd" clip-rule="evenodd" fill="#EB1423" d="M0,22.5V45h13.7h13.7V22.5V0H13.7H0V22.5 M20.6,25.9c0,6,0,6.5-0.2,6c0-0.1-0.1-0.3-0.1-0.3
		c0-0.1-0.1-0.2-0.1-0.3c0-0.1-0.1-0.3-0.2-0.4c-0.1-0.2-0.1-0.3-0.2-0.4c-0.2-0.5-0.4-1.1-0.5-1.3c-0.1-0.1-0.1-0.2-0.1-0.3
		c0,0-0.1-0.2-0.1-0.4c-0.1-0.2-0.2-0.4-0.2-0.5c0-0.1-0.1-0.3-0.2-0.5c-0.1-0.2-0.2-0.4-0.2-0.6s-0.1-0.3-0.2-0.5
		c-0.1-0.1-0.1-0.3-0.1-0.3S18,26,17.9,25.8c-0.1-0.2-0.2-0.4-0.2-0.4c0,0-0.1-0.2-0.2-0.5c-0.3-0.6-0.4-0.9-0.4-1
		c0,0-0.1-0.2-0.2-0.5c-0.2-0.5-0.3-0.8-0.5-1.2c-0.1-0.2-0.2-0.6-0.4-0.9c-0.1-0.3-0.3-0.6-0.3-0.7c0-0.1-0.1-0.3-0.2-0.4
		c-0.2-0.5-0.4-0.5,2.3-0.5c1.4,0,2.5,0,2.6,0C20.6,19.7,20.6,20.5,20.6,25.9 M11.9,20c0,0.1-0.1,0.2-0.1,0.3s-0.1,0.1-0.1,0.2
		c0,0.1-0.1,0.3-0.2,0.5c-0.1,0.2-0.2,0.5-0.2,0.5c0,0-0.1,0.3-0.3,0.7c-0.2,0.3-0.4,0.9-0.6,1.3c-0.2,0.4-0.3,0.8-0.4,1
		C10,24.5,10,24.6,10,24.7s-0.1,0.2-0.1,0.4c-0.2,0.5-0.3,0.7-0.7,1.7c-0.4,0.9-0.6,1.4-0.7,1.7c-0.2,0.4-0.4,1-0.4,1
		c0,0-0.1,0.3-0.2,0.5c-0.4,0.9-0.5,1.1-0.5,1.2c0,0.1,0,0.1-0.1,0.1s-0.1,0.1-0.1,0.1c0,0.2-0.3,0.7-0.4,0.6
		c-0.1-0.1-0.1-12.1,0-12.1c0,0,1.2,0,2.6,0H12L11.9,20 M13.9,24.6c0.1,0.1,0.2,0.4,0.3,0.6c0.1,0.2,0.2,0.6,0.3,0.8
		c0.1,0.2,0.2,0.5,0.3,0.8c0.3,0.7,0.7,1.8,0.8,1.9c0,0.1,0.1,0.2,0.1,0.2c0,0.1,0,0.1,0.1,0.1c0,0,0.1,0.2,0.2,0.4
		c0.1,0.2,0.3,0.6,0.4,0.8c0.1,0.2,0.2,0.5,0.2,0.5c0,0.1,0.2,0.6,0.4,1C17.1,32,17.1,32,16,32c-0.5,0-1,0-1.1,0
		c-0.1,0-0.4-0.5-0.7-1.3c-0.4-1.1-0.3-1.1-1.6-1.1c-1.1,0-1.3-0.1-1.2-0.3c0,0,0.1-0.3,0.2-0.6c0.3-0.7,0.3-0.7,0.4-1.1
		c0.1-0.2,0.3-0.8,0.6-1.3c0.2-0.5,0.5-1.1,0.5-1.2c0.1-0.1,0.1-0.2,0.1-0.3c0-0.2,0.3-0.7,0.4-0.7C13.8,24.3,13.9,24.4,13.9,24.6
		 M12.4,36.3l0,2.2l-0.2,0.1c-0.4,0.2-1.2,0.2-1.6,0c-0.5-0.3-0.9-1.3-0.7-1.9c0-0.1,0.1-0.3,0.1-0.5c0.1-0.5,0.8-1,1.3-1
		c0.2,0,0.2,0,0.2-0.5c0-0.7,0-0.6,0.5-0.6l0.4,0L12.4,36.3 M16.5,34.3c0,0.1,0,0.4,0,0.6l0,0.3h0.3c1.3,0,1.8,2.1,0.7,3.1
		c-0.5,0.5-1.8,0.6-1.9,0.2c-0.1-0.2-0.1-4.3,0-4.5c0,0,0.2-0.1,0.4-0.1h0.4L16.5,34.3 M8.8,34.5C8.9,34.6,9,34.7,9,34.8
		c0,0.1,0.2,1,0.4,1.7c0,0.1,0.1,0.5,0.2,0.8c0.1,0.3,0.1,0.6,0.2,0.7c0.3,0.7,0.2,0.9-0.3,0.9c-0.4,0-0.4,0-0.6-0.6l-0.1-0.4H8.3
		H7.9L7.8,38c-0.2,0.7-0.2,0.8-0.6,0.8c-0.5,0-0.5,0-0.3-0.8c0.1-0.4,0.2-0.9,0.2-1.1c0-0.2,0.1-0.5,0.1-0.6c0-0.2,0.1-0.4,0.1-0.6
		c0-0.2,0.1-0.4,0.1-0.5c0-0.1,0.1-0.3,0.1-0.4C7.6,34.3,8.6,34.1,8.8,34.5 M14.5,35.4c1,0.5,1,2.8,0,3.3c-1,0.5-1.8-0.2-1.8-1.6
		C12.7,35.7,13.5,34.9,14.5,35.4 M20,35.3c0.5,0.3,0.7,0.6,0.7,1.4c0,0.6,0,0.6-0.9,0.6c-0.6,0-0.6,0-0.5,0.3
		c0.1,0.3,0.5,0.4,0.8,0.3c0.3-0.1,0.3,0,0.3,0.3c0,0.5-0.1,0.5-0.8,0.5c-0.8,0-1.3-0.4-1.4-1.1c0-0.2-0.1-0.4-0.1-0.4
		C18,36.1,19.1,34.9,20,35.3 M8.2,35.9c-0.2,0.3-0.1,0.9,0,0.9c0.1,0,0.2,0,0.2-0.2C8.5,36.3,8.3,35.8,8.2,35.9 M11.1,36.2
		c-0.5,0.4-0.3,1.7,0.2,1.7c0.1,0,0.1-0.1,0.1-0.9C11.4,36,11.4,35.9,11.1,36.2 M13.9,36.1c-0.3,0.2-0.3,1.7,0,1.8
		c0.3,0.1,0.4-0.2,0.4-0.9C14.3,36.3,14.1,36,13.9,36.1 M19.3,36.2c-0.2,0.2-0.1,0.3,0.2,0.3c0.3,0,0.4-0.2,0.2-0.4
		C19.6,36,19.4,36.1,19.3,36.2 M16.5,36.2c-0.1,0.1-0.1,1.7,0,1.8c0.4,0.2,0.8-1,0.5-1.5C16.9,36.2,16.6,36.1,16.5,36.2"></path>
      <path fill-rule="evenodd" clip-rule="evenodd" fill="#E86A66" d="M6.8,19.8c0,0,2,0,4.3,0c0.5,0-0.3,0-1.7,0C8,19.8,6.8,19.8,6.8,19.8 M15.5,19.8c0,0,1.1,0,2.5,0l2.5,0l0,6.1
		c0,3.3,0,6.1,0,6.1c0,0,0-2.7,0-6.1v-6.1h-2.6C16.7,19.8,15.5,19.8,15.5,19.8 M11.2,21.5C11.1,21.7,11.1,21.8,11.2,21.5
		c0.1,0,0.1-0.1,0.1-0.1C11.3,21.3,11.3,21.4,11.2,21.5 M16.4,21.9c0,0.1,0.1,0.2,0.1,0.3c0,0.1,0.1,0.1,0-0.1
		C16.5,22,16.4,21.9,16.4,21.9C16.3,21.8,16.3,21.8,16.4,21.9 M13.7,24.4C13.6,24.4,13.6,24.5,13.7,24.4c0.1,0,0.1,0.1,0.2,0.2
		c0,0.1,0.1,0.2,0.1,0.2C14,24.7,13.8,24.3,13.7,24.4C13.7,24.3,13.7,24.3,13.7,24.4 M14.6,26.4c0,0.1,0.1,0.2,0.1,0.3
		c0,0.1,0,0.1,0-0.1C14.7,26.6,14.7,26.4,14.6,26.4C14.6,26.3,14.6,26.3,14.6,26.4 M9.1,26.6C9,26.8,9,26.9,9.1,26.6
		c0.1,0,0.1-0.1,0.1-0.1S9.1,26.5,9.1,26.6 M8.6,27.7C8.5,28,8.5,28,8.6,27.7c0.1,0,0.1-0.1,0.1-0.1C8.7,27.6,8.7,27.6,8.6,27.7
		 M18.9,28c0,0.1,0.1,0.2,0.1,0.2C19.1,28.3,19,28.2,18.9,28C18.9,27.9,18.8,27.8,18.9,28 M8.3,28.5c-0.1,0.2-0.1,0.3-0.1,0.3
		C8.2,28.8,8.3,28.7,8.3,28.5c0.1-0.1,0.2-0.2,0.1-0.3C8.4,28.2,8.4,28.3,8.3,28.5 M11.5,29.5c0,0.1,0.1,0.1,1.2,0.1
		c1,0,1.2,0,1.2,0.1c0.1,0.1,0.1,0.1,0,0c0-0.1,0-0.1,0-0.2c0,0-0.5,0-1.2,0C11.9,29.5,11.6,29.5,11.5,29.5
		C11.5,29.4,11.5,29.4,11.5,29.5 M16.4,30.7c0,0.1,0.1,0.2,0.1,0.2c0,0-0.1-0.4-0.1-0.4C16.3,30.4,16.4,30.5,16.4,30.7 M15.9,32
		l-1.1,0L15.9,32c0.7,0.1,1.1,0,1.1,0c0,0,0-0.1,0-0.1C17,31.9,16.5,31.9,15.9,32 M11.5,34.1c0,0,0.1,0,0.3,0c0.5,0,0.6-0.1,0.1-0.1
		C11.7,34.1,11.5,34.1,11.5,34.1 M15.6,34.1c-0.1,0.1-0.1,4.5,0,4.5c0,0,0-1,0-2.2L15.6,34.1l0.4,0h0.4l0,0.6l0,0.6l0-0.6l0-0.6
		l-0.4,0C15.8,34.1,15.6,34.1,15.6,34.1 M7.7,34.5c0,0.1,0,0.1,0,0.2c0,0,0,0,0-0.1c0-0.2,0-0.2,0.5-0.1c0.3,0,0.5,0,0.5,0
		C8.8,34.3,7.8,34.4,7.7,34.5 M8.2,35.4c0,0,0,0.1,0,0.2c0,0.1,0,0.1,0.1,0C8.3,35.5,8.3,35.3,8.2,35.4 M10.7,35.5
		c-0.1,0.1-0.3,0.2-0.4,0.3c-0.1,0.2-0.1,0.2,0.1,0c0.1-0.1,0.4-0.3,0.5-0.3c0.2-0.1,0.2-0.1,0.1-0.1C11,35.3,10.8,35.4,10.7,35.5
		 M13.3,35.6L13,35.8L13.3,35.6c0.2-0.1,0.3-0.2,0.4-0.2c0.1,0,0.1,0,0,0C13.6,35.3,13.4,35.4,13.3,35.6 M17.3,35.5
		c0.2,0.1,0.4,0.2,0.4,0.4c0.1,0.1,0.1,0.2,0.1,0.2c0-0.2-0.5-0.6-0.8-0.6C17,35.3,17.1,35.4,17.3,35.5 M20,35.5
		c0.1,0.1,0.3,0.2,0.4,0.4c0.1,0.1,0.2,0.2,0.2,0.1c0-0.1-0.5-0.6-0.7-0.6C19.8,35.3,19.8,35.4,20,35.5 M14.5,35.4
		c0,0,0.1,0.1,0.3,0.2l0.2,0.2l-0.2-0.2C14.7,35.5,14.5,35.4,14.5,35.4C14.5,35.4,14.5,35.4,14.5,35.4 M7.4,35.9c0,0.1,0,0.3,0,0.3
		C7.4,36.2,7.4,36.1,7.4,35.9c0.1-0.1,0.1-0.2,0.1-0.2C7.5,35.7,7.4,35.8,7.4,35.9 M9.2,36.1c0,0.2,0.1,0.5,0.1,0.3
		C9.3,36.3,9.3,36.2,9.2,36.1C9.2,36,9.2,36,9.2,36.1 M13.7,36.2C13.6,36.3,13.6,36.3,13.7,36.2c0.1,0,0.2-0.1,0.3-0.1
		c0.1,0,0.1,0,0,0C13.9,36,13.8,36.1,13.7,36.2 M16.4,36.1c-0.1,0.2,0,1.9,0.1,1.9c0.1,0,0.1,0,0,0c-0.2-0.1-0.1-1.9,0.1-2l0.2,0
		l-0.2,0C16.5,36,16.4,36.1,16.4,36.1 M20.6,36.7c0,0.2,0,0.3,0,0.2c0-0.1,0-0.3,0-0.4C20.6,36.4,20.6,36.5,20.6,36.7 M19.8,36.5
		c0,0.1-0.1,0.1-0.4,0.1c-0.2,0-0.4,0-0.3,0C19.2,36.7,19.8,36.6,19.8,36.5C19.9,36.5,19.9,36.5,19.8,36.5
		C19.9,36.4,19.8,36.5,19.8,36.5 M14.3,36.8c0,0.2,0,0.3,0,0.2s0-0.3,0-0.4C14.4,36.6,14.3,36.6,14.3,36.8 M15.2,37.1
		c0,0.3,0,0.5,0,0.3c0-0.2,0-0.4,0-0.6C15.2,36.6,15.2,36.7,15.2,37.1 M17.2,36.9c0,0.2,0,0.3,0,0.2c0-0.1,0-0.3,0-0.4
		C17.2,36.6,17.2,36.7,17.2,36.9 M18,36.9c0,0.2,0,0.3,0,0.2c0-0.1,0-0.3,0-0.4C18,36.6,18,36.7,18,36.9 M13.5,37.1
		c0,0.2,0,0.2,0,0.2c0-0.1,0-0.2,0-0.3C13.5,36.8,13.5,36.9,13.5,37.1 M18.3,37.1c0,0.2,0,0.2,0,0.1c0-0.1,0-0.2,0-0.3
		C18.3,36.9,18.3,36.9,18.3,37.1 M7.1,37.4C7,37.7,7.1,37.7,7.1,37.4c0.1-0.1,0.1-0.2,0.1-0.2C7.1,37.2,7.1,37.3,7.1,37.4
		 M20.2,37.2c0.1,0,0.2,0,0.3,0c0.1,0,0,0-0.2,0C20.2,37.2,20.1,37.2,20.2,37.2 M10.8,37.5c0,0.1,0.1,0.3,0.1,0.3c0,0,0,0,0-0.1
		C10.8,37.3,10.7,37.2,10.8,37.5 M14.2,37.8c-0.1,0.2-0.3,0.2-0.5,0.1l-0.1-0.1l0.1,0.2C13.9,38.2,14.4,38,14.2,37.8
		C14.3,37.7,14.3,37.7,14.2,37.8 M12.9,38.1c0,0,0.1,0.2,0.2,0.3c0.1,0.1,0.2,0.1,0.1,0.1C13.1,38.3,13,38.2,12.9,38.1
		C12.9,38,12.9,38,12.9,38.1 M19.8,38.1c0.1,0,0.2,0,0.3,0c0.1,0,0,0-0.2,0C19.7,38,19.7,38.1,19.8,38.1 M17.5,38.4l-0.2,0.2
		L17.5,38.4c0.2-0.2,0.3-0.2,0.2-0.2C17.7,38.2,17.6,38.3,17.5,38.4 M18.5,38.2c0,0,0.1,0.1,0.2,0.2l0.2,0.2l-0.2-0.2
		C18.6,38.2,18.5,38.2,18.5,38.2 M9.8,38.6c0,0.1-0.1,0.1-0.4,0.1c-0.2,0-0.4,0-0.4,0C9,38.8,9.8,38.8,9.8,38.6
		C9.8,38.7,9.8,38.6,9.8,38.6C9.8,38.6,9.8,38.6,9.8,38.6 M6.9,38.7c0,0,0.2,0,0.4,0l0.3,0l-0.4,0C7,38.7,6.9,38.7,6.9,38.7
		 M11.2,38.8c0.1,0,0.2,0,0.2,0c0.1,0,0,0-0.1,0C11.2,38.8,11.2,38.8,11.2,38.8 M16.3,38.8c0.1,0,0.2,0,0.2,0c0.1,0,0,0-0.1,0
		C16.3,38.8,16.2,38.8,16.3,38.8 M19.6,38.8c0.1,0,0.2,0,0.2,0c0.1,0,0,0-0.1,0C19.6,38.8,19.5,38.8,19.6,38.8"></path>
      <path fill-rule="evenodd" clip-rule="evenodd" fill="#CE3937" d="M6.8,25.9c0,3.3,0,4.7,0,3.1c0-1.7,0-4.4,0-6.1C6.8,21.2,6.8,22.5,6.8,25.9 M11.2,21.7
		C11,22.2,11,22.2,11.2,21.7c0.1-0.1,0.2-0.3,0.2-0.3C11.3,21.4,11.3,21.6,11.2,21.7 M16.1,21.5c0,0,0,0.1,0.1,0.2
		c0.1,0.1,0.1,0.1,0.1,0.1c0,0,0-0.1-0.1-0.2C16.2,21.5,16.1,21.4,16.1,21.5 M10.2,24c0,0.1-0.1,0.2,0,0.2
		C10.2,24.2,10.2,24.2,10.2,24C10.4,23.8,10.3,23.8,10.2,24 M9.9,24.8c0,0.1-0.1,0.2,0,0.2C9.8,25.1,9.9,25,9.9,24.8
		C10,24.6,10,24.6,9.9,24.8 M17.8,25.5c0,0.1,0.1,0.2,0.1,0.2C18,25.8,17.9,25.7,17.8,25.5C17.8,25.3,17.7,25.3,17.8,25.5
		 M18.2,26.3c0,0.1,0.1,0.2,0.1,0.2C18.3,26.6,18.3,26.5,18.2,26.3C18.2,26.1,18.1,26.1,18.2,26.3 M15.3,27.9c0,0,0.1,0.2,0.1,0.3
		c0.1,0.1,0.1,0.2,0.1,0.2c0,0-0.1-0.2-0.1-0.3C15.4,28,15.3,27.9,15.3,27.9 M15.8,29.1c0,0.1,0.1,0.2,0.1,0.2c0,0-0.1-0.3-0.1-0.3
		C15.7,28.9,15.7,29,15.8,29.1 M7.9,29.7C7.7,29.9,7.8,30,7.9,29.7C8,29.6,8,29.5,8,29.5C8,29.5,7.9,29.6,7.9,29.7 M19.9,30.6
		c0,0.1,0.1,0.2,0.1,0.2C20.1,30.9,20.1,30.8,19.9,30.6C20,30.4,19.9,30.4,19.9,30.6 M16.6,31c0,0,0.1,0.2,0.1,0.3
		c0.1,0.1,0.1,0.2,0.1,0.2s-0.1-0.2-0.1-0.3C16.7,31.1,16.6,31,16.6,31 M20.4,31.8c0,0.1,0.1,0.2,0.1,0.2
		C20.6,32.1,20.6,31.9,20.4,31.8l0-0.2L20.4,31.8 M11.4,34.7v0.5l-0.2,0c-0.2,0-0.2,0,0,0l0.3,0L11.4,34.7c0.1-0.3,0.1-0.5,0-0.5
		C11.4,34.2,11.4,34.4,11.4,34.7 M12.4,36.3c0,1.2,0,1.7,0,1.1c0-0.6,0-1.6,0-2.2C12.4,34.6,12.4,35.1,12.4,36.3 M7.8,34.4
		c0,0,0.1,0,0.3,0c0.6,0,0.7-0.1,0.2-0.1C8,34.3,7.8,34.3,7.8,34.4 M16.5,34.6c0,0.2,0,0.3,0,0.2c0-0.1,0-0.3,0-0.4
		C16.5,34.3,16.5,34.4,16.5,34.6 M8.9,34.7C8.9,35,9,35,8.9,34.7c0.1,0,0.1-0.1,0-0.2C8.8,34.5,8.8,34.6,8.9,34.7 M13.8,35.3
		c0.1,0,0.3,0,0.4,0c0.1,0,0,0-0.2,0S13.7,35.3,13.8,35.3 M16.6,35.3c0.1,0,0.3,0,0.4,0c0.1,0,0,0-0.2,0
		C16.6,35.3,16.5,35.3,16.6,35.3 M19,35.4C19,35.4,19,35.5,19,35.4c0,0,0.3,0,0.5,0l0.4,0l-0.4,0C19.3,35.3,19.1,35.3,19,35.4
		 M20.2,35.6c0.2,0.2,0.2,0.2,0.2,0.1C20.5,35.7,20.4,35.6,20.2,35.6l-0.2-0.2L20.2,35.6 M8.2,35.6c-0.1,0.2-0.1,0.3,0,0.2
		C8.3,35.8,8.3,35.7,8.2,35.6C8.3,35.5,8.3,35.5,8.2,35.6 M10.3,35.8c-0.1,0.1-0.2,0.3-0.2,0.3c0,0.1,0,0.1,0.1,0
		c0-0.1,0.2-0.2,0.3-0.3C10.6,35.5,10.5,35.5,10.3,35.8 M9.2,35.9c0,0.1,0,0.2,0.1,0.2c0,0.1,0.1,0.1,0.1,0
		C9.3,36.1,9.3,36,9.2,35.9C9.2,35.8,9.2,35.8,9.2,35.9 M11.4,37c0,0.8,0,0.9-0.1,1c-0.1,0-0.1,0,0,0C11.5,38,11.5,38,11.4,37
		c0.1-0.5,0.1-0.9,0-0.9C11.4,36.1,11.4,36.5,11.4,37 M16.5,36.1c0,0,0.1,0.1,0.2,0.1c0.2,0,0.2,0,0.3,0.2c0.1,0.1,0.1,0.2,0.1,0.1
		c0-0.2-0.3-0.5-0.5-0.5C16.6,36.1,16.5,36.1,16.5,36.1 M19.2,36.3c0,0.1-0.1,0.2-0.1,0.3c0,0.1,0,0,0,0
		C19.2,36.4,19.3,36.3,19.2,36.3c0.1-0.1,0.1-0.1,0.1-0.1C19.3,36.1,19.3,36.2,19.2,36.3 M13.6,36.4c0,0.1-0.1,0.4-0.1,0.7l0,0.5
		l0-0.6C13.7,36.7,13.7,36.4,13.6,36.4c0.1-0.1,0.1-0.2,0.1-0.2C13.7,36.2,13.7,36.3,13.6,36.4 M8.1,36.4c0,0.1,0,0.2-0.1,0.3
		c0,0.1,0,0.2,0.3,0.2c0.3,0,0.3,0,0.3-0.2c0-0.2,0-0.2-0.1,0c0,0.3-0.3,0.2-0.4-0.1C8.1,36.4,8.1,36.3,8.1,36.4 M15.5,37
		c0,0.4,0,0.5,0,0.3c0-0.2,0-0.5,0-0.7C15.5,36.5,15.5,36.6,15.5,37 M9.3,36.6c0.1,0.4,0.2,0.6,0.1,0.2c0-0.2-0.1-0.3-0.1-0.4
		C9.3,36.4,9.3,36.5,9.3,36.6 M7.2,36.6c0,0.1,0,0.2,0,0.2c0,0.1,0,0,0.1-0.1C7.3,36.5,7.3,36.4,7.2,36.6 M12.7,37
		c0,0.3,0,0.4,0,0.3s0-0.4,0-0.6C12.7,36.6,12.7,36.7,12.7,37 M9.8,36.8c0,0.1,0,0.2,0,0.4c0,0.3,0.1,0.3,0.1-0.1
		C9.9,36.7,9.9,36.6,9.8,36.8 M10.8,37c0,0.2,0,0.2,0,0.1c0-0.1,0-0.2,0-0.3C10.8,36.8,10.8,36.9,10.8,37 M18.2,37.5
		C18.3,37.7,18.3,37.7,18.2,37.5c0.1,0,0.1-0.1,0-0.2C18.2,37.3,18.2,37.3,18.2,37.5 M19.4,37.3c0.2,0,0.5,0,0.7,0c0.2,0,0,0-0.3,0
		C19.4,37.3,19.3,37.3,19.4,37.3 M17,37.6C16.8,37.9,16.9,38,17,37.6c0.1-0.1,0.2-0.2,0.1-0.2C17.1,37.3,17.1,37.4,17,37.6
		 M19.1,37.6c0,0.1,0.2,0.4,0.3,0.4c0,0,0,0,0-0.1c0,0-0.1-0.1-0.2-0.2C19.2,37.6,19.2,37.5,19.1,37.6 M12.7,37.8
		c0,0.1,0,0.2,0.1,0.2c0.1,0.1,0.1,0,0-0.1C12.8,37.7,12.7,37.6,12.7,37.8 M18.3,37.9c0,0.1,0,0.2,0.1,0.2
		C18.5,38.1,18.5,38,18.3,37.9C18.3,37.7,18.3,37.7,18.3,37.9 M9.7,38.1C9.7,38.3,9.8,38.4,9.7,38.1c0.1,0,0.1-0.1,0-0.2
		C9.7,37.9,9.7,37.9,9.7,38.1 M20.3,37.9c0,0,0.1,0.2,0.1,0.4l0,0.3l0-0.4C20.4,38,20.4,37.9,20.3,37.9
		C20.2,37.9,20.2,37.9,20.3,37.9 M7.7,38.3c0,0.1,0,0.2,0,0.3C7.7,38.6,7.7,38.5,7.7,38.3c0.1-0.1,0.1-0.2,0.1-0.2
		C7.7,38.1,7.7,38.2,7.7,38.3 M14.9,38.4c-0.1,0.2-0.1,0.2-0.1,0.2c0.1-0.1,0.3-0.5,0.3-0.5C15,38.1,15,38.2,14.9,38.4 M17.5,38.4
		c-0.1,0.1-0.2,0.2-0.4,0.3c-0.1,0-0.2,0.1-0.2,0.1C17,38.8,17.4,38.6,17.5,38.4c0.2-0.1,0.2-0.2,0.2-0.2S17.6,38.3,17.5,38.4
		 M13.1,38.5c0.1,0.1,0.2,0.2,0.3,0.2C13.5,38.8,13.5,38.8,13.1,38.5C13,38.3,13,38.3,13.1,38.5"></path>
    </g>
  </symbol>
  <!-- adobe logo -->

  <symbol version="1.1" id="partner-since-2020" xmlnsV="https://vecta.io/nano" xmlns="http://www.w3.org/2000/svg" xmlns:xlink="http://www.w3.org/1999/xlink" x="0px" y="0px" xml:space="preserve" viewBox="0 0 156 45">
    <path fill="#222D64" d="M6.4,0h143.1c2.8,0,5,2.3,5,5V40c0,2.8-2.3,5-5,5H6.4c-2.8,0-5-2.3-5-5V5C1.4,2.3,3.6,0,6.4,0z"></path>
    <path fill="#009DDC" d="M29.6,9c3.3-3.5,8.8-3.6,12.2-0.3c0.7,0.6,1.2,1.3,1.6,2.1c1.4-0.6,2.8-0.9,4.3-0.9c5.9,0,10.7,4.8,10.7,10.7
	s-4.8,10.7-10.7,10.7c-0.7,0-1.4-0.1-2.1-0.2c-2,3.6-6.5,5-10.2,3.2c-1.9,4.5-7.1,6.6-11.6,4.7c-2.3-1-4-2.8-4.9-5.1
	c-0.6,0.1-1.1,0.2-1.7,0.2C12.7,34.1,9,30.3,9,25.7c0-2.9,1.6-5.6,4.1-7.1c-2.1-4.9,0.1-10.5,5-12.6C22.2,4.3,26.9,5.5,29.6,9z"></path>
    <g>
      <path fill="#FFFFFF" d="M16.2,23.1c0,0.1,0,0.1,0,0.1c0,0,0.2,0.1,0.3,0.2c0.5,0.2,1,0.4,1.5,0.3c1,0,1.6-0.5,1.6-1.4l0,0
		c0-0.8-0.7-1.1-1.4-1.3l-0.1,0c-0.5-0.2-0.9-0.3-0.9-0.6l0,0c0-0.3,0.3-0.5,0.6-0.5c0.4,0,0.9,0.1,1.3,0.3c0,0,0.1,0.1,0.1,0
		l0.2-0.6c0,0,0-0.1-0.1-0.1c-0.4-0.3-0.9-0.4-1.5-0.4h-0.1c-0.8-0.1-1.5,0.5-1.6,1.2c0,0,0,0.1,0,0.1l0,0c0,0.9,0.7,1.1,1.4,1.3
		l0.1,0c0.5,0.1,0.9,0.3,0.9,0.6l0,0c0,0.3-0.3,0.5-0.7,0.5c-0.5,0-0.9-0.1-1.3-0.4l-0.2-0.1c0,0-0.1-0.1-0.1,0.1L16.2,23.1z
		 M31,23.1v0.1c0,0,0.2,0.1,0.3,0.2c0.5,0.2,1,0.4,1.5,0.3c1,0,1.6-0.5,1.6-1.4l0,0c0-0.8-0.7-1.1-1.4-1.3L33,21
		c-0.5-0.2-0.9-0.3-0.9-0.6l0,0c0-0.3,0.3-0.5,0.6-0.5c0.4,0,0.9,0.1,1.3,0.3c0,0,0.1,0.1,0.1,0l0.2-0.6c0,0,0-0.1-0.1-0.1
		c-0.4-0.3-0.9-0.4-1.5-0.4h-0.1c-0.8-0.1-1.5,0.5-1.6,1.2c0,0,0,0.1,0,0.1l0,0c0,0.9,0.7,1.1,1.4,1.3l0.1,0
		c0.5,0.1,0.9,0.3,0.9,0.6l0,0c0,0.3-0.3,0.5-0.7,0.5c-0.5,0-0.9-0.1-1.3-0.4l-0.2-0.1c0,0-0.1,0-0.1,0c0,0,0,0,0,0L31,23.1z
		 M42,20.5c-0.1-0.3-0.2-0.5-0.4-0.7c-0.2-0.2-0.4-0.4-0.6-0.5c-0.6-0.2-1.2-0.2-1.8,0c-0.2,0.1-0.5,0.3-0.6,0.5
		c-0.2,0.2-0.3,0.5-0.4,0.7c-0.2,0.6-0.2,1.2,0,1.8c0.1,0.3,0.2,0.5,0.4,0.7c0.2,0.2,0.4,0.4,0.6,0.5c0.6,0.2,1.2,0.2,1.8,0
		c0.2-0.1,0.5-0.3,0.6-0.5c0.2-0.2,0.3-0.5,0.4-0.7C42.2,21.8,42.2,21.1,42,20.5 M41.1,21.4c0,0.4-0.1,0.8-0.3,1.1
		c-0.3,0.5-1,0.5-1.4,0.2c-0.1-0.1-0.1-0.1-0.2-0.2c-0.2-0.3-0.3-0.7-0.3-1.1c0-0.4,0.1-0.8,0.3-1.2c0.4-0.5,1-0.5,1.5-0.2
		c0.1,0,0.1,0.1,0.2,0.2C41.1,20.6,41.2,21,41.1,21.4"></path>
      <path fill="#FFFFFF" fill-rule="evenodd" clip-rule="evenodd" d="M48.9,22.9c0,0-0.1-0.1-0.1-0.1c-0.1,0-0.3,0.1-0.4,0.1c-0.2,0-0.3,0-0.5,0c-0.3,0-0.7-0.1-0.9-0.3
		c-0.3-0.3-0.4-0.7-0.4-1.2c0-0.4,0.1-0.8,0.3-1.1c0.2-0.3,0.6-0.4,0.9-0.4c0.3,0,0.6,0,0.9,0.1c0,0,0.1,0,0.1-0.1l0.2-0.6
		c0,0,0-0.1,0-0.1c0,0,0,0,0,0c-0.2-0.1-0.4-0.1-0.6-0.1c-0.2,0-0.4,0-0.6,0c-0.3,0-0.6,0.1-0.9,0.2c-0.3,0.1-0.5,0.3-0.7,0.5
		c-0.2,0.2-0.3,0.5-0.4,0.7c-0.1,0.3-0.1,0.6-0.1,0.9c0,0.6,0.2,1.2,0.6,1.7c0.4,0.4,1,0.7,1.7,0.6c0.4,0,0.8-0.1,1.2-0.2
		c0,0,0.1-0.1,0-0.1L48.9,22.9z M53.3,20.4c-0.1-0.2-0.2-0.5-0.4-0.7c-0.2-0.2-0.3-0.3-0.5-0.4c-0.3-0.1-0.5-0.2-0.8-0.2
		c-0.3,0-0.6,0.1-0.9,0.2c-0.3,0.1-0.5,0.3-0.7,0.5c-0.2,0.2-0.3,0.5-0.4,0.7c-0.1,0.3-0.1,0.6-0.1,0.9c0,0.3,0,0.6,0.1,0.9
		c0.1,0.3,0.2,0.5,0.4,0.7c0.2,0.2,0.4,0.4,0.7,0.5c0.3,0.1,0.7,0.2,1,0.2c0.5,0,1-0.1,1.4-0.3c0,0,0.1,0,0-0.1L53,22.8
		c0,0-0.1-0.1-0.1-0.1c0,0,0,0,0,0c-0.4,0.2-0.8,0.2-1.2,0.2c-0.6,0.1-1.2-0.4-1.3-1c0-0.1,0-0.2,0-0.3h2.9c0,0,0.1,0,0.1-0.1
		C53.4,21.2,53.4,20.8,53.3,20.4z M50.4,21c0-0.2,0.1-0.5,0.2-0.7c0.2-0.3,0.5-0.4,0.8-0.4c0.3,0,0.6,0.1,0.8,0.4
		c0.1,0.2,0.2,0.4,0.2,0.7L50.4,21z M30.3,20.4c-0.1-0.2-0.2-0.5-0.4-0.7c-0.2-0.2-0.3-0.3-0.5-0.4c-0.3-0.1-0.5-0.2-0.8-0.2
		c-0.3,0-0.6,0.1-0.9,0.2c-0.2,0.1-0.5,0.3-0.6,0.5c-0.2,0.2-0.3,0.5-0.4,0.7c-0.1,0.3-0.1,0.6-0.1,0.9c0,0.3,0,0.6,0.1,0.9
		c0.1,0.3,0.2,0.5,0.4,0.7c0.2,0.2,0.4,0.4,0.7,0.5c0.3,0.1,0.7,0.2,1,0.2c0.5,0,1-0.1,1.4-0.3c0,0,0.1,0,0-0.1L30,22.8
		c0,0-0.1-0.1-0.1-0.1c-0.4,0.2-0.8,0.2-1.2,0.2c-0.4,0-0.7-0.1-1-0.3c-0.2-0.3-0.4-0.6-0.3-1h2.9c0,0,0.1,0,0.1-0.1
		C30.5,21.2,30.4,20.8,30.3,20.4z M27.5,21c0-0.2,0.1-0.5,0.2-0.7c0.2-0.3,0.5-0.4,0.8-0.4c0.3,0,0.6,0.1,0.8,0.4
		c0.1,0.2,0.2,0.4,0.2,0.7L27.5,21z"></path>
      <path fill="#FFFFFF" d="M22.4,20.8c-0.1,0-0.3,0-0.4,0c-0.2,0-0.5,0-0.7,0.1c-0.2,0.1-0.4,0.1-0.6,0.3c-0.4,0.3-0.6,0.7-0.6,1.1
		c0,0.2,0,0.4,0.1,0.6c0.1,0.2,0.2,0.3,0.4,0.4c0.2,0.1,0.4,0.2,0.6,0.3c0.2,0.1,0.5,0.1,0.8,0.1c0.3,0,0.6,0,0.9-0.1l0.7-0.1
		l0.2-0.1c0,0,0.1,0,0.1-0.1v-2.6c0-0.5-0.1-0.9-0.5-1.3c-0.4-0.3-0.8-0.4-1.3-0.4c-0.3,0-0.5,0-0.8,0.1c-0.3,0.1-0.6,0.2-0.9,0.3
		c0,0,0,0.1,0,0.1l0.2,0.5c0,0,0,0.1,0.1,0.1c0,0,0,0,0,0h0c0.4-0.2,0.8-0.3,1.3-0.3c0.2,0,0.5,0,0.7,0.2c0.2,0.1,0.2,0.3,0.2,0.7
		v0.1L22.4,20.8z M21.3,22.8c-0.1,0-0.1-0.1-0.2-0.2c-0.1-0.1-0.1-0.2-0.1-0.4c0-0.2,0.1-0.4,0.3-0.6c0.2-0.2,0.5-0.2,0.8-0.2
		c0.3,0,0.5,0,0.8,0.1v1.3c-0.3,0-0.5,0.1-0.8,0.1C21.8,23.1,21.6,23,21.3,22.8z"></path>
      <path fill="#FFFFFF" fill-rule="evenodd" clip-rule="evenodd" d="M45.5,19.4c0,0,0-0.1,0-0.1c-0.2,0-0.3-0.1-0.5-0.1c-0.3,0-0.5,0-0.7,0.1c-0.2,0.1-0.4,0.2-0.5,0.4v-0.4
		c0,0,0-0.1-0.1-0.1H43c0,0-0.1,0-0.1,0.1v4.3c0,0,0,0.1,0.1,0.1h0.8c0,0,0.1,0,0.1-0.1v-2.1c0-0.3,0-0.5,0.1-0.8
		c0.1-0.2,0.1-0.3,0.3-0.4c0.1-0.1,0.2-0.2,0.4-0.2c0.1,0,0.3-0.1,0.4-0.1c0.1,0,0.2,0,0.3,0c0,0,0.1,0,0.1-0.1L45.5,19.4z
		 M38.5,17.4l-0.3-0.1c-0.1,0-0.3,0-0.4,0c-0.4,0-0.9,0.1-1.2,0.4c-0.3,0.4-0.5,0.8-0.6,1.3l0,0.2h-0.6c0,0-0.1,0-0.1,0.1
		c0,0,0,0,0,0l-0.1,0.6c0,0.1,0,0.1,0.1,0.1h0.6l-0.6,3.6c0,0.2-0.1,0.5-0.2,0.7c0,0.1-0.1,0.3-0.2,0.4c-0.1,0.1-0.2,0.2-0.3,0.2
		c-0.1,0-0.2,0.1-0.3,0.1c-0.1,0-0.2,0-0.2,0c-0.1,0-0.1,0-0.2-0.1c0,0-0.1,0-0.1,0c0,0.1-0.2,0.5-0.2,0.6c0,0,0,0.1,0,0.1
		c0,0,0,0,0,0c0.2,0.1,0.4,0.1,0.7,0.1c0.2,0,0.4-0.1,0.7-0.1c0.2-0.1,0.4-0.2,0.5-0.4c0.2-0.2,0.3-0.4,0.4-0.6
		c0.1-0.3,0.2-0.6,0.3-1l0.6-3.7h0.9c0,0,0.1,0,0.1-0.1l0.1-0.6c0-0.1,0-0.1-0.1-0.1h-0.9c0-0.2,0.1-0.4,0.2-0.6
		c0-0.1,0.1-0.2,0.2-0.3c0.1-0.1,0.1-0.1,0.2-0.2c0.1,0,0.2,0,0.3,0c0.1,0,0.2,0,0.2,0l0.1,0c0.1,0,0.1,0,0.1,0l0.2-0.6
		C38.5,17.5,38.5,17.4,38.5,17.4C38.5,17.4,38.5,17.4,38.5,17.4z M25.7,23.6C25.7,23.6,25.7,23.7,25.7,23.6
		C25.6,23.7,25.6,23.7,25.7,23.6l-0.8,0.1c0,0-0.1,0-0.1-0.1c0,0,0,0,0,0v-6.1c0,0,0-0.1,0.1-0.1c0,0,0,0,0,0h0.8c0,0,0.1,0,0.1,0.1
		V23.6z"></path>
      <path fill="#FFFFFF" d="M77,27V16.8h3.4c0.8,0,1.7,0.1,2.4,0.4c1.1,0.6,1.8,1.8,1.8,3.1c0,1.9-1,3.6-4,3.6h-1.2V27H77z M80.6,21.5
		c1.1,0,1.6-0.4,1.6-1.3c0-0.9-0.5-1.2-1.7-1.2h-1v2.4L80.6,21.5z M91.2,27l-0.5-1.5h-3.5L86.6,27h-2.8l4.1-10.2H90L94,27H91.2z
		 M89,20L89,20l-1.1,3.5H90L89,20z M99.9,27l-2.4-3.3V27h-2.5V16.8h3.3c0.8,0,1.6,0.1,2.4,0.4c1.2,0.6,1.9,1.8,1.9,3.1
		c0.1,1.6-1,2.9-2.6,3.2l2.8,3.5H99.9z M98.5,21.9c1,0,1.7-0.5,1.7-1.5s-0.7-1.4-1.6-1.4h-1v2.8L98.5,21.9z M104.9,27v-7.9h-2v-2.3
		h6.6v2.3h-2V27H104.9z M116.9,27l-3.9-6.3l0.1,6.3h-2.5V16.8h2.2l4,6.5l-0.1-6.5h2.5V27L116.9,27z M121,27V16.8h5.7v2.3h-3.2v1.6
		h3.1v2.3h-3.1v1.8h3.2V27H121z M133.2,27l-2.4-3.3h-0.1V27h-2.5V16.8h3.3c0.8,0,1.6,0.1,2.4,0.4c1.2,0.6,1.9,1.8,1.9,3.1
		c0.1,1.6-1,2.9-2.5,3.2l2.8,3.5L133.2,27z M131.8,21.9c1,0,1.7-0.5,1.7-1.5s-0.7-1.4-1.6-1.4h-1v2.8L131.8,21.9z"></path>
    </g>
  </symbol>
  <!-- salesforce partner -->
   <symbol xmlns="http://www.w3.org/2000/svg" xml:space="preserve" version="1.1" xmlns:xlink="http://www.w3.org/1999/xlink" viewBox="0 0 60 8.5" id="nascom">
    <g id="__x0023_Layer_x0020_1">
      <metadata id="CorelCorpID_0Corel-Layer"></metadata>
      <g id="_2148304049408">
        <g>
          <path fill="#BB3B40" d="M0 8.28l0 -8.09 2.13 0 3.06 4.16c0.06,0.09 0.16,0.26 0.29,0.51 0.14,0.26 0.29,0.57 0.45,0.92 -0.05,-0.34 -0.08,-0.63 -0.1,-0.9 -0.02,-0.26 -0.03,-0.49 -0.03,-0.69l0 -4 2.12 0 0 8.09 -2.12 0 -3.06 -4.17c-0.06,-0.09 -0.16,-0.26 -0.3,-0.52 -0.13,-0.25 -0.28,-0.55 -0.44,-0.9 0.05,0.34 0.08,0.64 0.1,0.9 0.02,0.26 0.03,0.49 0.03,0.7l0 3.99 -2.13 0z"></path>
          <path fill="#BB3B40" d="M8.71 8.28l2.79 -8.09 2.77 0 2.8 8.09 -2.2 0 -0.41 -1.45 -3.13 0 -0.43 1.45 -2.19 0zm3.09 -3.02l0 0 2.2 0 -0.83 -2.67c-0.02,-0.08 -0.06,-0.21 -0.1,-0.39 -0.05,-0.18 -0.1,-0.41 -0.17,-0.7 -0.05,0.2 -0.1,0.39 -0.14,0.57 -0.05,0.18 -0.1,0.35 -0.14,0.52l-0.82 2.67z"></path>
          <path fill="#BB3B40" d="M18.21 5.67c0.33,0.37 0.65,0.65 0.97,0.83 0.32,0.19 0.64,0.28 0.95,0.28 0.3,0 0.54,-0.08 0.73,-0.24 0.19,-0.16 0.29,-0.36 0.29,-0.6 0,-0.27 -0.09,-0.48 -0.25,-0.62 -0.16,-0.15 -0.54,-0.3 -1.11,-0.45 -0.8,-0.22 -1.36,-0.5 -1.69,-0.84 -0.33,-0.34 -0.49,-0.81 -0.49,-1.4 0,-0.78 0.26,-1.41 0.78,-1.9 0.52,-0.49 1.19,-0.73 2.01,-0.73 0.45,0 0.88,0.06 1.28,0.18 0.4,0.12 0.77,0.3 1.13,0.54l-0.69 1.59c-0.25,-0.21 -0.51,-0.38 -0.77,-0.49 -0.27,-0.1 -0.53,-0.16 -0.78,-0.16 -0.27,0 -0.49,0.07 -0.65,0.19 -0.17,0.13 -0.25,0.29 -0.25,0.49 0,0.21 0.07,0.37 0.22,0.49 0.14,0.12 0.43,0.24 0.84,0.35l0.1 0.03c0.9,0.24 1.5,0.51 1.78,0.8 0.19,0.19 0.34,0.43 0.43,0.71 0.1,0.28 0.15,0.59 0.15,0.93 0,0.85 -0.28,1.54 -0.84,2.06 -0.57,0.53 -1.32,0.79 -2.26,0.79 -0.56,0 -1.08,-0.1 -1.54,-0.29 -0.46,-0.19 -0.91,-0.49 -1.34,-0.9l1 -1.64z"></path>
          <path fill="#BB3B40" d="M24.79 5.67c0.33,0.37 0.66,0.65 0.98,0.83 0.32,0.19 0.63,0.28 0.95,0.28 0.3,0 0.54,-0.08 0.73,-0.24 0.19,-0.16 0.28,-0.36 0.28,-0.6 0,-0.27 -0.08,-0.48 -0.24,-0.62 -0.17,-0.15 -0.54,-0.3 -1.12,-0.45 -0.79,-0.22 -1.35,-0.5 -1.68,-0.84 -0.33,-0.34 -0.49,-0.81 -0.49,-1.4 0,-0.78 0.26,-1.41 0.77,-1.9 0.52,-0.49 1.2,-0.73 2.02,-0.73 0.45,0 0.87,0.06 1.27,0.18 0.4,0.12 0.78,0.3 1.14,0.54l-0.69 1.59c-0.25,-0.21 -0.51,-0.38 -0.77,-0.49 -0.27,-0.1 -0.53,-0.16 -0.79,-0.16 -0.26,0 -0.48,0.07 -0.65,0.19 -0.16,0.13 -0.24,0.29 -0.24,0.49 0,0.21 0.07,0.37 0.22,0.49 0.14,0.12 0.42,0.24 0.84,0.35l0.1 0.03c0.9,0.24 1.49,0.51 1.77,0.8 0.2,0.19 0.34,0.43 0.44,0.71 0.1,0.28 0.15,0.59 0.15,0.93 0,0.85 -0.28,1.54 -0.84,2.06 -0.57,0.53 -1.32,0.79 -2.26,0.79 -0.57,0 -1.08,-0.1 -1.54,-0.29 -0.47,-0.19 -0.91,-0.49 -1.34,-0.9l0.99 -1.64z"></path>
          <path fill="#BB3B40" d="M36.89 0.51l0 2.41c-0.3,-0.34 -0.6,-0.58 -0.9,-0.74 -0.3,-0.16 -0.62,-0.24 -0.97,-0.24 -0.63,0 -1.15,0.22 -1.54,0.65 -0.39,0.44 -0.59,1 -0.59,1.7 0,0.64 0.2,1.18 0.6,1.61 0.4,0.43 0.91,0.64 1.53,0.64 0.35,0 0.67,-0.08 0.97,-0.24 0.3,-0.15 0.6,-0.4 0.9,-0.74l0 2.42c-0.35,0.17 -0.69,0.29 -1.04,0.38 -0.35,0.08 -0.7,0.13 -1.05,0.13 -0.45,0 -0.85,-0.06 -1.23,-0.16 -0.37,-0.11 -0.72,-0.27 -1.03,-0.48 -0.61,-0.41 -1.07,-0.91 -1.39,-1.53 -0.31,-0.62 -0.47,-1.31 -0.47,-2.08 0,-0.62 0.1,-1.18 0.3,-1.69 0.2,-0.5 0.51,-0.96 0.91,-1.37 0.38,-0.4 0.82,-0.69 1.3,-0.89 0.48,-0.19 1.02,-0.29 1.61,-0.29 0.35,0 0.7,0.04 1.05,0.13 0.35,0.08 0.69,0.21 1.04,0.38z"></path>
          <g>
            <path fill="#BB3B40" d="M42.13 6.63c0.61,0 1.12,-0.23 1.52,-0.67 0.4,-0.45 0.6,-1.02 0.6,-1.71 0,-0.67 -0.2,-1.24 -0.61,-1.69 -0.4,-0.46 -0.91,-0.68 -1.51,-0.68 -0.61,0 -1.12,0.22 -1.52,0.67 -0.4,0.46 -0.6,1.02 -0.6,1.7 0,0.7 0.2,1.27 0.59,1.71 0.4,0.45 0.91,0.67 1.53,0.67zm4.33 -2.38l0 0c0,0.59 -0.11,1.13 -0.32,1.64 -0.21,0.51 -0.52,0.96 -0.93,1.36 -0.42,0.4 -0.89,0.71 -1.42,0.92 -0.53,0.22 -1.08,0.33 -1.66,0.33 -0.58,0 -1.13,-0.11 -1.66,-0.33 -0.53,-0.21 -1,-0.52 -1.4,-0.92 -0.42,-0.4 -0.73,-0.85 -0.95,-1.37 -0.22,-0.51 -0.32,-1.05 -0.32,-1.63 0,-0.58 0.1,-1.12 0.32,-1.63 0.22,-0.51 0.53,-0.96 0.95,-1.37 0.4,-0.39 0.87,-0.7 1.4,-0.92 0.53,-0.21 1.08,-0.32 1.66,-0.32 0.58,0 1.13,0.11 1.67,0.32 0.53,0.22 1,0.53 1.41,0.92 0.4,0.4 0.71,0.86 0.93,1.37 0.21,0.51 0.32,1.05 0.32,1.63z"></path>
          </g>
          <path fill="#BB3B40" d="M57.14 8.28l-2.06 0 -0.48 -3.49c-0.03,-0.25 -0.06,-0.53 -0.09,-0.83 -0.03,-0.3 -0.05,-0.63 -0.07,-0.99 -0.06,0.34 -0.16,0.77 -0.31,1.28 -0.03,0.11 -0.06,0.19 -0.07,0.24l-1.1 3.79 -1.47 0 -1.11 -3.79c-0.01,-0.05 -0.04,-0.13 -0.06,-0.24 -0.16,-0.51 -0.26,-0.93 -0.31,-1.27 -0.02,0.3 -0.05,0.61 -0.08,0.91 -0.03,0.3 -0.06,0.6 -0.1,0.9l-0.48 3.49 -2.05 0 1.25 -8.09 2.19 0 1.22 4.17c0.01,0.03 0.02,0.08 0.05,0.15 0.11,0.37 0.18,0.69 0.21,0.95 0.02,-0.14 0.04,-0.3 0.08,-0.47 0.05,-0.18 0.1,-0.39 0.17,-0.64l1.24 -4.16 2.19 0 1.24 8.09z"></path>
          <g>
            <path fill="#252726" d="M58.13 1.4l0.31 0c0.15,0 0.25,-0.02 0.31,-0.07 0.05,-0.04 0.08,-0.1 0.08,-0.17 0,-0.05 -0.01,-0.09 -0.04,-0.13 -0.03,-0.04 -0.06,-0.07 -0.11,-0.08 -0.05,-0.02 -0.13,-0.03 -0.26,-0.03l-0.29 0 0 0.48zm-0.26 0.9l0 0 0 -1.59 0.55 0c0.19,0 0.32,0.01 0.41,0.04 0.08,0.03 0.14,0.08 0.2,0.15 0.05,0.08 0.07,0.15 0.07,0.24 0,0.11 -0.04,0.21 -0.13,0.3 -0.08,0.09 -0.19,0.13 -0.32,0.14 0.05,0.03 0.1,0.06 0.13,0.09 0.06,0.06 0.14,0.17 0.23,0.31l0.2 0.32 -0.31 0 -0.15 -0.26c-0.11,-0.19 -0.19,-0.32 -0.26,-0.37 -0.05,-0.03 -0.12,-0.05 -0.21,-0.05l-0.15 0 0 0.68 -0.26 0zm0.65 -2.05l0 0c0.21,0 0.41,0.05 0.61,0.16 0.19,0.1 0.35,0.25 0.46,0.45 0.11,0.2 0.17,0.41 0.17,0.62 0,0.21 -0.06,0.41 -0.17,0.61 -0.11,0.2 -0.26,0.35 -0.45,0.46 -0.2,0.11 -0.4,0.16 -0.62,0.16 -0.21,0 -0.41,-0.05 -0.61,-0.16 -0.2,-0.11 -0.35,-0.26 -0.46,-0.46 -0.11,-0.2 -0.16,-0.4 -0.16,-0.61 0,-0.21 0.05,-0.42 0.17,-0.62 0.11,-0.2 0.26,-0.35 0.46,-0.45 0.19,-0.11 0.4,-0.16 0.6,-0.16zm0 -0.25l0 0c0.25,0 0.49,0.06 0.73,0.19 0.23,0.13 0.42,0.31 0.55,0.55 0.13,0.23 0.2,0.48 0.2,0.74 0,0.25 -0.07,0.5 -0.2,0.73 -0.13,0.24 -0.31,0.42 -0.54,0.55 -0.24,0.13 -0.48,0.2 -0.74,0.2 -0.25,0 -0.5,-0.07 -0.73,-0.2 -0.24,-0.13 -0.42,-0.31 -0.55,-0.55 -0.13,-0.23 -0.2,-0.48 -0.2,-0.73 0,-0.26 0.07,-0.51 0.2,-0.74 0.13,-0.24 0.32,-0.42 0.56,-0.55 0.23,-0.13 0.47,-0.19 0.72,-0.19z"></path>
          </g>
        </g>
      </g>
    </g>
  </symbol>
   <!-- nsc logo -->

   <!-- social media icon -->
     <symbol fill="#ffffff" xmlns="http://www.w3.org/2000/svg" viewBox="0 0 16 16" id="twitter">
    <path d="M 15 3.296875 C 14.476563 3.523438 13.949219 3.691406 13.367188 3.746094 C 13.949219 3.410156 14.417969 2.84375 14.648438 2.226563 C 14.066406 2.5625 13.484375 2.789063 12.84375 2.902344 C 12.257813 2.339844 11.5 2 10.683594 2 C 9.109375 2 7.824219 3.242188 7.824219 4.765625 C 7.824219 4.988281 7.824219 5.214844 7.882813 5.386719 C 4.875 5.386719 2.8125 3.691406 1.414063 2 C 1.121094 2.394531 1.003906 2.902344 1.003906 3.410156 C 1.003906 4.367188 1.53125 5.214844 2.289063 5.722656 C 1.820313 5.667969 1.355469 5.554688 1.003906 5.386719 C 1.003906 5.386719 1.003906 5.386719 1.003906 5.441406 C 1.003906 6.796875 1.996094 7.921875 3.28125 8.148438 C 3.046875 8.203125 2.8125 8.261719 2.519531 8.261719 C 2.347656 8.261719 2.171875 8.261719 1.996094 8.207031 C 2.347656 9.335938 3.976563 10.632813 5.257813 10.632813 C 4.265625 11.363281 3.34375 12 1.5 12 C 1.265625 12 1.453125 12 1 12 C 2.28125 12.789063 3.800781 13 5.375 13 C 10.683594 13 13.542969 8.769531 13.542969 5.101563 C 13.542969 4.988281 13.542969 4.878906 13.542969 4.765625 C 14.125 4.367188 14.59375 3.863281 15 3.296875"></path>
  </symbol>
  <symbol fill="#ffffff" xmlns="http://www.w3.org/2000/svg" viewBox="0 0 16 16" id="youtube">
    <path d="M 2.488281 3.011719 C 1.664063 3.011719 0.988281 3.6875 0.988281 4.511719 L 0.988281 11.511719 C 0.988281 12.335938 1.664063 13.011719 2.488281 13.011719 L 13.488281 13.011719 C 14.308594 13.011719 14.988281 12.335938 14.988281 11.511719 L 14.988281 4.511719 C 14.988281 3.6875 14.3125 3.011719 13.488281 3.011719 Z M 2.488281 4.011719 L 13.488281 4.011719 C 13.769531 4.011719 13.988281 4.230469 13.988281 4.511719 L 13.988281 11.511719 C 13.988281 11.792969 13.769531 12.011719 13.488281 12.011719 L 2.488281 12.011719 C 2.207031 12.011719 1.988281 11.792969 1.988281 11.511719 L 1.988281 4.511719 C 1.988281 4.230469 2.207031 4.011719 2.488281 4.011719 Z M 6 4.992188 L 6 11.011719 L 11 8 Z M 7 6.757813 L 9.0625 8 L 7 9.242188 Z"></path>
  </symbol>
  <symbol fill="#ffffff" xmlns="http://www.w3.org/2000/svg" viewBox="0 0 50 50" id="youtube_1">
    <path d="M 24.402344 9 C 17.800781 9 11.601563 9.5 8.300781 10.199219 C 6.101563 10.699219 4.199219 12.199219 3.800781 14.5 C 3.402344 16.898438 3 20.5 3 25 C 3 29.5 3.398438 33 3.898438 35.5 C 4.300781 37.699219 6.199219 39.300781 8.398438 39.800781 C 11.902344 40.5 17.898438 41 24.5 41 C 31.101563 41 37.097656 40.5 40.597656 39.800781 C 42.800781 39.300781 44.699219 37.800781 45.097656 35.5 C 45.5 33 46 29.402344 46.097656 24.902344 C 46.097656 20.402344 45.597656 16.800781 45.097656 14.300781 C 44.699219 12.101563 42.800781 10.5 40.597656 10 C 37.097656 9.5 31 9 24.402344 9 Z M 24.402344 11 C 31.601563 11 37.398438 11.597656 40.199219 12.097656 C 41.699219 12.5 42.898438 13.5 43.097656 14.800781 C 43.699219 18 44.097656 21.402344 44.097656 24.902344 C 44 29.199219 43.5 32.699219 43.097656 35.199219 C 42.800781 37.097656 40.800781 37.699219 40.199219 37.902344 C 36.597656 38.601563 30.597656 39.097656 24.597656 39.097656 C 18.597656 39.097656 12.5 38.699219 9 37.902344 C 7.5 37.5 6.300781 36.5 6.101563 35.199219 C 5.300781 32.398438 5 28.699219 5 25 C 5 20.398438 5.402344 17 5.800781 14.902344 C 6.101563 13 8.199219 12.398438 8.699219 12.199219 C 12 11.5 18.101563 11 24.402344 11 Z M 19 17 L 19 33 L 33 25 Z M 21 20.402344 L 29 25 L 21 29.597656 Z"></path>
  </symbol>
  <symbol version="1.1" id="facebook" fill="#ffffff" xmlns="http://www.w3.org/2000/svg" xmlns:xlink="http://www.w3.org/1999/xlink" x="0px" y="0px" xml:space="preserve" viewBox="0 0 310 310">
    <g id="XMLID_834_">
      <path id="XMLID_835_" d="M81.703,165.106h33.981V305c0,2.762,2.238,5,5,5h57.616c2.762,0,5-2.238,5-5V165.765h39.064
		c2.54,0,4.677-1.906,4.967-4.429l5.933-51.502c0.163-1.417-0.286-2.836-1.234-3.899c-0.949-1.064-2.307-1.673-3.732-1.673h-44.996
		V71.978c0-9.732,5.24-14.667,15.576-14.667c1.473,0,29.42,0,29.42,0c2.762,0,5-2.239,5-5V5.037c0-2.762-2.238-5-5-5h-40.545
		C187.467,0.023,186.832,0,185.896,0c-7.035,0-31.488,1.381-50.804,19.151c-21.402,19.692-18.427,43.27-17.716,47.358v37.752H81.703
		c-2.762,0-5,2.238-5,5v50.844C76.703,162.867,78.941,165.106,81.703,165.106z"></path>
    </g>
  </symbol>
  <symbol fill="#ffffff" xmlns="http://www.w3.org/2000/svg" viewBox="0 0 16 16" id="instagram">
    <path d="M 4.773438 1 C 2.695313 1 1 2.695313 1 4.773438 L 1 10.230469 C 1 12.304688 2.695313 14 4.773438 14 L 10.230469 14 C 12.304688 14 14 12.304688 14 10.226563 L 14 4.773438 C 14 2.695313 12.304688 1 10.226563 1 Z M 4.773438 2 L 10.226563 2 C 11.765625 2 13 3.234375 13 4.773438 L 13 10.226563 C 13 11.765625 11.765625 13 10.230469 13 L 4.773438 13 C 3.234375 13 2 11.765625 2 10.230469 L 2 4.773438 C 2 3.234375 3.234375 2 4.773438 2 Z M 11.5 3 C 11.222656 3 11 3.222656 11 3.5 C 11 3.777344 11.222656 4 11.5 4 C 11.777344 4 12 3.777344 12 3.5 C 12 3.222656 11.777344 3 11.5 3 Z M 7.5 4 C 5.574219 4 4 5.574219 4 7.5 C 4 9.425781 5.574219 11 7.5 11 C 9.425781 11 11 9.425781 11 7.5 C 11 5.574219 9.425781 4 7.5 4 Z M 7.5 5 C 8.886719 5 10 6.113281 10 7.5 C 10 8.886719 8.886719 10 7.5 10 C 6.113281 10 5 8.886719 5 7.5 C 5 6.113281 6.113281 5 7.5 5 Z"></path>
  </symbol>

   <symbol fill="#ffffff" xmlns="http://www.w3.org/2000/svg" viewBox="0 0 50 50" id="linkedin1">
    <path d="M41,4H9C6.24,4,4,6.24,4,9v32c0,2.76,2.24,5,5,5h32c2.76,0,5-2.24,5-5V9C46,6.24,43.76,4,41,4z M17,20v19h-6V20H17z M11,14.47c0-1.4,1.2-2.47,3-2.47s2.93,1.07,3,2.47c0,1.4-1.12,2.53-3,2.53C12.2,17,11,15.87,11,14.47z M39,39h-6c0,0,0-9.26,0-10 c0-2-1-4-3.5-4.04h-0.08C27,24.96,26,27.02,26,29c0,0.91,0,10,0,10h-6V20h6v2.56c0,0,1.93-2.56,5.81-2.56 c3.97,0,7.19,2.73,7.19,8.26V39z"></path>
  </symbol> 
   <!-- social media icon -->
   <symbol version="1.1" id="mail" fill="#ffffff" xmlns="http://www.w3.org/2000/svg" xmlns:xlink="http://www.w3.org/1999/xlink" x="0px" y="0px" xml:space="preserve" viewBox="0 0 474 474">
    <g>
      <path d="M437.5,59.3h-401C16.4,59.3,0,75.7,0,95.8v282.4c0,20.1,16.4,36.5,36.5,36.5h401c20.1,0,36.5-16.4,36.5-36.5V95.8
		C474,75.7,457.6,59.3,437.5,59.3z M432.2,86.3L239.5,251.1L46.8,86.3H432.2z M447,378.2c0,5.2-4.3,9.5-9.5,9.5h-401
		c-5.2,0-9.5-4.3-9.5-9.5V104.9l203.7,174.2c0.1,0.1,0.3,0.2,0.4,0.3c0.1,0.1,0.3,0.2,0.4,0.3c0.3,0.2,0.5,0.4,0.8,0.5
		c0.1,0.1,0.2,0.1,0.3,0.2c0.4,0.2,0.8,0.4,1.2,0.6c0.1,0,0.2,0.1,0.3,0.1c0.3,0.1,0.6,0.3,1,0.4c0.1,0,0.3,0.1,0.4,0.1
		c0.3,0.1,0.6,0.2,0.9,0.2c0.1,0,0.3,0.1,0.4,0.1c0.3,0.1,0.7,0.1,1,0.2c0.1,0,0.2,0,0.3,0c0.4,0,0.9,0.1,1.3,0.1l0,0l0,0
		c0.4,0,0.9,0,1.3-0.1c0.1,0,0.2,0,0.3,0c0.3,0,0.7-0.1,1-0.2c0.1,0,0.3-0.1,0.4-0.1c0.3-0.1,0.6-0.2,0.9-0.2c0.1,0,0.3-0.1,0.4-0.1
		c0.3-0.1,0.6-0.2,1-0.4c0.1,0,0.2-0.1,0.3-0.1c0.4-0.2,0.8-0.4,1.2-0.6c0.1-0.1,0.2-0.1,0.3-0.2c0.3-0.2,0.5-0.3,0.8-0.5
		c0.1-0.1,0.3-0.2,0.4-0.3c0.1-0.1,0.3-0.2,0.4-0.3L447,109.2V378.2z"></path>
    </g>
  </symbol>
  <symbol version="1.1" fill="#ffffff" id="phone" xmlns="http://www.w3.org/2000/svg" xmlns:xlink="http://www.w3.org/1999/xlink" x="0px" y="0px" xml:space="preserve" viewBox="0 0 420.514 420.514">
    <path d="M293.814,254.728l-37.701,28.083l-7.636,24.527c-55.525-33.273-102.028-79.776-135.301-135.301l24.527-7.636l28.083-37.701
	L75.978,0L33.567,20.089L0,101.609l0.863,2.632c24.033,73.265,65.555,140.81,120.077,195.332
	c54.522,54.522,122.067,96.044,195.332,120.077l2.632,0.863l81.521-33.567l20.088-42.41L293.814,254.728z M147.246,126.481
	l-13.948,18.724L50.681,28.58l20.34-9.634L147.246,126.481z M318.327,404.53c-70.028-23.428-134.565-63.348-186.78-115.563
	C79.332,236.752,39.412,172.215,15.985,102.186l25.164-61.113l79.908,112.801l-30.221,9.409l4.594,8.095
	c36.402,64.154,89.554,117.306,153.708,153.708l8.096,4.594l9.408-30.221l112.801,79.907L318.327,404.53z M391.934,369.833
	l-116.626-82.617l18.724-13.948l107.536,76.225L391.934,369.833z"></path> 
  </symbol>
  <symbol xmlns="http://www.w3.org/2000/svg" fill="#ffffff" viewBox="0 0 24 24" id="map_location">
    <path d="M0 0h24v24H0V0z" fill="none"></path>
    <path d="M12 2C8.13 2 5 5.13 5 9c0 5.25 7 13 7 13s7-7.75 7-13c0-3.87-3.13-7-7-7zM7 9c0-2.76 2.24-5 5-5s5 2.24 5 5c0 2.88-2.88 7.19-5 9.88C9.92 16.21 7 11.85 7 9z"></path>
    <circle cx="12" cy="9" r="2.5"></circle>
  </symbol>
  <symbol xmlns="http://www.w3.org/2000/svg" enable-background="new 0 0 24 24" fill="#ffffff" viewBox="0 0 24 24" id="download">
    <g>
      <rect fill="none" height="24" width="24"></rect>
    </g>
    <g>
      <path d="M18,15v3H6v-3H4v3c0,1.1,0.9,2,2,2h12c1.1,0,2-0.9,2-2v-3H18z M17,11l-1.41-1.41L13,12.17V4h-2v8.17L8.41,9.59L7,11l5,5 L17,11z"></path>
    </g>
  </symbol>
  <symbol xmlns="http://www.w3.org/2000/svg" enable-background="new 0 0 24 24" fill="#000000" viewBox="0 0 24 24" id="download_black">
    <g>
      <rect fill="none" height="24" width="24"></rect>
    </g>
    <g>
      <path d="M18,15v3H6v-3H4v3c0,1.1,0.9,2,2,2h12c1.1,0,2-0.9,2-2v-3H18z M17,11l-1.41-1.41L13,12.17V4h-2v8.17L8.41,9.59L7,11l5,5 L17,11z"></path>
    </g>
  </symbol>
   <symbol xmlns="http://www.w3.org/2000/svg" fill="#cccccc" viewBox="0 0 24 24" id="favorite_border">
    <path d="M0 0h24v24H0z" fill="none"></path>
    <path d="M16.5 3c-1.74 0-3.41.81-4.5 2.09C10.91 3.81 9.24 3 7.5 3 4.42 3 2 5.42 2 8.5c0 3.78 3.4 6.86 8.55 11.54L12 21.35l1.45-1.32C18.6 15.36 22 12.28 22 8.5 22 5.42 19.58 3 16.5 3zm-4.4 15.55l-.1.1-.1-.1C7.14 14.24 4 11.39 4 8.5 4 6.5 5.5 5 7.5 5c1.54 0 3.04.99 3.57 2.36h1.87C13.46 5.99 14.96 5 16.5 5c2 0 3.5 1.5 3.5 3.5 0 2.89-3.14 5.74-7.9 10.05z"></path>
  </symbol>
  <symbol xmlns="http://www.w3.org/2000/svg" fill="currentColor" viewBox="0 0 24 24" id="favorite_black_24dp">
    <path d="M0 0h24v24H0z" fill="none"></path>
    <path d="M12 21.35l-1.45-1.32C5.4 15.36 2 12.28 2 8.5 2 5.42 4.42 3 7.5 3c1.74 0 3.41.81 4.5 2.09C13.09 3.81 14.76 3 16.5 3 19.58 3 22 5.42 22 8.5c0 3.78-3.4 6.86-8.55 11.54L12 21.35z"></path>
  </symbol>
  <symbol fill="none" xmlns="http://www.w3.org/2000/svg" viewBox="0 0 22 35" id="free-installation">
    <path d="M16.8163 6.63158C16.3953 4.10526 14.1496 2.5614 13.0268 2V6.21053C13.0268 7.89474 11.3426 8.31579 10.5005 8.31579C8.8163 8.31579 8.11455 7.19298 7.9742 6.63158V2C4.94262 2.67368 3.90402 6.21053 3.76367 7.89474C3.76367 11.6 6.57069 13.6491 7.9742 14.2105V16.7368L13.0268 15.0526V14.2105C17.2374 11.6842 17.0864 8.25199 16.8163 6.63158Z" stroke="#DC2230" stroke-width="1.5"></path>
    <path d="M11.0794 16.7369C12.4829 16.0351 16.5531 14.0421 18.2373 15.0526C18.9391 15.3333 20.3426 16.4 20.3426 18.421V23.4737C20.3426 24.1754 19.8373 25.4947 17.8163 25.1579H10.2373" stroke="#020288" stroke-width="1.5" stroke-linejoin="round"></path>
    <path d="M14.7108 16.7368H7.55294C3.17399 17.7473 1.79855 21.0877 1.6582 22.6316V27.6842C2.33189 32.7368 6.43013 34 8.39505 34H15.5529C17.9108 33.3263 16.8161 30.9123 15.974 29.7894C18.3319 28.1052 16.9564 26 15.974 25.1579C18.3319 23.4737 16.6757 21.6491 15.5529 20.9473C17.2372 20.6105 17.3775 19.1228 17.2372 18.421C17.2372 17.0737 15.5529 16.7368 14.7108 16.7368Z" stroke="#020288" stroke-width="1.5"></path>
    <line x1="9.2373" y1="20.1973" x2="15.9741" y2="20.1973" stroke="#020288" stroke-width="1.5" stroke-linejoin="round"></line>
    <line x1="9.2373" y1="29.4604" x2="15.9741" y2="29.4604" stroke="#020288" stroke-width="1.5" stroke-linejoin="round"></line>
  </symbol>
  <symbol fill="none" xmlns="http://www.w3.org/2000/svg" viewBox="0 0 41 42" id="free-update">
    <path d="M16.6118 35.075L16.422 35.8006L16.6118 35.075ZM9.10889 29.947L9.71595 29.5065L9.71595 29.5065L9.10889 29.947ZM6.56224 21.2231L5.81357 21.1785L5.81357 21.1785L6.56224 21.2231ZM10.128 12.8639L9.5776 12.3545L9.5776 12.3545L10.128 12.8639ZM18.1874 8.66429L18.2896 9.40729L18.1874 8.66429ZM27.0816 10.5307L26.6893 11.1699L27.0816 10.5307ZM32.7729 17.6159L32.2325 8.97257L25.0173 13.7622L32.7729 17.6159ZM31.4835 27.5931C30.1956 30.2438 28.0285 32.3659 25.3513 33.5979L25.9784 34.9606C28.9708 33.5835 31.3931 31.2115 32.8327 28.2487L31.4835 27.5931ZM25.3513 33.5979C22.6742 34.8299 19.6527 35.0955 16.8017 34.3494L16.422 35.8006C19.6087 36.6345 22.986 36.3376 25.9784 34.9606L25.3513 33.5979ZM16.8017 34.3494C13.9507 33.6034 11.4465 31.8919 9.71595 29.5065L8.50183 30.3874C10.4362 33.0536 13.2352 34.9667 16.422 35.8006L16.8017 34.3494ZM9.71595 29.5065C7.98537 27.1212 7.13541 24.2096 7.31091 21.2678L5.81357 21.1785C5.61741 24.4667 6.56745 27.7211 8.50183 30.3874L9.71595 29.5065ZM7.31091 21.2678C7.48641 18.326 8.67649 15.5361 10.6784 13.3734L9.5776 12.3545C7.33996 14.7718 6.00973 17.8903 5.81357 21.1785L7.31091 21.2678ZM10.6784 13.3734C12.6803 11.2107 15.3701 9.80908 18.2896 9.40729L18.0851 7.92129C14.8218 8.3704 11.8152 9.9371 9.5776 12.3545L10.6784 13.3734ZM18.2896 9.40729C21.2091 9.0055 24.1776 9.62843 26.6893 11.1699L27.4739 9.89152C24.6665 8.16848 21.3484 7.47219 18.0851 7.92129L18.2896 9.40729ZM26.6893 11.1699C27.35 11.5754 27.9683 12.0379 28.5383 12.5499L29.5407 11.434C28.9035 10.8616 28.2124 10.3447 27.4739 9.89152L26.6893 11.1699Z" fill="#020288"></path>
    <path d="M19 17V24C19 24.5523 19.4477 25 20 25H27" stroke="#E84A5F" stroke-width="1.5"></path>
  </symbol>
   <symbol fill="none" xmlns="http://www.w3.org/2000/svg" viewBox="0 0 22 16" id="maill">
    <path d="M3 0H19C20.1 0 21 0.9 21 2V14C21 15.1 20.1 16 19 16H3C1.9 16 1 15.1 1 14V2C1 0.9 1.9 0 3 0Z" fill="#E64A5E"></path>
    <path d="M21 2L11 9L1 2" stroke="white" stroke-width="2" stroke-linecap="round" stroke-linejoin="round"></path>
  </symbol>
  <symbol fill="none" xmlns="http://www.w3.org/2000/svg" viewBox="0 0 16 16" id="phhone">
    <path d="M14.997 16C6.46601 16.012 -0.00899063 9.46 9.3707e-06 1.003C9.3707e-06 0.45 0.448009 0 1.00001 0H3.64001C4.13501 0 4.55601 0.364 4.62901 0.854C4.80311 2.02905 5.14493 3.17305 5.64401 4.251L5.74701 4.473C5.8162 4.62239 5.83108 4.79124 5.78909 4.95043C5.7471 5.10962 5.65088 5.24917 5.51701 5.345C4.69901 5.929 4.38701 7.104 5.02401 8.02C5.82301 9.17 6.83001 10.178 7.98001 10.977C8.89701 11.613 10.072 11.301 10.655 10.484C10.7507 10.3497 10.8904 10.2531 11.0498 10.211C11.2092 10.1688 11.3784 10.1836 11.528 10.253L11.749 10.355C12.827 10.855 13.971 11.197 15.146 11.371C15.636 11.444 16 11.865 16 12.361V15C16 15.1314 15.9741 15.2615 15.9238 15.3829C15.8735 15.5043 15.7997 15.6146 15.7068 15.7075C15.6138 15.8003 15.5034 15.874 15.382 15.9242C15.2606 15.9744 15.1304 16.0001 14.999 16H14.997Z" fill="#E64A5E"></path>
  </symbol>
  <symbol xmlns="http://www.w3.org/2000/svg" viewBox="-1 0 512 512" id="whatsapp">
    <path d="m10.894531 512c-2.875 0-5.671875-1.136719-7.746093-3.234375-2.734376-2.765625-3.789063-6.78125-2.761719-10.535156l33.285156-121.546875c-20.722656-37.472656-31.648437-79.863282-31.632813-122.894532.058594-139.941406 113.941407-253.789062 253.871094-253.789062 67.871094.0273438 131.644532 26.464844 179.578125 74.433594 47.925781 47.972656 74.308594 111.742187 74.289063 179.558594-.0625 139.945312-113.945313 253.800781-253.867188 253.800781 0 0-.105468 0-.109375 0-40.871093-.015625-81.390625-9.976563-117.46875-28.84375l-124.675781 32.695312c-.914062.238281-1.84375.355469-2.761719.355469zm0 0" fill="#e5e5e5"></path>
    <path d="m10.894531 501.105469 34.46875-125.871094c-21.261719-36.839844-32.445312-78.628906-32.429687-121.441406.054687-133.933594 109.046875-242.898438 242.976562-242.898438 64.992188.027344 125.996094 25.324219 171.871094 71.238281 45.871094 45.914063 71.125 106.945313 71.101562 171.855469-.058593 133.929688-109.066406 242.910157-242.972656 242.910157-.007812 0 .003906 0 0 0h-.105468c-40.664063-.015626-80.617188-10.214844-116.105469-29.570313zm134.769531-77.75 7.378907 4.371093c31 18.398438 66.542969 28.128907 102.789062 28.148438h.078125c111.304688 0 201.898438-90.578125 201.945313-201.902344.019531-53.949218-20.964844-104.679687-59.09375-142.839844-38.132813-38.160156-88.832031-59.1875-142.777344-59.210937-111.394531 0-201.984375 90.566406-202.027344 201.886719-.015625 38.148437 10.65625 75.296875 30.875 107.445312l4.804688 7.640625-20.40625 74.5zm0 0" fill="#fff"></path>
    <path d="m19.34375 492.625 33.277344-121.519531c-20.53125-35.5625-31.324219-75.910157-31.3125-117.234375.050781-129.296875 105.273437-234.488282 234.558594-234.488282 62.75.027344 121.644531 24.449219 165.921874 68.773438 44.289063 44.324219 68.664063 103.242188 68.640626 165.898438-.054688 129.300781-105.28125 234.503906-234.550782 234.503906-.011718 0 .003906 0 0 0h-.105468c-39.253907-.015625-77.828126-9.867188-112.085938-28.539063zm0 0" fill="#64b161"></path>
    <g fill="#fff">
      <path d="m10.894531 501.105469 34.46875-125.871094c-21.261719-36.839844-32.445312-78.628906-32.429687-121.441406.054687-133.933594 109.046875-242.898438 242.976562-242.898438 64.992188.027344 125.996094 25.324219 171.871094 71.238281 45.871094 45.914063 71.125 106.945313 71.101562 171.855469-.058593 133.929688-109.066406 242.910157-242.972656 242.910157-.007812 0 .003906 0 0 0h-.105468c-40.664063-.015626-80.617188-10.214844-116.105469-29.570313zm134.769531-77.75 7.378907 4.371093c31 18.398438 66.542969 28.128907 102.789062 28.148438h.078125c111.304688 0 201.898438-90.578125 201.945313-201.902344.019531-53.949218-20.964844-104.679687-59.09375-142.839844-38.132813-38.160156-88.832031-59.1875-142.777344-59.210937-111.394531 0-201.984375 90.566406-202.027344 201.886719-.015625 38.148437 10.65625 75.296875 30.875 107.445312l4.804688 7.640625-20.40625 74.5zm0 0"></path>
      <path d="m195.183594 152.246094c-4.546875-10.109375-9.335938-10.3125-13.664063-10.488282-3.539062-.152343-7.589843-.144531-11.632812-.144531-4.046875 0-10.625 1.523438-16.1875 7.597657-5.566407 6.074218-21.253907 20.761718-21.253907 50.632812 0 29.875 21.757813 58.738281 24.792969 62.792969 3.035157 4.050781 42 67.308593 103.707031 91.644531 51.285157 20.226562 61.71875 16.203125 72.851563 15.191406 11.132813-1.011718 35.917969-14.6875 40.976563-28.863281 5.0625-14.175781 5.0625-26.324219 3.542968-28.867187-1.519531-2.527344-5.566406-4.046876-11.636718-7.082032-6.070313-3.035156-35.917969-17.726562-41.484376-19.75-5.566406-2.027344-9.613281-3.035156-13.660156 3.042969-4.050781 6.070313-15.675781 19.742187-19.21875 23.789063-3.542968 4.058593-7.085937 4.566406-13.15625 1.527343-6.070312-3.042969-25.625-9.449219-48.820312-30.132812-18.046875-16.089844-30.234375-35.964844-33.777344-42.042969-3.539062-6.070312-.058594-9.070312 2.667969-12.386719 4.910156-5.972656 13.148437-16.710937 15.171875-20.757812 2.023437-4.054688 1.011718-7.597657-.503906-10.636719-1.519532-3.035156-13.320313-33.058594-18.714844-45.066406zm0 0" fill-rule="evenodd"></path>
    </g>
  </symbol>
  <symbol fill="none" xmlns="http://www.w3.org/2000/svg" viewBox="0 0 15 14" id="cross">
    <path d="M13.8105 1L1.81055 13" stroke="#454646" stroke-width="2" stroke-linecap="round" stroke-linejoin="round"></path>
    <path d="M1.81055 1L13.8105 13" stroke="#454646" stroke-width="2" stroke-linecap="round" stroke-linejoin="round"></path>
  </symbol>
  
  
</svg>