<svg width="23" height="23" viewBox="0 0 23 23" fill="none" xmlns="http://www.w3.org/2000/svg">
<path d="M5.51172 8.1846V1.24951H17.5117V8.1846" stroke="#5A5B5C" stroke-width="2" stroke-linecap="round" stroke-linejoin="round"/>
<path d="M5.51172 17.101H3.51172C2.98129 17.101 2.47258 16.8922 2.09751 16.5206C1.72243 16.149 1.51172 15.645 1.51172 15.1195V10.166C1.51172 9.64048 1.72243 9.1365 2.09751 8.76491C2.47258 8.39333 2.98129 8.18457 3.51172 8.18457H19.5117C20.0422 8.18457 20.5509 8.39333 20.9259 8.76491C21.301 9.1365 21.5117 9.64048 21.5117 10.166V15.1195C21.5117 15.645 21.301 16.149 20.9259 16.5206C20.5509 16.8922 20.0422 17.101 19.5117 17.101H17.5117" stroke="#5A5B5C" stroke-width="2" stroke-linecap="round" stroke-linejoin="round"/>
<path d="M17.5117 13.1382H5.51172V21.064H17.5117V13.1382Z" stroke="#5A5B5C" stroke-width="2" stroke-linecap="round" stroke-linejoin="round"/>
</svg>
