<svg width="22" height="21" viewBox="0 0 22 21" fill="none" xmlns="http://www.w3.org/2000/svg">
<path d="M8.27237 20.0894C8.77445 20.0894 9.18146 19.6824 9.18146 19.1803C9.18146 18.6783 8.77445 18.2712 8.27237 18.2712C7.7703 18.2712 7.36328 18.6783 7.36328 19.1803C7.36328 19.6824 7.7703 20.0894 8.27237 20.0894Z" stroke="#5A5B5C" stroke-width="1.5" stroke-linecap="round" stroke-linejoin="round"/>
<path d="M18.2724 20.0894C18.7744 20.0894 19.1815 19.6824 19.1815 19.1803C19.1815 18.6783 18.7744 18.2712 18.2724 18.2712C17.7703 18.2712 17.3633 18.6783 17.3633 19.1803C17.3633 19.6824 17.7703 20.0894 18.2724 20.0894Z" stroke="#5A5B5C" stroke-width="1.5" stroke-linecap="round" stroke-linejoin="round"/>
<path d="M1 0.998535H4.63636L7.07273 13.1713C7.15586 13.5898 7.38355 13.9658 7.71595 14.2334C8.04835 14.5009 8.46427 14.6431 8.89091 14.6349H17.7273C18.1539 14.6431 18.5698 14.5009 18.9022 14.2334C19.2346 13.9658 19.4623 13.5898 19.5455 13.1713L21 5.54399H5.54545" stroke="#5A5B5C" stroke-width="1.5" stroke-linecap="round" stroke-linejoin="round"/>
</svg>
